SplineFontDB: 3.0
FontName: WebAtlas
FullName: WebAtlas
FamilyName: WebAtlas
Weight: Regular
Copyright: MIT License 2018, Louis MORAES.
Version: 0.6.0
ItalicAngle: 0
UnderlinePosition: -170
UnderlineWidth: 50
Ascent: 800
Descent: 200
InvalidEm: 0
sfntRevision: 0x00010000
LayerCount: 2
Layer: 0 1 "Arri+AOgA-re" 1
Layer: 1 1 "Avant" 0
XUID: [1021 206 1625637039 14079]
StyleMap: 0x0040
FSType: 8
OS2Version: 3
OS2_WeightWidthSlopeOnly: 0
OS2_UseTypoMetrics: 0
CreationTime: 1375896762
ModificationTime: 1556794560
PfmFamily: 81
TTFWeight: 400
TTFWidth: 5
LineGap: 0
VLineGap: 0
Panose: 0 0 5 0 0 0 0 0 0 0
OS2TypoAscent: 700
OS2TypoAOffset: 0
OS2TypoDescent: -201
OS2TypoDOffset: 0
OS2TypoLinegap: 299
OS2WinAscent: 999
OS2WinAOffset: 0
OS2WinDescent: 201
OS2WinDOffset: 0
HheadAscent: 999
HheadAOffset: 0
HheadDescent: -201
HheadDOffset: 0
OS2SubXSize: 650
OS2SubYSize: 600
OS2SubXOff: 0
OS2SubYOff: 75
OS2SupXSize: 650
OS2SupYSize: 600
OS2SupXOff: 0
OS2SupYOff: 350
OS2StrikeYSize: 50
OS2StrikeYPos: 292
OS2CapHeight: 690
OS2XHeight: 487
OS2Vendor: 'UKWN'
OS2CodePages: 20000097.00000000
OS2UnicodeRanges: 00002eff.00000000.00000000.00000000
Lookup: 258 0 0 "'kern' Cr+AOkA-nage horizontal lookups0" { "'kern' Cr+AOkA-nage horizontal lookups0 per glyph data 0"  "'kern' Cr+AOkA-nage horizontal lookups0 classe de cr+AOkA-nage 1"  "'kern' Cr+AOkA-nage horizontal lookups0 classe de cr+AOkA-nage 2"  "'kern' Cr+AOkA-nage horizontal lookups0 classe de cr+AOkA-nage 3"  } ['kern' ('DFLT' <'dflt' > 'cyrl' <'dflt' > 'grek' <'dflt' > 'latn' <'dflt' > ) ]
MarkAttachClasses: 1
DEI: 91125
KernClass2: 45 58 "'kern' Cr+AOkA-nage horizontal lookups0 classe de cr+AOkA-nage 1"
 0 
 0 
 0 
 0 
 0 
 0 
 0 
 0 
 0 
 0 
 0 
 0 
 0 
 0 
 0 
 0 
 0 
 0 
 0 
 0 
 0 
 0 
 0 
 0 
 0 
 0 
 0 
 0 
 0 
 0 
 0 
 0 
 0 
 0 
 0 
 0 
 0 
 0 
 0 
 0 
 0 
 0 
 0 
 0 
 0 
 0 
 0 
 6 hyphen
 0 
 20 quotedbl quotesingle
 0 
 0 
 0 
 0 
 0 
 8 asterisk
 0 
 0 
 0 
 0 
 0 
 0 
 0 
 0 
 0 
 0 
 0 
 0 
 0 
 0 
 0 
 0 
 0 
 0 

StartChar: asterisk
Encoding: 42 42 3
Width: 604
VWidth: 0
GlyphClass: 2
Flags: W
LayerCount: 2
Fore
SplineSet
318.320618913 796.003690651 m 0,0,1
 352.477886538 797.598062046 352.477886538 797.598062046 352.988446674 760.196662901 c 0,2,3
 352.988446674 760.113151437 352.988446674 760.113151437 353.277373433 680.429427936 c 2,4,-1
 353.297174595 674.968423631 l 1,5,-1
 358.045144573 676.636473733 l 2,6,7
 423.003723645 697.591074149 423.003723645 697.591074149 433.608810806 701.028341398 c 0,8,9
 471.316854359 713.298502868 471.316854359 713.298502868 480.449262603 674.30607924 c 0,10,11
 487.989347828 642.131533758 487.989347828 642.131533758 456.135517701 631.770589675 c 0,12,13
 441.829516537 627.091823721 441.829516537 627.091823721 415.660383944 618.454708908 c 128,-1,14
 389.494398545 609.818644762 389.494398545 609.818644762 380.383065172 606.832286702 c 2,15,-1
 375.187139951 605.129252086 l 1,16,-1
 378.383556532 600.69293753 l 2,17,18
 417.326040832 546.644566302 417.326040832 546.644566302 425.030990207 536.042891643 c 0,19,20
 430.250672978 528.842688588 430.250672978 528.842688588 432.848811759 522.387162609 c 0,21,22
 444.074338585 494.495396169 444.074338585 494.495396169 403.45584615 478.723415523 c 0,23,24
 382.258577004 470.966892303 382.258577004 470.966892303 366.074467972 493.253018347 c 0,25,26
 357.69283251 505.282169571 357.69283251 505.282169571 342.937089035 527.314227279 c 128,-1,27
 328.182359052 549.356500036 328.182359052 549.356500036 322.694670469 557.569290668 c 2,28,-1
 319.747812265 561.979512843 l 1,29,-1
 316.800349346 557.569775419 l 2,30,31
 282.016604463 505.529364467 282.016604463 505.529364467 273.428096577 493.29908562 c 0,32,33
 251.841478894 465.26917365 251.841478894 465.26917365 223.195798801 486.090876984 c 128,-1,34
 194.539684978 506.92304816 194.539684978 506.92304816 214.55382966 536.090131505 c 0,35,36
 222.54146112 547.184064089 222.54146112 547.184064089 239.403388274 570.53765743 c 128,-1,37
 256.255239124 593.881806868 256.255239124 593.881806868 261.166210854 600.691531028 c 2,38,-1
 264.361320565 605.121981486 l 1,39,-1
 259.17302277 606.830543257 l 2,40,41
 195.081469163 627.936575082 195.081469163 627.936575082 183.430998199 631.761579103 c 0,42,43
 149.538879739 643.34736555 149.538879739 643.34736555 160.593692026 677.440955687 c 128,-1,44
 171.659407637 711.535608082 171.659407637 711.535608082 205.890445668 701.018398554 c 0,45,46
 217.447331576 697.251883107 217.447331576 697.251883107 243.169317339 689.033509351 c 128,-1,47
 268.875992616 680.820027414 268.875992616 680.820027414 281.439533462 676.640010625 c 2,48,-1
 286.199678885 674.951097079 l 1,49,-1
 286.217328504 680.43120324 l 2,50,51
 286.260122798 693.718587918 286.260122798 693.718587918 286.356421512 720.320071605 c 128,-1,52
 286.452717654 746.909037813 286.452717654 746.909037813 286.506130492 760.188242979 c 0,53,54
 286.968605284 794.514896713 286.968605284 794.514896713 318.320618913 796.003690651 c 0,0,1
EndSplineSet
Validated: 33
EndChar

StartChar: plus
Encoding: 43 43 4
Width: 684
VWidth: 37
GlyphClass: 2
Flags: W
LayerCount: 2
Fore
SplineSet
345.370117188 587.790039062 m 0,0,1
 386.506835938 587.790039062 386.506835938 587.790039062 386.506835938 545.858398438 c 2,2,-1
 386.506835938 390.946289062 l 1,3,-1
 386.506835938 386.946289062 l 1,4,-1
 390.375976562 386.946289062 l 1,5,-1
 542.178710938 386.946289062 l 2,6,7
 584.122070312 386.946289062 584.122070312 386.946289062 584.122070312 345.014648438 c 128,-1,8
 584.122070312 303.0703125 584.122070312 303.0703125 542.178710938 303.0703125 c 2,9,-1
 390.375976562 303.0703125 l 1,10,-1
 386.506835938 303.0703125 l 1,11,-1
 386.506835938 299.0703125 l 1,12,-1
 386.506835938 144.796875 l 2,13,14
 386.506835938 101.959960938 386.506835938 101.959960938 345.948242188 101.959960938 c 128,-1,15
 305.389648438 101.959960938 305.389648438 101.959960938 305.389648438 143.891601562 c 2,16,-1
 305.404296875 299.0703125 l 1,17,-1
 305.404296875 303.0703125 l 1,18,-1
 301.53515625 303.0703125 l 1,19,-1
 149.821289062 303.0703125 l 2,20,21
 107.877929688 303.0703125 107.877929688 303.0703125 107.877929688 345.014648438 c 128,-1,22
 107.877929688 386.946289062 107.877929688 386.946289062 149.821289062 386.946289062 c 2,23,-1
 301.53515625 386.946289062 l 1,24,-1
 305.404296875 386.946289062 l 1,25,-1
 305.404296875 390.946289062 l 1,26,-1
 305.404296875 545.154296875 l 2,27,28
 305.390625 587.217773438 305.390625 587.217773438 345.370117188 587.790039062 c 0,0,1
EndSplineSet
Validated: 33
EndChar

StartChar: hyphen
Encoding: 45 45 5
Width: 684
VWidth: 37
GlyphClass: 2
Flags: W
LayerCount: 2
Fore
SplineSet
148.563476562 390.049804688 m 2,0,-1
 540.747070312 390.049804688 l 2,1,2
 583.310546875 390.049804688 583.310546875 390.049804688 583.310546875 348.138671875 c 128,-1,3
 583.310546875 306.227539062 583.310546875 306.227539062 541.3984375 306.227539062 c 2,4,-1
 148.563476562 306.227539062 l 2,5,6
 106 306.227539062 106 306.227539062 106 348.138671875 c 128,-1,7
 106 390.049804688 106 390.049804688 148.563476562 390.049804688 c 2,0,-1
EndSplineSet
Validated: 1
EndChar

StartChar: less
Encoding: 60 60 6
Width: 537
GlyphClass: 2
Flags: W
LayerCount: 2
Fore
SplineSet
447.870117188 577.111328125 m 0,0,1
 464.206054688 576.625976562 464.206054688 576.625976562 475.767578125 564.715820312 c 128,-1,2
 487.329101562 552.8046875 487.329101562 552.8046875 487.329101562 536.461914062 c 0,3,4
 487.329101562 525.802734375 487.329101562 525.802734375 480.510742188 515.032226562 c 128,-1,5
 473.692382812 504.262695312 473.692382812 504.262695312 464.05859375 499.703125 c 2,6,-1
 157.967773438 349.500976562 l 1,7,-1
 464.05859375 199.298828125 l 2,8,9
 473.70703125 194.744140625 473.70703125 194.744140625 480.536132812 183.96875 c 128,-1,10
 487.365234375 173.193359375 487.365234375 173.193359375 487.365234375 162.5234375 c 0,11,12
 487.365234375 145.686523438 487.365234375 145.686523438 475.44921875 133.771484375 c 128,-1,13
 463.534179688 121.85546875 463.534179688 121.85546875 446.697265625 121.85546875 c 0,14,15
 436.93359375 121.85546875 436.93359375 121.85546875 428.232421875 126.2890625 c 2,16,-1
 47.74609375 312.995117188 l 2,17,18
 38.3291015625 317.618164062 38.3291015625 317.618164062 31.6650390625 328.314453125 c 128,-1,19
 25 339.010742188 25 339.010742188 25 349.500976562 c 128,-1,20
 25 359.991210938 25 359.991210938 31.6650390625 370.6875 c 128,-1,21
 38.3291015625 381.383789062 38.3291015625 381.383789062 47.74609375 386.006835938 c 2,22,-1
 428.232421875 572.712890625 l 2,23,24
 436.920898438 577.129882812 436.920898438 577.129882812 446.6640625 577.129882812 c 0,25,26
 447.237304688 577.129882812 447.237304688 577.129882812 447.870117188 577.111328125 c 0,0,1
EndSplineSet
EndChar

StartChar: greater
Encoding: 62 62 7
Width: 537
GlyphClass: 2
Flags: W
LayerCount: 2
Fore
SplineSet
64.4951171875 577.111328125 m 0,0,1
 65.1279296875 577.129882812 65.1279296875 577.129882812 65.701171875 577.129882812 c 0,2,3
 75.4443359375 577.129882812 75.4443359375 577.129882812 84.1328125 572.712890625 c 2,4,-1
 464.619140625 386.006835938 l 2,5,6
 474.036132812 381.383789062 474.036132812 381.383789062 480.700195312 370.6875 c 128,-1,7
 487.365234375 359.991210938 487.365234375 359.991210938 487.365234375 349.500976562 c 128,-1,8
 487.365234375 339.010742188 487.365234375 339.010742188 480.700195312 328.314453125 c 128,-1,9
 474.036132812 317.618164062 474.036132812 317.618164062 464.619140625 312.995117188 c 2,10,-1
 84.1328125 126.2890625 l 2,11,12
 75.431640625 121.85546875 75.431640625 121.85546875 65.66796875 121.85546875 c 0,13,14
 48.8310546875 121.85546875 48.8310546875 121.85546875 36.916015625 133.771484375 c 128,-1,15
 25 145.686523438 25 145.686523438 25 162.5234375 c 0,16,17
 25 173.193359375 25 173.193359375 31.8291015625 183.96875 c 128,-1,18
 38.658203125 194.744140625 38.658203125 194.744140625 48.306640625 199.298828125 c 2,19,-1
 354.397460938 349.500976562 l 1,20,-1
 48.306640625 499.703125 l 2,21,22
 38.6728515625 504.262695312 38.6728515625 504.262695312 31.8544921875 515.032226562 c 128,-1,23
 25.0361328125 525.802734375 25.0361328125 525.802734375 25.0361328125 536.461914062 c 0,24,25
 25.0361328125 552.8046875 25.0361328125 552.8046875 36.59765625 564.715820312 c 128,-1,26
 48.1591796875 576.625976562 48.1591796875 576.625976562 64.4951171875 577.111328125 c 0,0,1
EndSplineSet
Validated: 1
EndChar

StartChar: Amacron
Encoding: 256 256 8
Width: 1474
GlyphClass: 2
Flags: W
LayerCount: 2
Fore
SplineSet
1207 892 m 1,0,-1
 1394 705 l 1,1,-1
 592 -97 l 1,2,-1
 80 415 l 1,3,-1
 267 602 l 1,4,-1
 592 277 l 1,5,-1
 1207 892 l 1,0,-1
EndSplineSet
Validated: 1
EndChar

StartChar: amacron
Encoding: 257 257 9
Width: 1155
GlyphClass: 2
Flags: W
LayerCount: 2
Fore
SplineSet
252 898 m 1,0,-1
 578 572 l 1,1,-1
 903 898 l 1,2,-1
 1075 726 l 1,3,-1
 750 400 l 1,4,-1
 1075 74 l 1,5,-1
 903 -98 l 1,6,-1
 578 228 l 1,7,-1
 252 -98 l 1,8,-1
 80 74 l 1,9,-1
 406 400 l 1,10,-1
 80 726 l 1,11,-1
 252 898 l 1,0,-1
EndSplineSet
Validated: 1
EndChar

StartChar: Abreve
Encoding: 258 258 10
Width: 1468
GlyphClass: 2
Flags: W
LayerCount: 2
Fore
SplineSet
1188.5 899 m 4,0,1
 1199.5 900 1199.5 900 1207.5 892 c 6,2,-1
 1378.5 721 l 6,3,4
 1397.5 702 1397.5 702 1378.5 683 c 6,5,-1
 615.5 -80 l 6,6,7
 596.5 -99 596.5 -99 577.5 -80 c 6,8,-1
 89.5 408 l 6,9,10
 70.5 427 70.5 427 89.5 446 c 6,11,-1
 259.5 617 l 6,12,13
 278.5 636 278.5 636 297.5 617 c 6,14,-1
 596.5 318 l 5,15,-1
 1169.5 892 l 6,16,17
 1177.5 899 1177.5 899 1188.5 899 c 4,0,1
EndSplineSet
Validated: 33
EndChar

StartChar: abreve
Encoding: 259 259 11
Width: 1164
GlyphClass: 2
Flags: W
LayerCount: 2
Fore
SplineSet
878.5 904 m 260,0,1
 889.5 904 889.5 904 897.5 896 c 6,2,-1
 1069.5 724 l 6,3,4
 1088.5 705 1088.5 705 1069.5 686 c 6,5,-1
 790.5 407 l 5,6,-1
 1074.5 123 l 6,7,8
 1094.5 104 1094.5 104 1074.5 84 c 6,9,-1
 903.5 -87 l 6,10,11
 884.5 -106 884.5 -106 865.5 -87 c 6,12,-1
 580.5 198 l 5,13,-1
 298.5 -84 l 6,14,15
 279.5 -103 279.5 -103 260.5 -84 c 6,16,-1
 89.5 87 l 6,17,18
 70.5 106 70.5 106 89.5 125 c 6,19,-1
 371.5 407 l 5,20,-1
 95.5 683 l 6,21,22
 76.5 702 76.5 702 95.5 721 c 6,23,-1
 266.5 892 l 6,24,25
 286.5 912 286.5 912 305.5 892 c 6,26,-1
 580.5 617 l 5,27,-1
 859.5 896 l 6,28,29
 867.5 904 867.5 904 878.5 904 c 260,0,1
EndSplineSet
Validated: 33
EndChar

StartChar: aogonek
Encoding: 261 261 12
Width: 1156
GlyphClass: 2
Flags: W
LayerCount: 2
Fore
SplineSet
306 900 m 0,0,1
 318 900 318 900 326 892 c 2,2,-1
 578 640 l 1,3,-1
 830 892 l 2,4,5
 849 912 849 912 869 892 c 2,6,-1
 1066 695 l 2,7,8
 1086 675 1086 675 1066 656 c 2,9,-1
 814 404 l 1,10,-1
 1066 152 l 2,11,12
 1086 133 1086 133 1066 113 c 2,13,-1
 869 -84 l 2,14,15
 849 -104 849 -104 830 -84 c 2,16,-1
 578 168 l 1,17,-1
 326 -84 l 2,18,19
 307 -104 307 -104 287 -84 c 2,20,-1
 90 113 l 2,21,22
 70 133 70 133 90 152 c 2,23,-1
 342 404 l 1,24,-1
 90 656 l 2,25,26
 70 675 70 675 90 695 c 2,27,-1
 287 892 l 2,28,29
 295 900 295 900 306 900 c 0,0,1
EndSplineSet
Validated: 33
EndChar

StartChar: Cacute
Encoding: 262 262 13
Width: 1511
GlyphClass: 2
Flags: W
LayerCount: 2
Fore
SplineSet
1257 904 m 0,0,1
 1259 904 1259 904 1262 904 c 0,2,3
 1332 904 1332 904 1381.5 854 c 128,-1,4
 1431 804 1431 804 1431 734 c 0,5,6
 1431 662 1431 662 1380 612 c 2,7,-1
 723 -45 l 2,8,9
 673 -95 673 -95 602.5 -95 c 128,-1,10
 532 -95 532 -95 482 -45 c 2,11,-1
 133 305 l 2,12,13
 80 355 80 355 80 427 c 0,14,15
 80 497 80 497 130 547 c 128,-1,16
 180 597 180 597 250 597 c 0,17,18
 323 597 323 597 373 545 c 2,19,-1
 602 315 l 1,20,-1
 1140 852 l 2,21,22
 1188 902 1188 902 1257 904 c 0,0,1
EndSplineSet
Validated: 1
EndChar

StartChar: cacute
Encoding: 263 263 14
Width: 1149
GlyphClass: 2
Flags: W
LayerCount: 2
Fore
SplineSet
247 897 m 1,0,-1
 247 897 l 1,1,2
 318 897 318 897 367 846 c 2,3,-1
 575 639 l 1,4,-1
 782 846 l 2,5,6
 830 895 830 895 897 897 c 0,7,8
 900 897 900 897 902 897 c 0,9,10
 971 897 971 897 1020 848 c 128,-1,11
 1069 799 1069 799 1069 730 c 0,12,13
 1069 659 1069 659 1019 610 c 2,14,-1
 811 402 l 1,15,-1
 1019 194 l 2,16,17
 1069 145 1069 145 1069 75 c 0,18,19
 1069 6 1069 6 1020 -43 c 128,-1,20
 971 -92 971 -92 902 -92 c 0,21,22
 832 -92 832 -92 782 -42 c 2,23,-1
 575 166 l 1,24,-1
 367 -42 l 2,25,26
 318 -92 318 -92 247 -92 c 0,27,28
 178 -92 178 -92 129 -43 c 128,-1,29
 80 6 80 6 80 75 c 0,30,31
 80 145 80 145 131 194 c 2,32,-1
 338 402 l 1,33,-1
 131 610 l 2,34,35
 80 659 80 659 80 730 c 0,36,37
 80 799 80 799 129 848 c 128,-1,38
 178 897 178 897 247 897 c 1,0,-1
EndSplineSet
Validated: 1
EndChar

StartChar: Ccircumflex
Encoding: 264 264 15
Width: 1168
GlyphClass: 2
Flags: W
LayerCount: 2
Fore
SplineSet
375.426757812 -87 m 0,0,1
 332.426757812 -73 332.426757812 -73 297.926757812 -37.5 c 128,-1,2
 263.426757812 -2 263.426757812 -2 216.426757812 78 c 0,3,4
 55.4267578125 352 55.4267578125 352 84.4267578125 412 c 0,5,6
 105.426757812 457 105.426757812 457 177.426757812 423 c 0,7,8
 229.426757812 399 229.426757812 399 298.426757812 309 c 0,9,10
 359.426757812 231 359.426757812 231 400.426757812 211 c 0,11,12
 425.426757812 199 425.426757812 199 450.926757812 199 c 128,-1,13
 476.426757812 199 476.426757812 199 500.426757812 211 c 0,14,15
 561.426757812 240 561.426757812 240 640.926757812 334.5 c 128,-1,16
 720.426757812 429 720.426757812 429 873.426757812 655 c 0,17,18
 1007.42675781 852 1007.42675781 852 1052.42675781 887 c 0,19,20
 1082.42675781 911 1082.42675781 911 1087.42675781 891 c 0,21,22
 1096.42675781 857 1096.42675781 857 1043.42675781 735 c 0,23,24
 978.426757812 586 978.426757812 586 851.426757812 377 c 0,25,26
 733.426757812 184 733.426757812 184 643.426757812 74 c 128,-1,27
 553.426757812 -36 553.426757812 -36 483.426757812 -71 c 0,28,29
 422.426757812 -102 422.426757812 -102 375.426757812 -87 c 0,0,1
EndSplineSet
Validated: 33
EndChar

StartChar: ccircumflex
Encoding: 265 265 16
Width: 1101
GlyphClass: 2
Flags: W
LayerCount: 2
Fore
SplineSet
945.727539062 -123 m 0,0,1
 891.727539062 -103 891.727539062 -103 800.727539062 -16 c 0,2,3
 769.727539062 13 769.727539062 13 678.727539062 102 c 0,4,5
 556.727539062 221 556.727539062 221 544.727539062 224 c 0,6,7
 537.727539062 225 537.727539062 225 506.727539062 195 c 0,8,9
 405.727539062 97 405.727539062 97 267.727539062 -27 c 0,10,11
 195.727539062 -91 195.727539062 -91 155.727539062 -91 c 0,12,13
 118.727539062 -91 118.727539062 -91 94.7275390625 -45 c 0,14,15
 76.7275390625 -9 76.7275390625 -9 80.7275390625 34 c 0,16,17
 85.7275390625 91 85.7275390625 91 129.727539062 160 c 0,18,19
 177.727539062 234 177.727539062 234 309.727539062 367 c 2,20,-1
 392.727539062 451 l 1,21,-1
 333.727539062 527 l 2,22,23
 168.727539062 739 168.727539062 739 130.727539062 817 c 0,24,25
 89.7275390625 902 89.7275390625 902 137.727539062 902 c 0,26,27
 204.727539062 902 204.727539062 902 475.727539062 665 c 0,28,29
 538.727539062 611 538.727539062 611 545.227539062 606.5 c 128,-1,30
 551.727539062 602 551.727539062 602 587.727539062 637 c 0,31,32
 712.727539062 755 712.727539062 755 765.727539062 788 c 0,33,34
 800.727539062 810 800.727539062 810 822.727539062 810 c 0,35,36
 858.727539062 810 858.727539062 810 861.727539062 763 c 0,37,38
 865.727539062 694 865.727539062 694 761.727539062 510 c 0,39,40
 720.727539062 438 720.727539062 438 722.727539062 426 c 0,41,42
 724.727539062 418 724.727539062 418 754.727539062 384 c 0,43,44
 900.727539062 220 900.727539062 220 977.727539062 65 c 0,45,46
 1051.72753906 -83 1051.72753906 -83 999.727539062 -121 c 0,47,48
 979.727539062 -135 979.727539062 -135 945.727539062 -123 c 0,0,1
EndSplineSet
Validated: 33
EndChar

StartChar: Cdotaccent
Encoding: 266 266 17
Width: 1578
GlyphClass: 2
Flags: W
LayerCount: 2
Fore
SplineSet
1359 896 m 0,0,1
 1361 896 1361 896 1363 896 c 0,2,3
 1419 896 1419 896 1458.5 856.5 c 128,-1,4
 1498 817 1498 817 1498 762 c 0,5,6
 1498 738 1498 738 1486 710 c 128,-1,7
 1474 682 1474 682 1457 665 c 2,8,-1
 736 -56 l 2,9,10
 720 -72 720 -72 692 -83.5 c 128,-1,11
 664 -95 664 -95 641 -95 c 128,-1,12
 618 -95 618 -95 590 -83.5 c 128,-1,13
 562 -72 562 -72 546 -56 c 2,14,-1
 121 370 l 2,15,16
 104 386 104 386 92 414.5 c 128,-1,17
 80 443 80 443 80 466 c 0,18,19
 80 522 80 522 119.5 561.5 c 128,-1,20
 159 601 159 601 214 601 c 0,21,22
 238 601 238 601 266 589 c 128,-1,23
 294 577 294 577 311 560 c 2,24,-1
 641 230 l 1,25,-1
 1267 855 l 2,26,27
 1282 871 1282 871 1309.5 883 c 128,-1,28
 1337 895 1337 895 1359 896 c 0,0,1
EndSplineSet
Validated: 1
EndChar

StartChar: cdotaccent
Encoding: 267 267 18
Width: 1153
GlyphClass: 2
Flags: W
LayerCount: 2
Fore
SplineSet
215 896 m 0,0,1
 238 896 238 896 266.5 884 c 128,-1,2
 295 872 295 872 311 855 c 2,3,-1
 577 590 l 1,4,-1
 842 855 l 2,5,6
 858 871 858 871 885 883 c 128,-1,7
 912 895 912 895 934 896 c 0,8,9
 936 896 936 896 938 896 c 0,10,11
 994 896 994 896 1033.5 856.5 c 128,-1,12
 1073 817 1073 817 1073 762 c 0,13,14
 1073 738 1073 738 1061 710 c 128,-1,15
 1049 682 1049 682 1032 665 c 2,16,-1
 767 400 l 1,17,-1
 1032 135 l 2,18,19
 1049 118 1049 118 1061 90 c 128,-1,20
 1073 62 1073 62 1073 38 c 0,21,22
 1073 -17 1073 -17 1033.5 -56.5 c 128,-1,23
 994 -96 994 -96 938 -96 c 0,24,25
 915 -96 915 -96 886.5 -84 c 128,-1,26
 858 -72 858 -72 842 -56 c 2,27,-1
 577 210 l 1,28,-1
 311 -56 l 2,29,30
 295 -72 295 -72 266.5 -84 c 128,-1,31
 238 -96 238 -96 215 -96 c 0,32,33
 159 -96 159 -96 119.5 -56.5 c 128,-1,34
 80 -17 80 -17 80 38 c 0,35,36
 80 62 80 62 92 90 c 128,-1,37
 104 118 104 118 121 135 c 2,38,-1
 386 400 l 1,39,-1
 121 665 l 2,40,41
 104 682 104 682 92 710 c 128,-1,42
 80 738 80 738 80 762 c 0,43,44
 80 817 80 817 119.5 856.5 c 128,-1,45
 159 896 159 896 215 896 c 0,0,1
EndSplineSet
Validated: 1
EndChar

StartChar: Tcaron
Encoding: 356 356 19
Width: 1160
VWidth: 100
GlyphClass: 2
Flags: W
LayerCount: 2
Fore
SplineSet
579.995117188 321.500976562 m 128,-1,1
 547.499023438 321.500976562 547.499023438 321.500976562 524.5 344.5 c 128,-1,2
 501.501953125 367.498046875 501.501953125 367.498046875 501.501953125 399.994140625 c 128,-1,3
 501.501953125 432.489257812 501.501953125 432.489257812 524.500976562 455.48828125 c 128,-1,4
 547.499023438 478.486328125 547.499023438 478.486328125 579.995117188 478.486328125 c 128,-1,5
 612.491210938 478.486328125 612.491210938 478.486328125 635.489257812 455.48828125 c 128,-1,6
 658.48828125 432.489257812 658.48828125 432.489257812 658.48828125 399.994140625 c 128,-1,7
 658.48828125 367.498046875 658.48828125 367.498046875 635.490234375 344.5 c 128,-1,0
 612.491210938 321.500976562 612.491210938 321.500976562 579.995117188 321.500976562 c 128,-1,1
744.436523438 165.909179688 m 1,8,-1
 744.563476562 166.043945312 l 1,9,10
 731.092773438 179.514648438 731.092773438 179.514648438 729.588867188 198.506835938 c 128,-1,11
 728.084960938 217.499023438 728.084960938 217.499023438 739.265625 232.922851562 c 0,12,13
 793.751953125 307.568359375 793.751953125 307.568359375 793.751953125 399.9921875 c 128,-1,14
 793.751953125 492.581054688 793.751953125 492.581054688 739.123046875 566.958007812 c 0,15,16
 727.8984375 582.4375 727.8984375 582.4375 729.407226562 601.495117188 c 128,-1,17
 730.915039062 620.552734375 730.915039062 620.552734375 744.432617188 634.072265625 c 1,18,-1
 744.567382812 633.948242188 l 1,19,20
 761.513671875 650.89453125 761.513671875 650.89453125 785.400390625 648.979492188 c 128,-1,21
 809.2890625 647.065429688 809.2890625 647.065429688 823.323242188 627.639648438 c 0,22,23
 897.357421875 525.862304688 897.357421875 525.862304688 897.357421875 399.9921875 c 128,-1,24
 897.357421875 274.297851562 897.357421875 274.297851562 823.473632812 172.232421875 c 0,25,26
 809.39453125 152.735351562 809.39453125 152.735351562 785.416015625 150.819335938 c 128,-1,27
 761.440429688 148.8984375 761.440429688 148.8984375 744.436523438 165.909179688 c 1,8,-1
874.788085938 35.5400390625 m 0,28,29
 860.850585938 49.732421875 860.850585938 49.732421875 859.888671875 69.5888671875 c 128,-1,30
 858.926757812 89.4462890625 858.926757812 89.4462890625 871.563476562 104.796875 c 0,31,32
 976.827148438 233.603515625 976.827148438 233.603515625 976.827148438 399.966796875 c 128,-1,33
 976.827148438 566.484375 976.827148438 566.484375 871.426757812 695.022460938 c 0,34,35
 858.750976562 710.428710938 858.750976562 710.428710938 859.71484375 730.353515625 c 128,-1,36
 860.6796875 750.279296875 860.6796875 750.279296875 874.782226562 764.38671875 c 0,37,38
 891.086914062 780.44140625 891.086914062 780.44140625 913.93359375 779.33984375 c 128,-1,39
 936.7734375 778.240234375 936.7734375 778.240234375 951.318359375 760.58203125 c 0,40,41
 1013.59179688 684.446289062 1013.59179688 684.446289062 1046.79589844 591.609375 c 128,-1,42
 1080 498.772460938 1080 498.772460938 1080 399.966796875 c 128,-1,43
 1080 301.194335938 1080 301.194335938 1046.82421875 208.338867188 c 128,-1,44
 1013.6484375 115.483398438 1013.6484375 115.483398438 951.4609375 39.2314453125 c 0,45,46
 936.861328125 21.5166015625 936.861328125 21.5166015625 913.939453125 20.416015625 c 128,-1,47
 891.020507812 19.3076171875 891.020507812 19.3076171875 874.788085938 35.5400390625 c 0,28,29
415.541992188 634.090820312 m 1,48,-1
 415.4140625 633.955078125 l 1,49,50
 428.884765625 620.484375 428.884765625 620.484375 430.388671875 601.493164062 c 128,-1,51
 431.893554688 582.500976562 431.893554688 582.500976562 420.711914062 567.077148438 c 0,52,53
 366.225585938 492.431640625 366.225585938 492.431640625 366.225585938 400.006835938 c 128,-1,54
 366.225585938 307.418945312 366.225585938 307.418945312 420.85546875 233.041992188 c 0,55,56
 432.079101562 217.561523438 432.079101562 217.561523438 430.571289062 198.504882812 c 128,-1,57
 429.063476562 179.448242188 429.063476562 179.448242188 415.545898438 165.927734375 c 1,58,-1
 415.41015625 166.051757812 l 1,59,60
 398.462890625 149.104492188 398.462890625 149.104492188 374.577148438 151.020507812 c 128,-1,61
 350.6875 152.935546875 350.6875 152.935546875 336.655273438 172.359375 c 0,62,63
 262.62109375 274.13671875 262.62109375 274.13671875 262.62109375 400.006835938 c 128,-1,64
 262.62109375 525.700195312 262.62109375 525.700195312 336.50390625 627.766601562 c 0,65,66
 350.583007812 647.264648438 350.583007812 647.264648438 374.561523438 649.1796875 c 128,-1,67
 398.53515625 651.102539062 398.53515625 651.102539062 415.541992188 634.090820312 c 1,48,-1
285.211914062 764.459960938 m 0,68,69
 299.149414062 750.267578125 299.149414062 750.267578125 300.111328125 730.411132812 c 128,-1,70
 301.073242188 710.5546875 301.073242188 710.5546875 288.436523438 695.203125 c 0,71,72
 183.172851562 566.396484375 183.172851562 566.396484375 183.172851562 400.034179688 c 128,-1,73
 183.172851562 233.514648438 183.172851562 233.514648438 288.573242188 104.978515625 c 0,74,75
 301.249023438 89.572265625 301.249023438 89.572265625 300.28515625 69.646484375 c 128,-1,76
 299.3203125 49.720703125 299.3203125 49.720703125 285.217773438 35.61328125 c 0,77,78
 268.915039062 19.560546875 268.915039062 19.560546875 246.06640625 20.66015625 c 128,-1,79
 223.225585938 21.7607421875 223.225585938 21.7607421875 208.681640625 39.41796875 c 0,80,81
 146.408203125 115.553710938 146.408203125 115.553710938 113.204101562 208.390625 c 128,-1,82
 80 301.227539062 80 301.227539062 80 400.034179688 c 128,-1,83
 80 498.806640625 80 498.806640625 113.17578125 591.661132812 c 128,-1,84
 146.3515625 684.516601562 146.3515625 684.516601562 208.5390625 760.768554688 c 0,85,86
 223.140625 778.483398438 223.140625 778.483398438 246.061523438 779.583984375 c 128,-1,87
 268.979492188 780.692382812 268.979492188 780.692382812 285.211914062 764.459960938 c 0,68,69
EndSplineSet
Validated: 33
EndChar

StartChar: uni01D4
Encoding: 468 468 20
Width: 1294
Flags: W
LayerCount: 2
Fore
SplineSet
645.5 896 m 0,0,1
 664.5 897 664.5 897 673.5 881 c 2,2,-1
 1209.5 -48 l 2,3,4
 1218.5 -63 1218.5 -63 1209.5 -78.5 c 128,-1,5
 1200.5 -94 1200.5 -94 1183.5 -94 c 2,6,-1
 110.5 -94 l 2,7,8
 93.5 -94 93.5 -94 84.5 -78.5 c 128,-1,9
 75.5 -63 75.5 -63 84.5 -48 c 2,10,-1
 620.5 881 l 2,11,12
 628.5 895 628.5 895 645.5 896 c 0,0,1
623.5 589 m 2,13,14
 608.5 589 608.5 589 598.5 579 c 0,15,16
 588.5 568 588.5 568 588.5 554 c 2,17,-1
 588.5 254 l 2,18,19
 588.5 239 588.5 239 598.5 229 c 256,20,21
 608.5 219 608.5 219 623.5 219 c 2,22,-1
 670.5 219 l 2,23,24
 685.5 219 685.5 219 695.5 229 c 256,25,26
 705.5 239 705.5 239 705.5 254 c 2,27,-1
 705.5 554 l 2,28,29
 705.5 568 705.5 568 695.5 579 c 0,30,31
 685.5 589 685.5 589 670.5 589 c 2,32,-1
 623.5 589 l 2,13,14
623.5 130 m 2,33,34
 608.5 130 608.5 130 598.5 120 c 256,35,36
 588.5 110 588.5 110 588.5 96 c 2,37,-1
 588.5 48 l 2,38,39
 588.5 33 588.5 33 598.5 23 c 256,40,41
 608.5 13 608.5 13 623.5 13 c 2,42,-1
 670.5 13 l 2,43,44
 685.5 13 685.5 13 695.5 23 c 256,45,46
 705.5 33 705.5 33 705.5 48 c 2,47,-1
 705.5 96 l 2,48,49
 705.5 109 705.5 109 695.5 120 c 0,50,51
 686.5 130 686.5 130 670.5 130 c 2,52,-1
 623.5 130 l 2,33,34
EndSplineSet
Validated: 33
EndChar

StartChar: uni01D5
Encoding: 469 469 21
Width: 363
Flags: W
LayerCount: 2
Fore
SplineSet
140 897 m 6,0,1
 222 897 l 6,2,3
 248 897 248 897 265 880 c 4,4,5
 283 860 283 860 283 837 c 6,6,-1
 283 318 l 6,7,8
 283 294 283 294 265 276 c 260,9,10
 247 258 247 258 222 258 c 6,11,-1
 140 258 l 6,12,13
 115 258 115 258 97 276 c 4,14,15
 80 294 80 294 80 318 c 6,16,-1
 80 837 l 6,17,18
 80 862 80 862 97 880 c 4,19,20
 114 897 114 897 140 897 c 6,0,1
140 106 m 6,21,-1
 222 106 l 6,22,23
 246 106 246 106 265 88 c 4,24,25
 283 72 283 72 283 45 c 6,26,-1
 283 -37 l 6,27,28
 283 -61 283 -61 265 -80 c 4,29,30
 248 -98 248 -98 222 -98 c 6,31,-1
 140 -98 l 6,32,33
 115 -98 115 -98 97 -80 c 4,34,35
 80 -63 80 -63 80 -37 c 6,36,-1
 80 45 l 6,37,38
 80 71 80 71 97 88 c 4,39,40
 115 106 115 106 140 106 c 6,21,-1
EndSplineSet
Validated: 1
EndChar

StartChar: uni0222
Encoding: 546 546 22
Width: 1157
Flags: W
LayerCount: 2
Fore
SplineSet
507.379882812 898.560546875 m 5,0,-1
 507.379882812 898.560546875 l 5,1,-1
 650.180664062 898.560546875 l 6,2,3
 658.33984375 898.560546875 658.33984375 898.560546875 664.970703125 892.440429688 c 132,-1,4
 671.600585938 886.3203125 671.600585938 886.3203125 671.600585938 877.140625 c 6,5,-1
 671.600585938 787.379882812 l 5,6,7
 733.8203125 772.080078125 733.8203125 772.080078125 786.860351562 739.440429688 c 5,8,-1
 850.100585938 802.680664062 l 6,9,10
 866.419921875 817.98046875 866.419921875 817.98046875 881.720703125 802.680664062 c 6,11,-1
 981.680664062 701.700195312 l 6,12,13
 996.98046875 686.400390625 996.98046875 686.400390625 981.680664062 671.100585938 c 6,14,-1
 918.440429688 607.860351562 l 5,15,16
 952.100585938 553.799804688 952.100585938 553.799804688 966.379882812 492.600585938 c 5,17,-1
 1056.140625 492.600585938 l 6,18,19
 1065.3203125 492.600585938 1065.3203125 492.600585938 1071.44042969 485.970703125 c 132,-1,20
 1077.56054688 479.33984375 1077.56054688 479.33984375 1077.56054688 470.16015625 c 6,21,-1
 1077.56054688 328.379882812 l 6,22,23
 1077.56054688 319.200195312 1077.56054688 319.200195312 1071.44042969 313.080078125 c 132,-1,24
 1065.3203125 306.959960938 1065.3203125 306.959960938 1056.140625 306.959960938 c 6,25,-1
 966.379882812 306.959960938 l 5,26,27
 952.100585938 244.740234375 952.100585938 244.740234375 918.440429688 190.680664062 c 5,28,-1
 981.680664062 127.440429688 l 6,29,30
 996.98046875 112.140625 996.98046875 112.140625 981.680664062 96.83984375 c 6,31,-1
 880.700195312 -3.1201171875 l 6,32,33
 865.400390625 -19.439453125 865.400390625 -19.439453125 850.100585938 -3.1201171875 c 6,34,-1
 787.879882812 59.1005859375 l 5,35,36
 733.8203125 26.4599609375 733.8203125 26.4599609375 671.600585938 11.16015625 c 5,37,-1
 671.600585938 -77.580078125 l 6,38,39
 671.600585938 -86.759765625 671.600585938 -86.759765625 664.970703125 -92.8798828125 c 132,-1,40
 658.33984375 -99 658.33984375 -99 650.180664062 -99 c 6,41,-1
 507.379882812 -99 l 6,42,43
 498.200195312 -99 498.200195312 -99 492.080078125 -92.8798828125 c 132,-1,44
 485.959960938 -86.759765625 485.959960938 -86.759765625 485.959960938 -77.580078125 c 6,45,-1
 485.959960938 11.16015625 l 5,46,47
 423.740234375 26.4599609375 423.740234375 26.4599609375 369.680664062 59.1005859375 c 5,48,-1
 307.459960938 -3.1201171875 l 6,49,50
 292.16015625 -19.439453125 292.16015625 -19.439453125 275.83984375 -3.1201171875 c 6,51,-1
 175.879882812 96.83984375 l 6,52,53
 160.580078125 112.140625 160.580078125 112.140625 175.879882812 127.440429688 c 6,54,-1
 239.120117188 190.680664062 l 5,55,56
 205.459960938 244.740234375 205.459960938 244.740234375 191.180664062 306.959960938 c 5,57,-1
 101.419921875 306.959960938 l 6,58,59
 92.240234375 306.959960938 92.240234375 306.959960938 86.1201171875 313.080078125 c 132,-1,60
 80 319.200195312 80 319.200195312 80 328.379882812 c 6,61,-1
 80 470.16015625 l 6,62,63
 80 479.33984375 80 479.33984375 86.1201171875 485.970703125 c 132,-1,64
 92.240234375 492.600585938 92.240234375 492.600585938 101.419921875 492.600585938 c 6,65,-1
 191.180664062 492.600585938 l 5,66,67
 205.459960938 553.799804688 205.459960938 553.799804688 239.120117188 607.860351562 c 5,68,-1
 175.879882812 671.100585938 l 6,69,70
 159.560546875 686.400390625 159.560546875 686.400390625 175.879882812 701.700195312 c 6,71,-1
 275.83984375 802.680664062 l 6,72,73
 291.140625 817.98046875 291.140625 817.98046875 306.440429688 802.680664062 c 6,74,-1
 369.680664062 739.440429688 l 5,75,76
 423.740234375 772.080078125 423.740234375 772.080078125 485.959960938 787.379882812 c 5,77,-1
 485.959960938 877.140625 l 6,78,79
 485.959960938 886.3203125 485.959960938 886.3203125 492.080078125 892.440429688 c 132,-1,80
 498.200195312 898.560546875 498.200195312 898.560546875 507.379882812 898.560546875 c 5,0,-1
578.780273438 632.33984375 m 132,-1,82
 481.879882812 632.33984375 481.879882812 632.33984375 414.049804688 564.510742188 c 132,-1,83
 346.220703125 496.680664062 346.220703125 496.680664062 346.220703125 399.780273438 c 132,-1,84
 346.220703125 302.879882812 346.220703125 302.879882812 414.049804688 235.049804688 c 132,-1,85
 481.879882812 167.220703125 481.879882812 167.220703125 578.780273438 167.220703125 c 132,-1,86
 675.680664062 167.220703125 675.680664062 167.220703125 743.510742188 235.049804688 c 132,-1,87
 811.33984375 302.879882812 811.33984375 302.879882812 811.33984375 399.780273438 c 132,-1,88
 811.33984375 496.680664062 811.33984375 496.680664062 743.510742188 564.510742188 c 132,-1,81
 675.680664062 632.33984375 675.680664062 632.33984375 578.780273438 632.33984375 c 132,-1,82
EndSplineSet
Validated: 37
EndChar

StartChar: uni0223
Encoding: 547 547 23
Width: 1358
Flags: W
LayerCount: 2
Fore
SplineSet
835 899 m 2,0,-1
 945 899 l 2,1,2
 962 899 962 899 962 882 c 2,3,-1
 962 812 l 1,4,5
 1010 801 1010 801 1052 775 c 1,6,-1
 1101 824 l 2,7,8
 1113 836 1113 836 1125 824 c 2,9,-1
 1204 746 l 2,10,11
 1216 734 1216 734 1204 722 c 2,12,-1
 1154 673 l 1,13,14
 1180 631 1180 631 1192 583 c 1,15,-1
 1261 583 l 2,16,17
 1278 583 1278 583 1278 566 c 2,18,-1
 1278 455 l 2,19,20
 1278 438 1278 438 1261 438 c 2,21,-1
 1192 438 l 1,22,23
 1180 390 1180 390 1154 348 c 1,24,-1
 1203 299 l 2,25,26
 1215 287 1215 287 1203 275 c 2,27,-1
 1125 197 l 2,28,29
 1113 185 1113 185 1101 197 c 2,30,-1
 1052 246 l 1,31,32
 1010 220 1010 220 962 209 c 1,33,-1
 962 140 l 2,34,35
 962 123 962 123 945 123 c 2,36,-1
 835 123 l 2,37,38
 818 123 818 123 818 140 c 2,39,-1
 818 209 l 1,40,41
 769 220 769 220 728 246 c 1,42,-1
 679 197 l 2,43,44
 667 185 667 185 655 197 c 2,45,-1
 577 275 l 2,46,47
 564 287 564 287 577 299 c 2,48,-1
 625 348 l 1,49,50
 600 390 600 390 588 438 c 1,51,-1
 519 438 l 2,52,53
 502 438 502 438 502 455 c 2,54,-1
 502 566 l 2,55,56
 502 583 502 583 519 583 c 2,57,-1
 588 583 l 1,58,59
 600 631 600 631 625 673 c 1,60,-1
 576 722 l 2,61,62
 564 734 564 734 576 746 c 2,63,-1
 654 824 l 2,64,65
 666 836 666 836 678 824 c 2,66,-1
 728 775 l 1,67,68
 769 801 769 801 818 812 c 1,69,-1
 818 882 l 2,70,71
 818 899 818 899 835 899 c 2,0,-1
890 692 m 128,-1,73
 815 692 815 692 762 639 c 128,-1,74
 709 586 709 586 709 511 c 128,-1,75
 709 436 709 436 762 383 c 128,-1,76
 815 330 815 330 890 330 c 128,-1,77
 965 330 965 330 1018 383 c 128,-1,78
 1071 436 1071 436 1071 511 c 128,-1,79
 1071 586 1071 586 1018 639 c 128,-1,72
 965 692 965 692 890 692 c 128,-1,73
314 445 m 2,80,-1
 391 443 l 2,81,82
 403 443 403 443 402 432 c 2,83,-1
 402 383 l 1,84,85
 435 375 435 375 464 357 c 1,86,-1
 498 390 l 2,87,88
 506 398 506 398 515 390 c 2,89,-1
 568 335 l 2,90,91
 576 327 576 327 568 319 c 2,92,-1
 533 285 l 1,93,94
 551 256 551 256 558 223 c 1,95,-1
 606 222 l 2,96,97
 618 222 618 222 617 210 c 2,98,-1
 616 134 l 2,99,100
 616 122 616 122 604 122 c 2,101,-1
 556 123 l 1,102,103
 548 90 548 90 530 61 c 1,104,-1
 563 27 l 2,105,106
 571 18 571 18 563 10 c 2,107,-1
 508 -43 l 2,108,109
 500 -51 500 -51 491 -43 c 2,110,-1
 458 -9 l 1,111,112
 429 -26 429 -26 396 -34 c 1,113,-1
 395 -81 l 2,114,115
 395 -93 395 -93 383 -93 c 2,116,-1
 307 -92 l 2,117,118
 295 -92 295 -92 295 -80 c 2,119,-1
 296 -32 l 1,120,121
 263 -24 263 -24 234 -5 c 1,122,-1
 199 -39 l 2,123,124
 191 -47 191 -47 183 -39 c 2,125,-1
 130 16 l 2,126,127
 121 25 121 25 130 33 c 2,128,-1
 164 66 l 1,129,130
 147 96 147 96 139 129 c 1,131,-1
 91 129 l 2,132,133
 80 130 80 130 80 141 c 2,134,-1
 81 218 l 2,135,136
 81 230 81 230 93 229 c 2,137,-1
 141 229 l 1,138,139
 149 262 149 262 168 291 c 1,140,-1
 134 325 l 2,141,142
 126 333 126 333 134 342 c 2,143,-1
 189 395 l 2,144,145
 197 403 197 403 206 395 c 2,146,-1
 239 360 l 1,147,148
 269 378 269 378 302 385 c 1,149,-1
 303 433 l 2,150,151
 303 445 303 445 314 445 c 2,80,-1
350.5 301 m 128,-1,153
 299 302 299 302 261.5 265.5 c 128,-1,154
 224 229 224 229 223.5 177.5 c 128,-1,155
 223 126 223 126 259 88.5 c 128,-1,156
 295 51 295 51 346.5 50.5 c 128,-1,157
 398 50 398 50 435.5 86 c 128,-1,158
 473 122 473 122 473.5 174 c 128,-1,159
 474 226 474 226 438 263 c 128,-1,152
 402 300 402 300 350.5 301 c 128,-1,153
EndSplineSet
Validated: 33
EndChar

StartChar: uni0249
Encoding: 585 585 24
Width: 1468
Flags: W
LayerCount: 2
Fore
SplineSet
1188.5 899 m 4,0,1
 1199.5 900 1199.5 900 1207.5 892 c 6,2,-1
 1378.5 721 l 6,3,4
 1397.5 702 1397.5 702 1378.5 683 c 6,5,-1
 615.5 -80 l 6,6,7
 596.5 -99 596.5 -99 577.5 -80 c 6,8,-1
 89.5 408 l 6,9,10
 70.5 427 70.5 427 89.5 446 c 6,11,-1
 259.5 617 l 6,12,13
 278.5 636 278.5 636 297.5 617 c 6,14,-1
 596.5 318 l 5,15,-1
 1169.5 892 l 6,16,17
 1177.5 899 1177.5 899 1188.5 899 c 4,0,1
EndSplineSet
Validated: 33
EndChar

StartChar: uni024B
Encoding: 587 587 25
Width: 1468
Flags: W
LayerCount: 2
Fore
SplineSet
1188.5 899 m 4,0,1
 1199.5 900 1199.5 900 1207.5 892 c 6,2,-1
 1378.5 721 l 6,3,4
 1397.5 702 1397.5 702 1378.5 683 c 6,5,-1
 615.5 -80 l 6,6,7
 596.5 -99 596.5 -99 577.5 -80 c 6,8,-1
 89.5 408 l 6,9,10
 70.5 427 70.5 427 89.5 446 c 6,11,-1
 259.5 617 l 6,12,13
 278.5 636 278.5 636 297.5 617 c 6,14,-1
 596.5 318 l 5,15,-1
 1169.5 892 l 6,16,17
 1177.5 899 1177.5 899 1188.5 899 c 4,0,1
EndSplineSet
Validated: 33
EndChar

StartChar: uni024A
Encoding: 586 586 26
Width: 1468
Flags: W
LayerCount: 2
Fore
SplineSet
1188.5 899 m 4,0,1
 1199.5 900 1199.5 900 1207.5 892 c 6,2,-1
 1378.5 721 l 6,3,4
 1397.5 702 1397.5 702 1378.5 683 c 6,5,-1
 615.5 -80 l 6,6,7
 596.5 -99 596.5 -99 577.5 -80 c 6,8,-1
 89.5 408 l 6,9,10
 70.5 427 70.5 427 89.5 446 c 6,11,-1
 259.5 617 l 6,12,13
 278.5 636 278.5 636 297.5 617 c 6,14,-1
 596.5 318 l 5,15,-1
 1169.5 892 l 6,16,17
 1177.5 899 1177.5 899 1188.5 899 c 4,0,1
EndSplineSet
Validated: 33
EndChar

StartChar: uni01AD
Encoding: 429 429 27
Width: 1161
Flags: W
LayerCount: 2
Fore
SplineSet
811.25 629.25 m 4,0,1
 805.75 629.25 805.75 629.25 801.75 625.75 c 6,2,-1
 515.25 338.75 l 5,3,-1
 365.75 488.25 l 6,4,5
 356.25 497.75 356.25 497.75 346.75 488.25 c 6,6,-1
 261.75 402.75 l 6,7,8
 252.25 393.25 252.25 393.25 261.75 383.75 c 6,9,10
 505.75 139.75 l 6,11,12
 515.25 130.25 515.25 130.25 524.75 139.75 c 6,13,-1
 906.25 521.25 l 6,14,15
 915.75 530.75 915.75 530.75 906.25 540.25 c 6,16,-1
 820.75 625.75 l 6,17,18
 816.75 629.75 816.75 629.75 811.25 629.25 c 4,0,1
580.8203125 -99.8095703125 m 128,-1,20
 373.760742188 -99.8095703125 373.760742188 -99.8095703125 226.879882812 46.5595703125 c 128,-1,21
 80 192.9296875 80 192.9296875 80 399.990234375 c 128,-1,22
 80 607.049804688 80 607.049804688 226.879882812 753.9296875 c 128,-1,23
 373.760742188 900.809570312 373.760742188 900.809570312 580.8203125 900.809570312 c 128,-1,24
 787.879882812 900.809570312 787.879882812 900.809570312 934.760742188 753.9296875 c 128,-1,25
 1081.640625 607.049804688 1081.640625 607.049804688 1081.640625 399.990234375 c 128,-1,26
 1081.640625 192.9296875 1081.640625 192.9296875 934.760742188 46.5595703125 c 128,-1,19
 787.879882812 -99.8095703125 787.879882812 -99.8095703125 580.8203125 -99.8095703125 c 128,-1,20
EndSplineSet
Validated: 1
EndChar

StartChar: uni01AE
Encoding: 430 430 28
Width: 1161
VWidth: 1006
Flags: W
LayerCount: 2
Fore
SplineSet
738.030273438 666.0703125 m 256,0,1
 732.08984375 666.0703125 732.08984375 666.0703125 727.76953125 661.75 c 2,2,-1
 577.109375 511.08984375 l 1,3,-1
 428.609375 659.58984375 l 2,4,5
 418.349609375 670.389648438 418.349609375 670.389648438 407.549804688 659.58984375 c 2,6,-1
 315.209960938 567.25 l 2,7,8
 304.950195312 556.989257812 304.950195312 556.989257812 315.209960938 546.73046875 c 2,9,-1
 464.25 397.689453125 l 1,10,-1
 311.969726562 245.41015625 l 2,11,12
 301.709960938 235.150390625 301.709960938 235.150390625 311.969726562 224.889648438 c 2,13,-1
 404.309570312 132.549804688 l 2,14,15
 414.5703125 122.290039062 414.5703125 122.290039062 424.830078125 132.549804688 c 2,16,-1
 577.109375 284.830078125 l 1,17,-1
 731.009765625 130.9296875 l 2,18,19
 741.26953125 120.669921875 741.26953125 120.669921875 751.530273438 130.9296875 c 2,20,-1
 843.870117188 223.26953125 l 2,21,22
 854.669921875 234.069335938 854.669921875 234.069335938 843.870117188 244.330078125 c 2,23,-1
 690.509765625 397.689453125 l 1,24,-1
 841.169921875 548.349609375 l 2,25,26
 851.430664062 558.610351562 851.430664062 558.610351562 841.169921875 568.870117188 c 2,27,-1
 748.290039062 661.75 l 2,28,29
 743.969726562 666.0703125 743.969726562 666.0703125 738.030273438 666.0703125 c 256,0,1
580.8203125 -99.91015625 m 128,-1,31
 373.760742188 -99.91015625 373.760742188 -99.91015625 226.879882812 46.4599609375 c 128,-1,32
 80 192.830078125 80 192.830078125 80 399.889648438 c 128,-1,33
 80 606.950195312 80 606.950195312 226.879882812 753.830078125 c 128,-1,34
 373.760742188 900.709960938 373.760742188 900.709960938 580.8203125 900.709960938 c 128,-1,35
 787.879882812 900.709960938 787.879882812 900.709960938 934.760742188 753.830078125 c 128,-1,36
 1081.640625 606.950195312 1081.640625 606.950195312 1081.640625 399.889648438 c 128,-1,37
 1081.640625 192.830078125 1081.640625 192.830078125 934.760742188 46.4599609375 c 128,-1,30
 787.879882812 -99.91015625 787.879882812 -99.91015625 580.8203125 -99.91015625 c 128,-1,31
EndSplineSet
Validated: 1
EndChar

StartChar: Uhorn
Encoding: 431 431 29
Width: 1161
VWidth: 1006
Flags: W
LayerCount: 2
Fore
SplineSet
834.037109375 590.583984375 m 0,0,1
 835.8203125 602.870117188 835.8203125 602.870117188 833.151367188 611.495117188 c 0,2,3
 830.720703125 620.209960938 830.720703125 620.209960938 828.172851562 623.640625 c 0,4,5
 825.620117188 627.349609375 825.620117188 627.349609375 818.594726562 633.762695312 c 0,6,7
 805.220703125 646.73046875 805.220703125 646.73046875 778.362304688 646.399414062 c 0,8,9
 765.440429688 645.709960938 765.440429688 645.709960938 758.965820312 642.509765625 c 0,10,11
 752.180664062 638.5703125 752.180664062 638.5703125 739.130859375 623.80859375 c 0,12,13
 729.740234375 613.0703125 729.740234375 613.0703125 624.381835938 455.895507812 c 0,14,15
 517.580078125 296.870117188 517.580078125 296.870117188 515.2578125 296.395507812 c 0,16,17
 512.48046875 295.849609375 512.48046875 295.849609375 465.51171875 366.551757812 c 0,18,19
 424.760742188 428.450195312 424.760742188 428.450195312 406.765625 444.76953125 c 0,20,21
 395.428710938 455.06640625 395.428710938 455.06640625 378.655273438 454.358398438 c 0,22,23
 364.580078125 453.950195312 364.580078125 453.950195312 351.591796875 446.248046875 c 0,24,25
 338.060546875 437.629882812 338.060546875 437.629882812 329.321289062 422.250976562 c 0,26,27
 320.720703125 406.009765625 320.720703125 406.009765625 328.592773438 392.51953125 c 0,28,29
 356.419921875 342.76953125 356.419921875 342.76953125 405.501953125 268.793945312 c 0,30,31
 464.540039062 180.58984375 464.540039062 180.58984375 479.888671875 163.669921875 c 128,-1,32
 495.140625 146.9296875 495.140625 146.9296875 517.26171875 146.5078125 c 0,33,34
 535.940429688 146.9296875 535.940429688 146.9296875 559.807617188 177.286132812 c 0,35,36
 583.879882812 208.129882812 583.879882812 208.129882812 688.057617188 362.827148438 c 0,37,38
 804.200195312 536.5703125 804.200195312 536.5703125 828.62109375 577.311523438 c 0,39,40
 833.780273438 585.530273438 833.780273438 585.530273438 834.037109375 590.583984375 c 0,0,1
580.8203125 -99.91015625 m 128,-1,42
 373.760742188 -99.91015625 373.760742188 -99.91015625 226.879882812 46.4599609375 c 128,-1,43
 80 192.830078125 80 192.830078125 80 399.889648438 c 128,-1,44
 80 606.950195312 80 606.950195312 226.879882812 753.830078125 c 128,-1,45
 373.760742188 900.709960938 373.760742188 900.709960938 580.8203125 900.709960938 c 128,-1,46
 787.879882812 900.709960938 787.879882812 900.709960938 934.760742188 753.830078125 c 128,-1,47
 1081.640625 606.950195312 1081.640625 606.950195312 1081.640625 399.889648438 c 128,-1,48
 1081.640625 192.830078125 1081.640625 192.830078125 934.760742188 46.4599609375 c 128,-1,41
 787.879882812 -99.91015625 787.879882812 -99.91015625 580.8203125 -99.91015625 c 128,-1,42
EndSplineSet
Validated: 33
EndChar

StartChar: uhorn
Encoding: 432 432 30
Width: 1161
VWidth: 1006
Flags: W
LayerCount: 2
Fore
SplineSet
703.145507812 634.217773438 m 5,0,1
 678.034179688 610.97265625 678.034179688 610.97265625 669.0546875 602.465820312 c 132,-1,2
 660.075195312 593.958984375 660.075195312 593.958984375 639.90625 572.903320312 c 132,-1,3
 619.737304688 551.84765625 619.737304688 551.84765625 595.870117188 524.4453125 c 4,4,5
 591.62109375 519.5625 591.62109375 519.5625 564.279296875 487.1328125 c 5,6,7
 533.291015625 527.548828125 533.291015625 527.548828125 515.473632812 551.716796875 c 4,8,9
 469.858398438 614.40234375 469.858398438 614.40234375 450.345703125 630.517578125 c 4,10,11
 437.58203125 641.05859375 437.58203125 641.05859375 416.43359375 641.716796875 c 132,-1,12
 395.286132812 642.374023438 395.286132812 642.374023438 383.68359375 635.078125 c 4,13,14
 369.438476562 627.427734375 369.438476562 627.427734375 362.473632812 610.638671875 c 132,-1,15
 355.510742188 593.849609375 355.510742188 593.849609375 363.6640625 577.887695312 c 4,16,17
 380.840820312 549.713867188 380.840820312 549.713867188 387.420898438 539.223632812 c 132,-1,18
 394 528.733398438 394 528.733398438 410.419921875 505.266601562 c 132,-1,19
 426.837890625 481.799804688 426.837890625 481.799804688 448.971679688 453.181640625 c 4,20,21
 463.481445312 434.438476562 463.481445312 434.438476562 491.705078125 399.497070312 c 5,22,23
 391.78125 276.859375 391.78125 276.859375 368.469726562 249.052734375 c 4,24,25
 356.359375 232.024414062 356.359375 232.024414062 357.19140625 212.91796875 c 132,-1,26
 358.0234375 193.8125 358.0234375 193.8125 367.057617188 182.643554688 c 4,27,28
 375.890625 171.723632812 375.890625 171.723632812 381.419921875 167.474609375 c 132,-1,29
 386.951171875 163.223632812 386.951171875 163.223632812 397.565429688 158.557617188 c 4,30,31
 405.262695312 153.79296875 405.262695312 153.79296875 421.391601562 155.87890625 c 132,-1,32
 437.520507812 157.96484375 437.520507812 157.96484375 445.749023438 168.477539062 c 4,33,34
 503.0390625 241.65234375 503.0390625 241.65234375 562.217773438 313.35546875 c 5,35,36
 647.794921875 210.112304688 647.794921875 210.112304688 674.674804688 176.693359375 c 4,37,38
 690.190429688 158.243164062 690.190429688 158.243164062 709.458984375 153.640625 c 132,-1,39
 728.725585938 149.0390625 728.725585938 149.0390625 748.415039062 155.1796875 c 4,40,41
 777.993164062 162.208007812 777.993164062 162.208007812 784.932617188 184.521484375 c 4,42,43
 787.6796875 192.911132812 787.6796875 192.911132812 786.7734375 204.143554688 c 132,-1,44
 785.868164062 215.377929688 785.868164062 215.377929688 781.640625 221.111328125 c 4,45,46
 755.487304688 256.576171875 755.487304688 256.576171875 703.080078125 317.069335938 c 132,-1,47
 650.674804688 377.563476562 650.674804688 377.563476562 633.892578125 398.439453125 c 5,48,49
 681.2109375 453.395507812 681.2109375 453.395507812 718.671875 494.48046875 c 4,50,51
 771.963867188 552.23046875 771.963867188 552.23046875 783.326171875 573.66796875 c 4,52,53
 793.258789062 588.212890625 793.258789062 588.212890625 786.192382812 608.196289062 c 132,-1,54
 779.125976562 628.180664062 779.125976562 628.180664062 760.083984375 635.46875 c 4,55,56
 726.522460938 648.315429688 726.522460938 648.315429688 703.145507812 634.217773438 c 5,0,1
580.8203125 -99.91015625 m 128,-1,58
 373.760742188 -99.91015625 373.760742188 -99.91015625 226.879882812 46.4599609375 c 128,-1,59
 80 192.830078125 80 192.830078125 80 399.889648438 c 128,-1,60
 80 606.950195312 80 606.950195312 226.879882812 753.830078125 c 128,-1,61
 373.760742188 900.709960938 373.760742188 900.709960938 580.8203125 900.709960938 c 128,-1,62
 787.879882812 900.709960938 787.879882812 900.709960938 934.760742188 753.830078125 c 128,-1,63
 1081.640625 606.950195312 1081.640625 606.950195312 1081.640625 399.889648438 c 128,-1,64
 1081.640625 192.830078125 1081.640625 192.830078125 934.760742188 46.4599609375 c 128,-1,57
 787.879882812 -99.91015625 787.879882812 -99.91015625 580.8203125 -99.91015625 c 128,-1,58
EndSplineSet
Validated: 33
EndChar

StartChar: aringacute
Encoding: 507 507 31
Width: 1150
Flags: W
LayerCount: 2
Fore
SplineSet
567.287109375 896 m 0,0,1
 780.287109375 897 780.287109375 897 926.287109375 742 c 1,2,-1
 1034.28710938 810 l 2,3,4
 1039.28710938 813 1039.28710938 813 1045.28710938 812 c 0,5,6
 1055.28710938 810 1055.28710938 810 1056.28710938 799 c 2,7,-1
 1070.28710938 411 l 2,8,9
 1071.28710938 403 1071.28710938 403 1064.28710938 398.5 c 128,-1,10
 1057.28710938 394 1057.28710938 394 1050.28710938 398 c 2,11,-1
 706.287109375 580 l 2,12,13
 699.287109375 583 699.287109375 583 699.287109375 591 c 128,-1,14
 699.287109375 599 699.287109375 599 706.287109375 604 c 2,15,-1
 817.287109375 674 l 1,16,17
 750.287109375 736 750.287109375 736 660.287109375 759.5 c 128,-1,18
 570.287109375 783 570.287109375 783 480.287109375 760 c 0,19,20
 333.287109375 722 333.287109375 722 256.287109375 593 c 128,-1,21
 179.287109375 464 179.287109375 464 216.787109375 317 c 128,-1,22
 254.287109375 170 254.287109375 170 383.787109375 93.5 c 128,-1,23
 513.287109375 17 513.287109375 17 659.287109375 54 c 0,24,25
 668.287109375 57 668.287109375 57 676.287109375 57 c 0,26,27
 702.287109375 57 702.287109375 57 720.287109375 38.5 c 128,-1,28
 738.287109375 20 738.287109375 20 738.287109375 -6 c 0,29,30
 738.287109375 -26 738.287109375 -26 724.287109375 -44 c 128,-1,31
 710.287109375 -62 710.287109375 -62 690.287109375 -67 c 0,32,33
 495.287109375 -116 495.287109375 -116 320.787109375 -12.5 c 128,-1,34
 146.287109375 91 146.287109375 91 96.287109375 286.5 c 128,-1,35
 46.287109375 482 46.287109375 482 149.787109375 656.5 c 128,-1,36
 253.287109375 831 253.287109375 831 449.287109375 881 c 0,37,38
 507.287109375 896 507.287109375 896 567.287109375 896 c 0,0,1
EndSplineSet
Validated: 33
EndChar

StartChar: AEacute
Encoding: 508 508 32
Width: 1427
Flags: W
LayerCount: 2
Fore
SplineSet
713.446289062 893 m 0,0,1
 908.446289062 893 908.446289062 893 1050.94628906 758.5 c 128,-1,2
 1193.44628906 624 1193.44628906 624 1204.44628906 430 c 1,3,-1
 1314.44628906 430 l 2,4,5
 1363.44628906 430 1363.44628906 430 1339.44628906 388 c 2,6,-1
 1251.44628906 236 l 1,7,-1
 1162.44628906 83 l 2,8,9
 1154.44628906 69 1154.44628906 69 1138.44628906 69 c 128,-1,10
 1122.44628906 69 1122.44628906 69 1114.44628906 83 c 2,11,-1
 1026.44628906 236 l 1,12,-1
 938.446289062 388 l 2,13,14
 913.446289062 430 913.446289062 430 962.446289062 430 c 2,15,-1
 1075.44628906 430 l 1,16,17
 1049.44628906 765 1049.44628906 765 713.446289062 765 c 0,18,19
 648.446289062 765 648.446289062 765 648.446289062 829 c 128,-1,20
 648.446289062 893 648.446289062 893 713.446289062 893 c 0,0,1
290.446289062 743 m 0,21,22
 305.446289062 742 305.446289062 742 313.446289062 729 c 2,23,-1
 401.446289062 576 l 1,24,-1
 489.446289062 423 l 2,25,26
 513.446289062 381 513.446289062 381 465.446289062 381 c 2,27,-1
 351.446289062 381 l 1,28,29
 369.446289062 38 369.446289062 38 713.446289062 38 c 0,30,31
 778.446289062 38 778.446289062 38 778.446289062 -26 c 128,-1,32
 778.446289062 -90 778.446289062 -90 714.446289062 -90 c 0,33,34
 516.446289062 -90 516.446289062 -90 373.446289062 47.5 c 128,-1,35
 230.446289062 185 230.446289062 185 222.446289062 381 c 1,36,-1
 112.446289062 381 l 2,37,38
 63.4462890625 381 63.4462890625 381 88.4462890625 423 c 2,39,-1
 176.446289062 576 l 1,40,-1
 264.446289062 729 l 2,41,42
 272.446289062 743 272.446289062 743 290.446289062 743 c 0,21,22
EndSplineSet
Validated: 33
EndChar

StartChar: uni01B5
Encoding: 437 437 33
Width: 1161
VWidth: 1006
Flags: W
LayerCount: 2
Fore
SplineSet
580.8203125 -99.91015625 m 128,-1,1
 373.760742188 -99.91015625 373.760742188 -99.91015625 226.879882812 46.4599609375 c 128,-1,2
 80 192.830078125 80 192.830078125 80 399.889648438 c 128,-1,3
 80 606.950195312 80 606.950195312 226.879882812 753.830078125 c 128,-1,4
 373.760742188 900.709960938 373.760742188 900.709960938 580.8203125 900.709960938 c 128,-1,5
 787.879882812 900.709960938 787.879882812 900.709960938 934.760742188 753.830078125 c 128,-1,6
 1081.640625 606.950195312 1081.640625 606.950195312 1081.640625 399.889648438 c 128,-1,7
 1081.640625 192.830078125 1081.640625 192.830078125 934.760742188 46.4599609375 c 128,-1,0
 787.879882812 -99.91015625 787.879882812 -99.91015625 580.8203125 -99.91015625 c 128,-1,1
552.260742188 96.9501953125 m 2,8,9
 609.379882812 96.9501953125 l 2,10,11
 650.180664062 96.9501953125 650.180664062 96.9501953125 650.180664062 137.75 c 2,12,-1
 650.180664062 193.849609375 l 2,13,14
 650.180664062 235.669921875 650.180664062 235.669921875 609.379882812 235.669921875 c 2,15,-1
 552.260742188 235.669921875 l 2,16,17
 511.459960938 235.669921875 511.459960938 235.669921875 511.459960938 193.849609375 c 2,18,-1
 511.459960938 137.75 l 2,19,20
 511.459960938 96.9501953125 511.459960938 96.9501953125 552.260742188 96.9501953125 c 2,8,9
552.260742188 338.690429688 m 2,21,-1
 609.379882812 338.690429688 l 2,22,23
 650.180664062 338.690429688 650.180664062 338.690429688 650.180664062 379.490234375 c 2,24,-1
 650.180664062 663.049804688 l 2,25,26
 650.180664062 703.849609375 650.180664062 703.849609375 609.379882812 703.849609375 c 2,27,-1
 552.260742188 703.849609375 l 2,28,29
 511.459960938 703.849609375 511.459960938 703.849609375 511.459960938 663.049804688 c 2,30,-1
 511.459960938 379.490234375 l 2,31,32
 511.459960938 338.690429688 511.459960938 338.690429688 552.260742188 338.690429688 c 2,21,-1
EndSplineSet
Validated: 1
EndChar

StartChar: uni01B6
Encoding: 438 438 34
Width: 1161
VWidth: 1006
Flags: W
LayerCount: 2
Fore
SplineSet
580.8203125 900.709960938 m 128,-1,1
 787.879882812 900.709960938 787.879882812 900.709960938 934.760742188 753.830078125 c 128,-1,2
 1081.640625 606.950195312 1081.640625 606.950195312 1081.640625 399.889648438 c 128,-1,3
 1081.640625 192.830078125 1081.640625 192.830078125 934.760742188 46.4599609375 c 128,-1,4
 787.879882812 -99.91015625 787.879882812 -99.91015625 580.8203125 -99.91015625 c 128,-1,5
 373.760742188 -99.91015625 373.760742188 -99.91015625 226.879882812 46.4599609375 c 128,-1,6
 80 192.830078125 80 192.830078125 80 399.889648438 c 128,-1,7
 80 606.950195312 80 606.950195312 226.879882812 753.830078125 c 128,-1,0
 373.760742188 900.709960938 373.760742188 900.709960938 580.8203125 900.709960938 c 128,-1,1
552.260742188 703.849609375 m 2,8,9
 511.459960938 703.849609375 511.459960938 703.849609375 511.459960938 663.049804688 c 2,10,-1
 511.459960938 605.9296875 l 2,11,12
 511.459960938 565.129882812 511.459960938 565.129882812 552.260742188 565.129882812 c 2,13,-1
 609.379882812 565.129882812 l 2,14,15
 650.180664062 565.129882812 650.180664062 565.129882812 650.180664062 605.9296875 c 2,16,-1
 650.180664062 663.049804688 l 2,17,18
 650.180664062 703.849609375 650.180664062 703.849609375 609.379882812 703.849609375 c 2,19,-1
 552.260742188 703.849609375 l 2,8,9
552.260742188 461.08984375 m 2,20,21
 511.459960938 461.08984375 511.459960938 461.08984375 511.459960938 420.290039062 c 2,22,-1
 511.459960938 137.75 l 2,23,24
 511.459960938 96.9501953125 511.459960938 96.9501953125 552.260742188 96.9501953125 c 2,25,-1
 609.379882812 96.9501953125 l 2,26,27
 650.180664062 96.9501953125 650.180664062 96.9501953125 650.180664062 137.75 c 2,28,-1
 650.180664062 420.290039062 l 2,29,30
 650.180664062 461.08984375 650.180664062 461.08984375 609.379882812 461.08984375 c 2,31,-1
 552.260742188 461.08984375 l 2,20,21
EndSplineSet
Validated: 1
EndChar

StartChar: Aogonek
Encoding: 260 260 35
Width: 1436
Flags: W
LayerCount: 2
Fore
SplineSet
1130 898 m 0,0,1
 1142 898 1142 898 1150 889 c 2,2,-1
 1347 692 l 2,3,4
 1366 673 1366 673 1347 653 c 2,5,-1
 612 -82 l 2,6,7
 592 -102 592 -102 573 -82 c 2,8,-1
 90 401 l 2,9,10
 70 421 70 421 90 440 c 2,11,-1
 287 637 l 2,12,13
 306 657 306 657 326 637 c 2,14,-1
 592 371 l 1,15,-1
 1110 889 l 2,16,17
 1119 897 1119 897 1130 898 c 0,0,1
EndSplineSet
Validated: 33
EndChar

StartChar: two
Encoding: 50 50 36
Width: 620
VWidth: 0
Flags: W
LayerCount: 2
Fore
SplineSet
364.389648438 699.728515625 m 2,0,1
 454.872070312 699.91796875 454.872070312 699.91796875 493.19140625 644.204101562 c 0,2,3
 522.583984375 601.471679688 522.583984375 601.471679688 517.344726562 523.905273438 c 2,4,-1
 517.109375 521.7265625 l 2,5,6
 508.094726562 450.115234375 508.094726562 450.115234375 447.520507812 390.970703125 c 0,7,8
 416.31640625 360.504882812 416.31640625 360.504882812 333.2421875 305.059570312 c 0,9,10
 191.595703125 210.5 191.595703125 210.5 179.25 126.454101562 c 2,11,-1
 179.171875 77.0302734375 l 1,12,-1
 479.125 77.0302734375 l 2,13,14
 518.181640625 77.041015625 518.181640625 77.041015625 518.181640625 38.509765625 c 128,-1,15
 518.181640625 -0.0107421875 518.181640625 -0.0107421875 479.661132812 -0.0107421875 c 0,16,-1
 140.584960938 0 l 2,17,18
 102.063476562 0 102.063476562 0 102.063476562 38.509765625 c 2,19,-1
 102.208007812 130.744140625 l 1,20,-1
 102.587890625 136.017578125 l 2,21,22
 119.122070312 254.696289062 119.122070312 254.696289062 290.521484375 369.084960938 c 0,23,24
 367.596679688 420.520507812 367.596679688 420.520507812 393.739257812 446.047851562 c 0,25,26
 434.370117188 485.73046875 434.370117188 485.73046875 440.303710938 530.674804688 c 0,27,28
 443.275390625 580.736328125 443.275390625 580.736328125 429.690429688 600.48828125 c 0,29,30
 414.373046875 622.798828125 414.373046875 622.798828125 364.545898438 622.686523438 c 0,31,-1
 364.46875 622.686523438 l 1,32,-1
 140.952148438 622.384765625 l 2,33,34
 101.818359375 622.384765625 101.818359375 622.384765625 101.818359375 660.90625 c 128,-1,35
 101.818359375 699.426757812 101.818359375 699.426757812 140.338867188 699.426757812 c 0,36,-1
 364.389648438 699.728515625 l 2,0,1
EndSplineSet
Validated: 33
EndChar

StartChar: uni02BE
Encoding: 702 702 37
Width: 1209
Flags: W
LayerCount: 2
Fore
SplineSet
604 899 m 1,0,-1
 734 526 l 1,1,-1
 1129 518 l 1,2,-1
 814 279 l 1,3,-1
 928 -98 l 1,4,-1
 604 127 l 1,5,-1
 280 -98 l 1,6,-1
 395 279 l 1,7,-1
 80 518 l 1,8,-1
 475 526 l 1,9,-1
 604 899 l 1,0,-1
EndSplineSet
Validated: 1
EndChar

StartChar: uni0297
Encoding: 663 663 38
Width: 952
Flags: W
LayerCount: 2
Fore
SplineSet
390 796 m 6,0,-1
 562 796 l 6,1,2
 570 796 570 796 576 790.5 c 132,-1,3
 582 785 582 785 582 776 c 6,4,-1
 582 507 l 5,5,-1
 851 507 l 6,6,7
 860 507 860 507 866 501 c 132,-1,8
 872 495 872 495 872 487 c 6,9,-1
 872 315 l 6,10,11
 872 306 872 306 866 300 c 132,-1,12
 860 294 860 294 851 294 c 6,13,-1
 582 294 l 5,14,-1
 582 25 l 6,15,16
 582 17 582 17 576 11 c 132,-1,17
 570 5 570 5 562 5 c 6,18,-1
 390 5 l 6,19,20
 381 5 381 5 376 11 c 4,21,22
 369 16 369 16 370 25 c 6,23,-1
 370 294 l 5,24,-1
 100 294 l 6,25,26
 92 294 92 294 86 300 c 260,27,28
 80 306 80 306 80 315 c 6,29,-1
 80 487 l 6,30,31
 80 495 80 495 86 501 c 132,-1,32
 92 507 92 507 100 507 c 6,33,-1
 370 507 l 5,34,-1
 370 776 l 6,35,36
 370 785 370 785 375.5 790.5 c 132,-1,37
 381 796 381 796 390 796 c 6,0,-1
EndSplineSet
Validated: 1
EndChar

StartChar: uni0298
Encoding: 664 664 39
Width: 947
Flags: W
LayerCount: 2
Fore
SplineSet
867 486 m 2,0,-1
 867 315 l 2,1,2
 867 307 867 307 861 301 c 128,-1,3
 855 295 855 295 847 295 c 2,4,-1
 100 295 l 2,5,6
 92 295 92 295 86 301 c 128,-1,7
 80 307 80 307 80 315 c 2,8,-1
 80 486 l 2,9,10
 80 495 80 495 86 500.5 c 128,-1,11
 92 506 92 506 100 506 c 2,12,-1
 847 506 l 2,13,14
 855 506 855 506 861 500.5 c 128,-1,15
 867 495 867 495 867 486 c 2,0,-1
EndSplineSet
Validated: 1
EndChar

StartChar: semicolon
Encoding: 59 59 40
Width: 269
VWidth: 26
Flags: W
LayerCount: 2
Fore
SplineSet
206.343406715 88.3502216658 m 1,0,-1
 223.343406715 88.3502216658 l 1,1,-1
 223.343406715 71.3502216658 l 1,2,-1
 210.538806379 71.3502216658 l 1,3,-1
 207.157058475 71.3502216658 l 1,4,-1
 209.426894777 68.8434185125 l 2,5,6
 223.039238373 53.8099705876 223.039238373 53.8099705876 222.912598898 41.1959323246 c 0,7,8
 222.775043105 27.4945644832 222.775043105 27.4945644832 206.670857201 11.3899974432 c 2,9,-1
 91.5446471516 -100.410982343 l 2,10,11
 75.1918653407 -116.750904107 75.1918653407 -116.750904107 61.2138899115 -116.750770422 c 128,-1,12
 47.2365033118 -116.750636743 47.2365033118 -116.750636743 30.9601551085 -100.46464958 c 0,13,14
 22.7843758727 -92.2888703439 22.7843758727 -92.2888703439 18.7474953399 -84.7125427308 c 128,-1,15
 14.710614807 -77.1362151178 14.710614807 -77.1362151178 14.7081714377 -70.2046210863 c 0,16,17
 14.7032323461 -56.1929129142 14.7032323461 -56.1929129142 30.8795158056 -40.0407845177 c 2,18,-1
 145.910167027 71.6674117642 l 2,19,20
 157.856741306 83.2413653506 157.856741306 83.2413653506 175.004145322 83.2871642763 c 0,21,22
 190.553501657 83.3284314878 190.553501657 83.3284314878 203.970586007 73.7287930779 c 2,23,-1
 206.343406715 72.0310903418 l 1,24,-1
 206.343406715 74.9487045546 l 1,25,-1
 206.343406715 88.3502216658 l 1,0,-1
181.15625 455.900390625 m 128,-1,27
 204.162304683 455.900390625 204.162304683 455.900390625 214.065652352 446.001006946 c 128,-1,28
 223.968751358 436.101871829 223.968751358 436.101871829 223.968751358 413.11879417 c 128,-1,29
 223.95911778 390.109183442 223.95911778 390.109183442 214.058604377 380.204223815 c 128,-1,30
 204.158629764 370.299803219 204.158629764 370.299803219 181.188389686 370.299803219 c 128,-1,31
 158.177912181 370.309822518 158.177912181 370.309822518 148.273271576 380.210652866 c 128,-1,32
 138.369140625 390.110973758 138.369140625 390.110973758 138.369140625 413.087890625 c 128,-1,33
 138.369140625 436.094773558 138.369140625 436.094773558 148.26837563 445.99769787 c 128,-1,26
 158.167379164 455.900390625 158.167379164 455.900390625 181.15625 455.900390625 c 128,-1,27
EndSplineSet
Validated: 33
EndChar

StartChar: comma
Encoding: 44 44 41
Width: 269
VWidth: -20
Flags: W
LayerCount: 2
Fore
SplineSet
174.879158031 82.937554935 m 0,0,1
 192.230679444 82.9836050022 192.230679444 82.9836050022 206.934756532 71.0178785138 c 0,2,3
 222.92387365 54.5164729807 222.92387365 54.5164729807 222.786637229 40.8458917264 c 128,-1,4
 222.649094187 27.1445994837 222.649094187 27.1445994837 206.544946473 11.0404520008 c 2,5,-1
 91.4182337018 -100.761015988 l 2,6,7
 75.0882258958 -117.101087559 75.0882258958 -117.101087559 61.0880382537 -117.101126056 c 128,-1,8
 47.0884647203 -117.101164552 47.0884647203 -117.101164552 30.8351551084 -100.815235517 c 128,-1,9
 14.5876187927 -84.5676992009 14.5876187927 -84.5676992009 14.5826780406 -70.5545086794 c 128,-1,10
 14.5777377425 -56.5426056147 14.5777377425 -56.5426056147 30.7544494976 -40.3904582856 c 2,11,-1
 145.785167027 71.3178023892 l 2,12,13
 157.731741306 82.8917559754 157.731741306 82.8917559754 174.879158031 82.937554935 c 0,0,1
206.934756532 71.0178785138 m 1,14,-1
 206.934756532 71.0178785138 l 1,14,-1
EndSplineSet
Validated: 33
EndChar

StartChar: period
Encoding: 46 46 42
Width: 185
VWidth: -4
Flags: W
LayerCount: 2
Fore
SplineSet
92.7900390625 101.0625 m 128,-1,1
 115.782226562 101.072265625 115.782226562 101.072265625 125.686523438 91.17578125 c 128,-1,2
 135.58984375 81.279296875 135.58984375 81.279296875 135.599609375 58.2939453125 c 128,-1,3
 135.58984375 35.2861328125 135.58984375 35.2861328125 125.686523438 25.3876953125 c 128,-1,4
 115.783203125 15.490234375 115.783203125 15.490234375 92.787109375 15.5 c 128,-1,5
 69.794921875 15.5 69.794921875 15.5 59.8974609375 25.3984375 c 128,-1,6
 50 35.296875 50 35.296875 50 58.287109375 c 128,-1,7
 50 81.2724609375 50 81.2724609375 59.8984375 91.1669921875 c 128,-1,0
 69.7978515625 101.0625 69.7978515625 101.0625 92.7900390625 101.0625 c 128,-1,1
EndSplineSet
Validated: 33
EndChar

StartChar: slash
Encoding: 47 47 43
Width: 638
VWidth: 79
Flags: W
LayerCount: 2
Fore
SplineSet
500.104183143 784.485785932 m 2,0,-1
 501.440437501 784.506835938 l 2,1,2
 523.361099398 784.506835938 523.361099398 784.506835938 532.780462915 775.081876796 c 128,-1,3
 542.200195312 765.656548556 542.200195312 765.656548556 542.200195312 743.637695312 c 0,4,5
 542.200195312 733.149420045 542.200195312 733.149420045 537.07067333 723.826084766 c 0,6,-1
 537.037706387 723.762628574 l 1,7,-1
 204.148254469 37.7348885312 l 2,8,9
 198.230262619 26.0722582841 198.230262619 26.0722582841 189.476000805 20.6951245375 c 128,-1,10
 180.723928962 15.3193359375 180.723928962 15.3193359375 167.681640625 15.3193359375 c 0,11,12
 145.639848707 15.3193359375 145.639848707 15.3193359375 136.219750993 24.7371386261 c 128,-1,13
 126.799804688 34.1547899419 126.799804688 34.1547899419 126.799804688 56.1884765625 c 0,14,15
 126.799804688 66.7669384387 126.799804688 66.7669384387 132.029497609 76.1547661756 c 0,16,-1
 132.066295877 76.2251427385 l 1,17,-1
 464.950862699 762.24170497 l 2,18,19
 476.003981349 783.821468319 476.003981349 783.821468319 500.104183143 784.485785932 c 2,0,-1
EndSplineSet
Validated: 1
EndChar

StartChar: zero
Encoding: 48 48 44
Width: 620
VWidth: 0
Flags: W
LayerCount: 2
Fore
SplineSet
264.674804688 699.921875 m 2,0,-1
 355.418945312 699.921875 l 2,1,2
 435.325195312 699.921875 435.325195312 699.921875 483.778320312 624.372070312 c 0,3,4
 528.833984375 553 528.833984375 553 529.1640625 433.595703125 c 2,5,-1
 529.1640625 270.153320312 l 2,6,7
 529.547851562 150.852539062 529.547851562 150.852539062 484.010742188 77.8916015625 c 0,8,9
 435.39453125 0 435.39453125 0 355.418945312 0 c 2,10,-1
 264.674804688 0 l 2,11,12
 184.767578125 0 184.767578125 0 135.990234375 77.8916015625 c 0,13,14
 90.833984375 151 90.833984375 151 90.8369140625 270.153320312 c 2,15,-1
 90.8369140625 433.595703125 l 2,16,17
 90.44140625 553.174804688 90.44140625 553.174804688 136.22265625 624.372070312 c 0,18,19
 184.80078125 699.921875 184.80078125 699.921875 264.674804688 699.921875 c 2,0,-1
264.674804688 619.916992188 m 2,20,21
 232.409179688 619.916992188 232.409179688 619.916992188 203.743164062 581.331054688 c 0,22,23
 170.841796875 537.237304688 170.841796875 537.237304688 170.841796875 433.595703125 c 2,24,-1
 170.841796875 270.153320312 l 2,25,26
 170.833984375 166 170.833984375 166 203.975585938 120.157226562 c 0,27,28
 231.629882812 79.9921875 231.629882812 79.9921875 264.674804688 79.9921875 c 2,29,-1
 355.418945312 79.9921875 l 2,30,31
 387.8125 79.9921875 387.8125 79.9921875 416.118164062 120.157226562 c 0,32,33
 449.159179688 165.883789062 449.159179688 165.883789062 449.159179688 270.153320312 c 2,34,-1
 449.159179688 433.595703125 l 2,35,36
 448.833984375 537 448.833984375 537 416.350585938 581.331054688 c 0,37,38
 389.603515625 619.5390625 389.603515625 619.5390625 355.418945312 619.916992188 c 2,39,-1
 264.674804688 619.916992188 l 2,20,21
EndSplineSet
Validated: 33
EndChar

StartChar: one
Encoding: 49 49 45
Width: 620
VWidth: 79
Flags: W
LayerCount: 2
Fore
SplineSet
246.57421875 701.120117188 m 2,0,-1
 373.994140625 701.120117188 l 2,1,2
 413.99609375 701 413.99609375 701 413.99609375 661.129882812 c 2,3,-1
 413.99609375 39.8466796875 l 2,4,5
 414.002929688 -1 414.002929688 -1 373.994140625 -0.7236328125 c 0,6,7
 334.002929688 -1 334.002929688 -1 333.9921875 39.2783203125 c 0,8,-1
 334.00390625 621.127929688 l 1,9,-1
 246.57421875 621.127929688 l 2,10,11
 206.002929688 621 206.002929688 621 206.002929688 661.129882812 c 0,12,13
 206.002929688 701 206.002929688 701 246.57421875 701.120117188 c 2,0,-1
EndSplineSet
Validated: 33
EndChar

StartChar: three
Encoding: 51 51 46
Width: 620
VWidth: 0
Flags: W
LayerCount: 2
Fore
SplineSet
374.608398438 700 m 2,0,1
 460.931640625 700.10546875 460.931640625 700.10546875 496.8203125 645.357421875 c 0,2,3
 528.000976562 598 528.000976562 598 509.05859375 528.677734375 c 0,4,5
 489.000976562 459 489.000976562 459 408.055664062 398.083007812 c 1,6,7
 461.000976562 369 461.000976562 369 484.6484375 338.352539062 c 0,8,9
 521.000976562 290 521.000976562 290 520.999023438 219.655273438 c 0,10,11
 521.000976562 149 521.000976562 149 479.870117188 81.845703125 c 0,12,13
 430.26171875 -0.5673828125 430.26171875 -0.5673828125 357.436523438 -0.5673828125 c 2,14,-1
 138.11328125 -0.5673828125 l 2,15,16
 99.0009765625 -1 99.0009765625 -1 99.3447265625 37.658203125 c 0,17,18
 99.0009765625 76 99.0009765625 76 137.569335938 75.8818359375 c 0,19,-1
 357.436523438 75.8818359375 l 2,20,21
 387.000976562 76 387.000976562 76 414.618164062 121.64453125 c 0,22,23
 445.000976562 171 445.000976562 171 444.560546875 219.655273438 c 0,24,25
 445.000976562 264 445.000976562 264 423.508789062 292.4453125 c 0,26,27
 394.000976562 331 394.000976562 331 317.793945312 354.92578125 c 0,28,29
 291.000976562 363 291.000976562 363 290.766601562 391.4765625 c 0,30,31
 291.000976562 421 291.000976562 421 318.76953125 428.315429688 c 0,32,33
 410.000976562 453 410.000976562 453 435.448242188 549.053710938 c 0,34,35
 445.000976562 585 445.000976562 585 432.987304688 603.331054688 c 0,36,37
 420.239257812 623.620117188 420.239257812 623.620117188 374.686523438 623.5625 c 2,38,-1
 137.813476562 623.262695312 l 2,39,40
 99.0009765625 623 99.0009765625 623 99.0009765625 661.487304688 c 128,-1,41
 99.0009765625 700 99.0009765625 700 137.236328125 699.7109375 c 0,42,-1
 374.608398438 700 l 2,0,1
EndSplineSet
Validated: 33
EndChar

StartChar: four
Encoding: 52 52 47
Width: 620
VWidth: 0
Flags: W
LayerCount: 2
Fore
SplineSet
393.345703125 704.631835938 m 2,0,1
 393.776367188 704.63671875 393.776367188 704.63671875 393.778320312 704.634765625 c 0,2,3
 409.400390625 705 409.400390625 705 420.821289062 693.427734375 c 0,4,5
 432.033203125 682.362304688 432.033203125 682.362304688 432.033203125 666.385742188 c 2,6,-1
 432.033203125 295.985351562 l 1,7,-1
 481.165039062 295.526367188 l 1,8,-1
 481.345703125 295.526367188 l 2,9,10
 497.400390625 296 497.400390625 296 508.391601562 284.317382812 c 0,11,12
 519.400390625 273 519.400390625 273 519.599609375 257.271484375 c 0,13,14
 519.400390625 241 519.400390625 241 508.391601562 230.225585938 c 0,15,16
 497.400390625 219 497.400390625 219 481.345703125 219.016601562 c 0,17,18
 480.400390625 219 480.400390625 219 480.450195312 219.028320312 c 2,19,-1
 432.033203125 219.48046875 l 1,20,-1
 432.033203125 36.904296875 l 2,21,22
 432.400390625 37 432.400390625 37 432.038085938 36.2587890625 c 0,23,24
 432.400390625 20 432.400390625 20 420.828125 9.2119140625 c 0,25,26
 409.400390625 -2 409.400390625 -2 393.782226562 -1.9970703125 c 0,27,28
 378.400390625 -2 378.400390625 -2 366.737304688 9.2119140625 c 0,29,30
 358.911132812 16.6591796875 358.911132812 16.6591796875 355.528320312 36.2587890625 c 0,31,32
 355.400390625 37 355.400390625 37 355.533203125 36.904296875 c 2,33,-1
 355.533203125 220.197265625 l 1,34,-1
 138.83984375 222.22265625 l 2,35,36
 123.400390625 222 123.400390625 222 112.194335938 233.473632812 c 0,37,38
 101.083984375 245.337890625 101.083984375 245.337890625 100.948242188 260.12109375 c 2,39,-1
 100.40234375 319.630859375 l 1,40,-1
 100.400390625 319.981445312 l 2,41,42
 100.400390625 329.5703125 100.400390625 329.5703125 104.918945312 338.01953125 c 2,43,-1
 289.741210938 683.623046875 l 2,44,45
 294.400390625 692 294.400390625 692 303.9140625 697.8046875 c 0,46,47
 312.971679688 703.719726562 312.971679688 703.719726562 323.037109375 703.833984375 c 2,48,-1
 393.345703125 704.631835938 l 2,0,1
355.529296875 627.697265625 m 1,49,-1
 346.52734375 627.590820312 l 1,50,-1
 176.991210938 310.555664062 l 1,51,-1
 177.1015625 298.364257812 l 1,52,-1
 355.529296875 296.6953125 l 1,53,-1
 355.529296875 627.697265625 l 1,49,-1
EndSplineSet
Validated: 1
EndChar

StartChar: six
Encoding: 54 54 48
Width: 620
VWidth: 0
Flags: W
LayerCount: 2
Fore
SplineSet
309.721679688 700 m 1,0,-1
 477.52734375 700 l 2,1,2
 518.209960938 700 518.209960938 700 517.786132812 660.305664062 c 0,3,4
 518.209960938 621 518.209960938 621 478.080078125 620.587890625 c 0,5,-1
 309.69921875 620.599609375 l 2,6,7
 269.209960938 621 269.209960938 621 224.874023438 580.6640625 c 0,8,9
 181.598632812 541.353515625 181.598632812 541.353515625 181.598632812 503.80859375 c 2,10,-1
 181.598632812 424.06640625 l 1,11,-1
 309.46875 424.837890625 l 1,12,-1
 309.721679688 424.837890625 l 2,13,14
 372.209960938 425 372.209960938 425 411.451171875 413.288085938 c 0,15,16
 457.209960938 400 457.209960938 400 482.018554688 367.064453125 c 0,17,18
 516.209960938 322 516.209960938 322 517.232421875 195.147460938 c 0,19,-1
 517.232421875 194.916992188 l 2,20,21
 517.209960938 104 517.209960938 104 463.80078125 51.7666015625 c 0,22,23
 411.209960938 1 411.209960938 1 310.735351562 -1.2060546875 c 0,24,25
 205.209960938 -3 205.209960938 -3 152.602539062 51.14453125 c 0,26,27
 102.209960938 103 102.209960938 103 102.209960938 194.755859375 c 0,28,-1
 102.209960938 194.836914062 l 1,29,-1
 102.209960938 503.80859375 l 2,30,31
 102.209960938 576 102.209960938 576 171.44140625 639.358398438 c 0,32,33
 238.209960938 700 238.209960938 700 309.721679688 700 c 1,0,-1
309.62890625 345.426757812 m 2,34,-1
 181.598632812 344.57421875 l 1,35,-1
 181.598632812 194.836914062 l 2,36,37
 181.771484375 135.046875 181.771484375 135.046875 209.53515625 106.51171875 c 0,38,39
 239.92578125 75.2470703125 239.92578125 75.2470703125 308.086914062 78.056640625 c 0,40,-1
 309.721679688 78.056640625 l 2,41,42
 376.99609375 78.056640625 376.99609375 78.056640625 408.502929688 108.676757812 c 0,43,44
 437.763671875 137.120117188 437.763671875 137.120117188 437.821289062 194.6875 c 0,45,46
 437.153320312 294.98828125 437.153320312 294.98828125 418.889648438 318.905273438 c 0,47,48
 409.689453125 330.997070312 409.689453125 330.997070312 388.811523438 337.21484375 c 0,49,50
 361.404296875 345.379882812 361.404296875 345.379882812 309.62890625 345.426757812 c 2,34,-1
EndSplineSet
Validated: 33
EndChar

StartChar: five
Encoding: 53 53 49
Width: 620
VWidth: 0
Flags: W
LayerCount: 2
Fore
SplineSet
142.153320312 700 m 1,0,-1
 477.846679688 700 l 2,1,2
 517.883789062 700 517.883789062 700 518.116210938 660.293945312 c 0,3,4
 517.883789062 621 517.883789062 621 478.41015625 620.588867188 c 0,5,-1
 181.848632812 620.588867188 l 1,6,-1
 181.848632812 487.956054688 l 1,7,-1
 181.848632812 487.333984375 l 2,8,9
 181.883789062 467 181.883789062 467 187.204101562 461.815429688 c 0,10,11
 195.883789062 454 195.883789062 454 226.516601562 453.293945312 c 0,12,-1
 226.758789062 453.293945312 l 2,13,14
 238.883789062 453 238.883789062 453 286.23828125 451.888671875 c 0,15,16
 317.883789062 451 317.883789062 451 344.551757812 450.495117188 c 0,17,18
 418.883789062 450 418.883789062 450 466.526367188 398.697265625 c 0,19,20
 517.883789062 343 517.883789062 343 517.55078125 242.591796875 c 0,21,22
 517.883789062 137 517.883789062 137 478.69921875 73.7734375 c 0,23,24
 432.708984375 -1.28515625 432.708984375 -1.28515625 342.538085938 -1.28515625 c 2,25,-1
 142.153320312 -1.28515625 l 2,26,27
 101.883789062 -1 101.883789062 -1 101.883789062 38.419921875 c 128,-1,28
 101.883789062 78 101.883789062 78 141.58984375 78.1259765625 c 0,29,-1
 343.390625 78.1259765625 l 1,30,-1
 344.241210938 78.1259765625 l 2,31,32
 387.883789062 78 387.883789062 78 411.008789062 115.263671875 c 0,33,34
 437.883789062 160 437.883789062 160 438.151367188 242.591796875 c 0,35,36
 437.883789062 312 437.883789062 312 407.900390625 345.115234375 c 0,37,38
 383.883789062 371 383.883789062 371 344.551757812 371.095703125 c 0,39,-1
 343.850585938 371.095703125 l 2,40,41
 322.883789062 371 322.883789062 371 284.336914062 372.48828125 c 0,42,43
 252.883789062 373 252.883789062 373 225.435546875 373.881835938 c 0,44,45
 162.883789062 375 162.883789062 375 131.8359375 404.905273438 c 0,46,47
 102.44921875 433.421875 102.44921875 433.421875 102.44921875 488.577148438 c 2,48,-1
 102.44921875 660.293945312 l 2,49,50
 102.883789062 700 102.883789062 700 142.153320312 700 c 1,0,-1
EndSplineSet
Validated: 33
EndChar

StartChar: seven
Encoding: 55 55 50
Width: 620
VWidth: 0
Flags: W
LayerCount: 2
Fore
SplineSet
143.15234375 704 m 2,0,-1
 477.483398438 704 l 2,1,2
 518.018554688 703.94140625 518.018554688 703.94140625 518.018554688 663.405273438 c 0,3,4
 518.018554688 654.446289062 518.018554688 654.446289062 514.275390625 646.357421875 c 2,5,-1
 223.471679688 18.3623046875 l 2,6,7
 212.544921875 -5.1494140625 212.544921875 -5.1494140625 186.643554688 -5.1494140625 c 0,8,9
 146.038085938 -5.1494140625 146.038085938 -5.1494140625 146.038085938 35.4453125 c 0,10,11
 146.038085938 44.3935546875 146.038085938 44.3935546875 149.81640625 52.5283203125 c 2,12,-1
 413.907226562 622.810546875 l 1,13,-1
 143.15234375 622.810546875 l 2,14,15
 101.981445312 622.810546875 101.981445312 622.810546875 101.981445312 663.405273438 c 128,-1,16
 101.981445312 704 101.981445312 704 143.15234375 704 c 2,0,-1
EndSplineSet
Validated: 1
EndChar

StartChar: eight
Encoding: 56 56 51
Width: 620
VWidth: 0
Flags: W
LayerCount: 2
Fore
SplineSet
310 704 m 132,-1,1
 393.8984375 704 393.8984375 704 454.190429688 647.814453125 c 132,-1,2
 514.470703125 591.62890625 514.470703125 591.62890625 514.4140625 513.719726562 c 4,3,4
 514.3125 415.153320312 514.3125 415.153320312 420.83984375 354.13671875 c 5,5,6
 454.111328125 329.497070312 454.111328125 329.497070312 456.515625 326.866210938 c 4,7,8
 514.4140625 263.409179688 514.4140625 263.409179688 514.4140625 191.51171875 c 4,9,10
 514.4140625 119.91015625 514.4140625 119.91015625 454.836914062 59.583984375 c 4,11,12
 392.276367188 -3.748046875 392.276367188 -3.748046875 310 -3.748046875 c 132,-1,13
 227.723632812 -3.748046875 227.723632812 -3.748046875 165.163085938 59.583984375 c 4,14,15
 105.5859375 119.91015625 105.5859375 119.91015625 105.5859375 191.51171875 c 132,-1,16
 105.5859375 263.306640625 105.5859375 263.306640625 163.870117188 326.9453125 c 4,17,18
 166.08203125 329.361328125 166.08203125 329.361328125 199.239257812 353.98828125 c 5,19,20
 105.5859375 414.9609375 105.5859375 414.9609375 105.5859375 513.788085938 c 4,21,22
 105.5859375 591.685546875 105.5859375 591.685546875 165.85546875 647.848632812 c 132,-1,0
 226.11328125 704 226.11328125 704 310 704 c 132,-1,1
310 625.7734375 m 132,-1,24
 258.01171875 625.7734375 258.01171875 625.7734375 220.90625 591.265625 c 132,-1,25
 183.80078125 556.7578125 183.80078125 556.7578125 183.80078125 513.788085938 c 4,26,27
 183.80078125 469.842773438 183.80078125 469.842773438 220.973632812 432.838867188 c 132,-1,28
 258.159179688 395.846679688 258.159179688 395.846679688 310 395.846679688 c 4,29,30
 361.103515625 395.846679688 361.103515625 395.846679688 398.640625 433.020507812 c 132,-1,31
 436.165039062 470.182617188 436.165039062 470.182617188 436.19921875 513.788085938 c 4,32,33
 436.221679688 556.723632812 436.221679688 556.723632812 399.10546875 591.25390625 c 132,-1,23
 361.9765625 625.7734375 361.9765625 625.7734375 310 625.7734375 c 132,-1,24
310 317.62109375 m 4,34,35
 261.426757812 317.62109375 261.426757812 317.62109375 221.541015625 274.083007812 c 4,36,37
 183.80078125 232.8828125 183.80078125 232.8828125 183.80078125 191.51171875 c 4,38,39
 183.80078125 152.001953125 183.80078125 152.001953125 220.849609375 114.510742188 c 4,40,41
 260.393554688 74.478515625 260.393554688 74.478515625 310 74.478515625 c 132,-1,42
 359.674804688 74.478515625 359.674804688 74.478515625 399.21875 114.510742188 c 4,43,44
 436.19921875 151.93359375 436.19921875 151.93359375 436.19921875 191.51171875 c 4,45,46
 436.19921875 233.131835938 436.19921875 233.131835938 398.764648438 274.163085938 c 4,47,48
 359.118164062 317.62109375 359.118164062 317.62109375 310 317.62109375 c 4,34,35
EndSplineSet
Validated: 33
EndChar

StartChar: nine
Encoding: 57 57 52
Width: 620
VWidth: 0
Flags: W
LayerCount: 2
Fore
SplineSet
309.579101562 704 m 0,0,1
 412.505859375 707.926757812 412.505859375 707.926757812 467.30859375 651.581054688 c 0,2,3
 517.59765625 599.864257812 517.59765625 599.864257812 517.79296875 508.038085938 c 0,4,-1
 517.79296875 507.888671875 l 1,5,-1
 517.79296875 193.051757812 l 2,6,7
 517.79296875 120.802734375 517.79296875 120.802734375 456.380859375 59.666015625 c 0,8,9
 395.2109375 -1.2060546875 395.2109375 -1.2060546875 323.387695312 -1.2060546875 c 2,10,-1
 142.46484375 -1.2060546875 l 2,11,12
 102.20703125 -1.216796875 102.20703125 -1.216796875 102.20703125 38.5 c 128,-1,13
 102.20703125 78.20703125 102.20703125 78.20703125 141.911132812 78.20703125 c 0,14,-1
 323.387695312 78.1943359375 l 2,15,16
 362.356445312 78.1943359375 362.356445312 78.1943359375 400.311523438 115.965820312 c 128,-1,17
 438.381835938 153.852539062 438.381835938 153.852539062 438.381835938 193.051757812 c 2,18,-1
 438.381835938 302.541992188 l 1,19,-1
 310.51171875 301.770507812 l 1,20,-1
 310.190429688 301.770507812 l 2,21,22
 188.228515625 301.885742188 188.228515625 301.885742188 136.650390625 376.518554688 c 0,23,24
 103.299804688 424.780273438 103.299804688 424.780273438 102.7578125 507.578125 c 0,25,-1
 102.7578125 507.80859375 l 2,26,27
 102.7578125 599.126953125 102.7578125 599.126953125 156.190429688 651.0390625 c 0,28,29
 210.465820312 703.78125 210.465820312 703.78125 309.579101562 704 c 0,0,1
311.90625 624.749023438 m 0,30,31
 242.915039062 624.668945312 242.915039062 624.668945312 211.477539062 594.118164062 c 0,32,33
 182.215820312 565.685546875 182.215820312 565.685546875 182.171875 507.958007812 c 0,34,35
 182.573242188 449.665039062 182.573242188 449.665039062 201.944335938 421.66015625 c 0,36,37
 229.845703125 381.262695312 229.845703125 381.262695312 310.26953125 381.170898438 c 2,38,-1
 438.381835938 382.0234375 l 1,39,-1
 438.381835938 507.80859375 l 2,40,41
 438.232421875 567.59765625 438.232421875 567.59765625 410.38671875 596.213867188 c 0,42,43
 379.89453125 627.559570312 379.89453125 627.559570312 311.90625 624.749023438 c 0,30,31
EndSplineSet
Validated: 33
EndChar

StartChar: colon
Encoding: 58 58 53
Width: 363
VWidth: 77
Flags: W
LayerCount: 2
Fore
SplineSet
181.481445312 546.901367188 m 128,-1,1
 207.170898438 546.901367188 207.170898438 546.901367188 218.427734375 535.637695312 c 128,-1,2
 229.685546875 524.374023438 229.685546875 524.374023438 229.685546875 498.743164062 c 128,-1,3
 229.669921875 473.060546875 229.669921875 473.060546875 218.401367188 461.8046875 c 128,-1,4
 207.131835938 450.548828125 207.131835938 450.548828125 181.5 450.548828125 c 128,-1,5
 155.8203125 450.548828125 155.8203125 450.548828125 144.567382812 461.811523438 c 128,-1,6
 133.314453125 473.075195312 133.314453125 473.075195312 133.314453125 498.715820312 c 128,-1,7
 133.314453125 524.395507812 133.314453125 524.395507812 144.577148438 535.6484375 c 128,-1,0
 155.840820312 546.901367188 155.840820312 546.901367188 181.481445312 546.901367188 c 128,-1,1
181.481445312 230.537109375 m 128,-1,9
 207.151367188 230.537109375 207.151367188 230.537109375 218.41015625 219.272460938 c 128,-1,10
 229.669921875 208.006835938 229.669921875 208.006835938 229.685546875 182.379882812 c 128,-1,11
 229.669921875 156.70703125 229.669921875 156.70703125 218.40234375 145.456054688 c 128,-1,12
 207.1328125 134.204101562 207.1328125 134.204101562 181.5 134.204101562 c 128,-1,13
 155.8203125 134.204101562 155.8203125 134.204101562 144.567382812 145.466796875 c 128,-1,14
 133.314453125 156.73046875 133.314453125 156.73046875 133.314453125 182.37109375 c 128,-1,15
 133.314453125 208.040039062 133.314453125 208.040039062 144.577148438 219.288085938 c 128,-1,8
 155.83984375 230.537109375 155.83984375 230.537109375 181.481445312 230.537109375 c 128,-1,9
EndSplineSet
Validated: 1
EndChar

StartChar: equal
Encoding: 61 61 54
Width: 684
VWidth: 0
Flags: W
LayerCount: 2
Fore
SplineSet
148.601988321 530.45703125 m 2,0,-1
 536.825445158 530.457031554 l 2,1,2
 574.92578125 530.467523289 574.92578125 530.467523289 574.92578125 493 c 128,-1,3
 574.92578125 455.542968746 574.92578125 455.542968746 537.469008542 455.542968746 c 2,4,-1
 148.600336092 455.555663758 l 2,5,6
 110.5 455.545172023 110.5 455.545172023 110.5 493 c 128,-1,7
 110.5 530.45703125 110.5 530.45703125 148.601988321 530.45703125 c 2,0,-1
148.602539062 300.244140625 m 2,8,-1
 536.823242188 300.244140625 l 2,9,10
 574.92578125 300.244140625 574.92578125 300.244140625 574.92578125 262.787109375 c 128,-1,11
 574.92578125 225.330078125 574.92578125 225.330078125 537.46875 225.330078125 c 2,12,-1
 148.602539062 225.330078125 l 2,13,14
 110.5 225.330078125 110.5 225.330078125 110.5 262.787109375 c 128,-1,15
 110.5 300.244140625 110.5 300.244140625 148.602539062 300.244140625 c 2,8,-1
EndSplineSet
Validated: 33
EndChar

StartChar: percent
Encoding: 37 37 55
Width: 770
VWidth: 0
Flags: W
LayerCount: 2
Fore
SplineSet
596.225585938 695.592773438 m 0,0,1
 613.23828125 695.583007812 613.23828125 695.583007812 625.278320312 683.536132812 c 128,-1,2
 637.318359375 671.489257812 637.318359375 671.489257812 637.318359375 654.477539062 c 0,3,4
 637.318359375 641.084960938 637.318359375 641.084960938 629.432617188 630.264648438 c 2,5,-1
 198.501953125 20.955078125 l 2,6,7
 186.255859375 3.0654296875 186.255859375 3.0654296875 164.575195312 3.0654296875 c 0,8,9
 147.553710938 3.0654296875 147.553710938 3.0654296875 135.506835938 15.1123046875 c 128,-1,10
 123.459960938 27.158203125 123.459960938 27.158203125 123.459960938 44.1806640625 c 0,11,12
 123.459960938 57.5966796875 123.459960938 57.5966796875 131.373046875 68.4306640625 c 2,13,-1
 562.303710938 677.741210938 l 2,14,15
 574.555664062 695.592773438 574.555664062 695.592773438 596.225585938 695.592773438 c 0,0,1
188.278320312 676.17578125 m 128,-1,17
 245.91796875 676.17578125 245.91796875 676.17578125 286.236328125 635.857421875 c 128,-1,18
 326.5546875 595.540039062 326.5546875 595.540039062 326.5546875 537.8984375 c 128,-1,19
 326.5546875 480.256835938 326.5546875 480.256835938 286.236328125 439.939453125 c 128,-1,20
 245.918945312 399.62109375 245.918945312 399.62109375 188.27734375 399.62109375 c 128,-1,21
 130.635742188 399.62109375 130.635742188 399.62109375 90.318359375 439.939453125 c 128,-1,22
 50 480.256835938 50 480.256835938 50 537.8984375 c 128,-1,23
 50 595.540039062 50 595.540039062 90.318359375 635.857421875 c 128,-1,16
 130.63671875 676.17578125 130.63671875 676.17578125 188.278320312 676.17578125 c 128,-1,17
188.278320312 594.470703125 m 128,-1,25
 165.2109375 594.470703125 165.2109375 594.470703125 148.458984375 577.716796875 c 128,-1,26
 131.70703125 560.96484375 131.70703125 560.96484375 131.70703125 537.8984375 c 128,-1,27
 131.70703125 514.831054688 131.70703125 514.831054688 148.458984375 498.079101562 c 128,-1,28
 165.209960938 481.327148438 165.209960938 481.327148438 188.27734375 481.327148438 c 128,-1,29
 211.344726562 481.327148438 211.344726562 481.327148438 228.095703125 498.079101562 c 128,-1,30
 244.84765625 514.831054688 244.84765625 514.831054688 244.84765625 537.8984375 c 128,-1,31
 244.84765625 560.96484375 244.84765625 560.96484375 228.095703125 577.716796875 c 128,-1,24
 211.34375 594.470703125 211.34375 594.470703125 188.278320312 594.470703125 c 128,-1,25
572.529296875 299.075195312 m 128,-1,33
 630.168945312 299.075195312 630.168945312 299.075195312 670.487304688 258.756835938 c 128,-1,34
 710.805664062 218.439453125 710.805664062 218.439453125 710.805664062 160.797851562 c 128,-1,35
 710.805664062 103.15625 710.805664062 103.15625 670.487304688 62.8388671875 c 128,-1,36
 630.169921875 22.5205078125 630.169921875 22.5205078125 572.528320312 22.5205078125 c 128,-1,37
 514.88671875 22.5205078125 514.88671875 22.5205078125 474.569335938 62.8388671875 c 128,-1,38
 434.251953125 103.15625 434.251953125 103.15625 434.251953125 160.797851562 c 128,-1,39
 434.251953125 218.439453125 434.251953125 218.439453125 474.569335938 258.756835938 c 128,-1,32
 514.889648438 299.075195312 514.889648438 299.075195312 572.529296875 299.075195312 c 128,-1,33
572.529296875 217.370117188 m 128,-1,41
 549.463867188 217.370117188 549.463867188 217.370117188 532.709960938 200.616210938 c 128,-1,42
 515.958007812 183.864257812 515.958007812 183.864257812 515.958007812 160.796875 c 128,-1,43
 515.958007812 137.73046875 515.958007812 137.73046875 532.709960938 120.978515625 c 128,-1,44
 549.461914062 104.2265625 549.461914062 104.2265625 572.529296875 104.2265625 c 128,-1,45
 595.595703125 104.2265625 595.595703125 104.2265625 612.34765625 120.978515625 c 128,-1,46
 629.099609375 137.73046875 629.099609375 137.73046875 629.099609375 160.796875 c 128,-1,47
 629.099609375 183.864257812 629.099609375 183.864257812 612.34765625 200.616210938 c 128,-1,40
 595.59375 217.370117188 595.59375 217.370117188 572.529296875 217.370117188 c 128,-1,41
EndSplineSet
EndChar

StartChar: question
Encoding: 63 63 56
Width: 473
VWidth: 0
Flags: W
LayerCount: 2
Fore
SplineSet
61.7900390625 700.083007812 m 2,0,-1
 274.94921875 700.081054688 l 2,1,2
 344.754882812 700.081054688 344.754882812 700.081054688 386.888671875 650.373046875 c 0,3,4
 423.609375 607.05078125 423.609375 607.05078125 423.71484375 545.856445312 c 128,-1,5
 423.821289062 484.590820312 423.821289062 484.590820312 387.1640625 441.245117188 c 0,6,7
 345.09765625 391.500976562 345.09765625 391.500976562 275.091796875 391.500976562 c 0,8,9
 230.693359375 391.500976562 230.693359375 391.500976562 207.904296875 380.041015625 c 0,10,11
 193.168945312 372.630859375 193.168945312 372.630859375 187.108398438 358.630859375 c 0,12,13
 184.72265625 353.119140625 184.72265625 353.119140625 183.260742188 345.899414062 c 0,14,15
 181.740234375 338.395507812 181.740234375 338.395507812 181.219726562 327.51953125 c 0,16,17
 180.669921875 316.049804688 180.669921875 316.049804688 180.57421875 308.065429688 c 128,-1,18
 180.477539062 300.02734375 180.477539062 300.02734375 180.69140625 284.084960938 c 128,-1,19
 180.909179688 267.944335938 180.909179688 267.944335938 180.909179688 260.541015625 c 2,20,-1
 180.911132812 199.809570312 l 2,21,22
 180.911132812 184.66796875 180.911132812 184.66796875 170.198242188 173.95703125 c 128,-1,23
 159.486328125 163.244140625 159.486328125 163.244140625 144.345703125 163.244140625 c 128,-1,24
 129.204101562 163.244140625 129.204101562 163.244140625 118.493164062 173.956054688 c 128,-1,25
 107.782226562 184.666015625 107.782226562 184.666015625 107.782226562 200.134765625 c 2,26,-1
 107.782226562 260.541015625 l 2,27,28
 107.782226562 267.036132812 107.782226562 267.036132812 107.08984375 287.87109375 c 0,29,30
 106.383789062 309.1328125 106.383789062 309.1328125 106.595703125 321.146484375 c 0,31,32
 106.81640625 333.6484375 106.81640625 333.6484375 109.942382812 352.50390625 c 0,33,34
 113.151367188 371.85546875 113.151367188 371.85546875 119.999023438 387.67578125 c 0,35,36
 136.603515625 426.0390625 136.603515625 426.0390625 175.051757812 445.373046875 c 128,-1,37
 213.336914062 464.625 213.336914062 464.625 275.091796875 464.625 c 0,38,39
 311.166992188 464.625 311.166992188 464.625 331.326171875 488.463867188 c 0,40,41
 350.651367188 511.317382812 350.651367188 511.317382812 350.591796875 545.729492188 c 128,-1,42
 350.532226562 580.169921875 350.532226562 580.169921875 331.10546875 603.087890625 c 0,43,44
 310.873046875 626.958007812 310.873046875 626.958007812 274.94921875 626.958007812 c 2,45,-1
 61.5654296875 626.954101562 l 2,46,47
 46.423828125 626.954101562 46.423828125 626.954101562 35.712890625 637.666992188 c 128,-1,48
 25 648.37890625 25 648.37890625 25 663.51953125 c 128,-1,49
 25 678.661132812 25 678.661132812 35.7119140625 689.372070312 c 128,-1,50
 46.421875 700.083007812 46.421875 700.083007812 61.7900390625 700.083007812 c 2,0,-1
144.2421875 72.5380859375 m 128,-1,52
 159.456054688 72.5380859375 159.456054688 72.5380859375 170.220703125 61.7734375 c 128,-1,53
 180.986328125 51.0087890625 180.986328125 51.0087890625 180.986328125 35.794921875 c 128,-1,54
 180.986328125 20.578125 180.986328125 20.578125 170.221679688 9.814453125 c 128,-1,55
 159.458007812 -0.951171875 159.458007812 -0.951171875 144.2421875 -0.9521484375 c 128,-1,56
 129.026367188 -0.9521484375 129.026367188 -0.9521484375 118.260742188 9.8125 c 128,-1,57
 107.49609375 20.5771484375 107.49609375 20.5771484375 107.49609375 35.7919921875 c 128,-1,58
 107.49609375 51.009765625 107.49609375 51.009765625 118.260742188 61.7734375 c 128,-1,51
 129.026367188 72.5380859375 129.026367188 72.5380859375 144.2421875 72.5380859375 c 128,-1,52
EndSplineSet
Validated: 33
EndChar

StartChar: uni030C
Encoding: 780 780 57
Width: 1164
Flags: W
LayerCount: 2
Fore
SplineSet
878.5 904 m 260,0,1
 889.5 904 889.5 904 897.5 896 c 6,2,-1
 1069.5 724 l 6,3,4
 1088.5 705 1088.5 705 1069.5 686 c 6,5,-1
 790.5 407 l 5,6,-1
 1074.5 123 l 6,7,8
 1094.5 104 1094.5 104 1074.5 84 c 6,9,-1
 903.5 -87 l 6,10,11
 884.5 -106 884.5 -106 865.5 -87 c 6,12,-1
 580.5 198 l 5,13,-1
 298.5 -84 l 6,14,15
 279.5 -103 279.5 -103 260.5 -84 c 6,16,-1
 89.5 87 l 6,17,18
 70.5 106 70.5 106 89.5 125 c 6,19,-1
 371.5 407 l 5,20,-1
 95.5 683 l 6,21,22
 76.5 702 76.5 702 95.5 721 c 6,23,-1
 266.5 892 l 6,24,25
 286.5 912 286.5 912 305.5 892 c 6,26,-1
 580.5 617 l 5,27,-1
 859.5 896 l 6,28,29
 867.5 904 867.5 904 878.5 904 c 260,0,1
EndSplineSet
Validated: 33
EndChar

StartChar: uni030D
Encoding: 781 781 58
Width: 1164
Flags: W
LayerCount: 2
Fore
SplineSet
878.5 904 m 260,0,1
 889.5 904 889.5 904 897.5 896 c 6,2,-1
 1069.5 724 l 6,3,4
 1088.5 705 1088.5 705 1069.5 686 c 6,5,-1
 790.5 407 l 5,6,-1
 1074.5 123 l 6,7,8
 1094.5 104 1094.5 104 1074.5 84 c 6,9,-1
 903.5 -87 l 6,10,11
 884.5 -106 884.5 -106 865.5 -87 c 6,12,-1
 580.5 198 l 5,13,-1
 298.5 -84 l 6,14,15
 279.5 -103 279.5 -103 260.5 -84 c 6,16,-1
 89.5 87 l 6,17,18
 70.5 106 70.5 106 89.5 125 c 6,19,-1
 371.5 407 l 5,20,-1
 95.5 683 l 6,21,22
 76.5 702 76.5 702 95.5 721 c 6,23,-1
 266.5 892 l 6,24,25
 286.5 912 286.5 912 305.5 892 c 6,26,-1
 580.5 617 l 5,27,-1
 859.5 896 l 6,28,29
 867.5 904 867.5 904 878.5 904 c 260,0,1
EndSplineSet
Validated: 33
EndChar

StartChar: uni030E
Encoding: 782 782 59
Width: 1164
Flags: W
LayerCount: 2
Fore
SplineSet
878.5 904 m 260,0,1
 889.5 904 889.5 904 897.5 896 c 6,2,-1
 1069.5 724 l 6,3,4
 1088.5 705 1088.5 705 1069.5 686 c 6,5,-1
 790.5 407 l 5,6,-1
 1074.5 123 l 6,7,8
 1094.5 104 1094.5 104 1074.5 84 c 6,9,-1
 903.5 -87 l 6,10,11
 884.5 -106 884.5 -106 865.5 -87 c 6,12,-1
 580.5 198 l 5,13,-1
 298.5 -84 l 6,14,15
 279.5 -103 279.5 -103 260.5 -84 c 6,16,-1
 89.5 87 l 6,17,18
 70.5 106 70.5 106 89.5 125 c 6,19,-1
 371.5 407 l 5,20,-1
 95.5 683 l 6,21,22
 76.5 702 76.5 702 95.5 721 c 6,23,-1
 266.5 892 l 6,24,25
 286.5 912 286.5 912 305.5 892 c 6,26,-1
 580.5 617 l 5,27,-1
 859.5 896 l 6,28,29
 867.5 904 867.5 904 878.5 904 c 260,0,1
EndSplineSet
Validated: 33
EndChar

StartChar: Ccaron
Encoding: 268 268 60
Width: 1179
VWidth: 0
Flags: W
LayerCount: 2
Fore
SplineSet
1098.65820312 790.047851562 m 4,0,1
 1097.65820312 780.255859375 1097.65820312 780.255859375 1087.82128906 763.491210938 c 4,2,3
 1039.5703125 681.233398438 1039.5703125 681.233398438 806.58203125 334.3515625 c 4,4,5
 598.559570312 24.646484375 598.559570312 24.646484375 549.979492188 -36.8798828125 c 132,-1,6
 501.400390625 -98.40625 501.400390625 -98.40625 464.8515625 -98.4599609375 c 4,7,8
 421.5234375 -98.533203125 421.5234375 -98.533203125 390.076171875 -64.1220703125 c 132,-1,9
 358.629882812 -29.7109375 358.629882812 -29.7109375 241.2421875 146.2109375 c 4,10,11
 142.569335938 294.16015625 142.569335938 294.16015625 87.3623046875 393.759765625 c 4,12,13
 71.9423828125 421.584960938 71.9423828125 421.584960938 88.8203125 453.24609375 c 132,-1,14
 105.698242188 484.908203125 105.698242188 484.908203125 133.380859375 501.260742188 c 4,15,16
 158.9921875 516.389648438 158.9921875 516.389648438 187.528320312 517.487304688 c 132,-1,17
 216.064453125 518.584960938 216.064453125 518.584960938 243.772460938 498.302734375 c 4,18,19
 278.860351562 466.43359375 278.860351562 466.43359375 361.311523438 341.803710938 c 4,20,21
 455.34375 199.669921875 455.34375 199.669921875 460.837890625 201.432617188 c 132,-1,22
 466.340820312 203.201171875 466.340820312 203.201171875 679.177734375 520.5625 c 4,23,24
 890.479492188 835.610351562 890.479492188 835.610351562 908.767578125 856.5234375 c 4,25,26
 935.124023438 886.676757812 935.124023438 886.676757812 948.453125 893.939453125 c 132,-1,27
 961.78125 901.202148438 961.78125 901.202148438 987.262695312 901.721679688 c 4,28,29
 1040.47949219 902.801757812 1040.47949219 902.801757812 1067.75878906 876.439453125 c 4,30,31
 1081.29296875 863.359375 1081.29296875 863.359375 1086.92480469 856.186523438 c 132,-1,32
 1092.55664062 849.014648438 1092.55664062 849.014648438 1096.88574219 831.88671875 c 132,-1,33
 1101.21386719 814.759765625 1101.21386719 814.759765625 1098.65820312 790.047851562 c 4,0,1
EndSplineSet
Validated: 33
EndChar

StartChar: ccaron
Encoding: 269 269 61
Width: 962
VWidth: 0
Flags: W
LayerCount: 2
Fore
SplineSet
722.470703125 885.9609375 m 5,0,1
 765.876953125 914.754882812 765.876953125 914.754882812 828.194335938 888.515625 c 4,2,3
 863.55078125 873.627929688 863.55078125 873.627929688 876.670898438 832.810546875 c 132,-1,4
 889.791992188 791.993164062 889.791992188 791.993164062 871.349609375 762.286132812 c 4,5,6
 850.251953125 718.500976562 850.251953125 718.500976562 751.298828125 600.546875 c 4,7,8
 681.740234375 516.6328125 681.740234375 516.6328125 593.879882812 404.38671875 c 5,9,10
 625.040039062 361.748046875 625.040039062 361.748046875 722.348632812 238.190429688 c 132,-1,11
 819.657226562 114.6328125 819.657226562 114.6328125 868.21875 42.1962890625 c 4,12,13
 876.0703125 30.4853515625 876.0703125 30.4853515625 877.750976562 7.5400390625 c 132,-1,14
 879.432617188 -15.404296875 879.432617188 -15.404296875 874.333007812 -32.5380859375 c 4,15,16
 861.446289062 -78.1123046875 861.446289062 -78.1123046875 806.526367188 -92.466796875 c 4,17,18
 769.966796875 -105.010742188 769.966796875 -105.010742188 734.19140625 -95.611328125 c 132,-1,19
 698.416015625 -86.2109375 698.416015625 -86.2109375 669.607421875 -48.5263671875 c 4,20,21
 619.6953125 19.73046875 619.6953125 19.73046875 460.795898438 230.602539062 c 5,22,23
 350.911132812 84.1513671875 350.911132812 84.1513671875 244.536132812 -65.3076171875 c 4,24,25
 229.254882812 -86.779296875 229.254882812 -86.779296875 199.307617188 -91.0400390625 c 132,-1,26
 169.360351562 -95.30078125 169.360351562 -95.30078125 155.06640625 -85.5703125 c 4,27,28
 135.358398438 -76.037109375 135.358398438 -76.037109375 125.08984375 -67.357421875 c 132,-1,29
 114.821289062 -58.6767578125 114.821289062 -58.6767578125 98.4228515625 -36.373046875 c 4,30,31
 81.64453125 -13.5615234375 81.64453125 -13.5615234375 80.099609375 25.4619140625 c 132,-1,32
 78.5556640625 64.4853515625 78.5556640625 64.4853515625 101.044921875 99.265625 c 4,33,34
 144.328125 156.061523438 144.328125 156.061523438 329.865234375 406.545898438 c 5,35,36
 277.4609375 477.9140625 277.4609375 477.9140625 250.518554688 516.196289062 c 4,37,38
 209.421875 574.6484375 209.421875 574.6484375 178.934570312 622.579101562 c 132,-1,39
 148.448242188 670.509765625 148.448242188 670.509765625 136.23046875 691.935546875 c 132,-1,40
 124.012695312 713.361328125 124.012695312 713.361328125 92.119140625 770.90625 c 4,41,42
 76.98046875 803.5078125 76.98046875 803.5078125 89.91015625 837.798828125 c 132,-1,43
 102.838867188 872.090820312 102.838867188 872.090820312 129.291015625 887.715820312 c 4,44,45
 150.834960938 902.619140625 150.834960938 902.619140625 190.102539062 901.275390625 c 132,-1,46
 229.37109375 899.931640625 229.37109375 899.931640625 253.071289062 878.401367188 c 4,47,48
 289.301757812 845.48828125 289.301757812 845.48828125 374 717.451171875 c 4,49,50
 407.083007812 668.088867188 407.083007812 668.088867188 464.62109375 585.541015625 c 5,51,52
 515.391601562 651.77734375 515.391601562 651.77734375 523.28125 661.750976562 c 4,53,54
 567.598632812 717.721679688 567.598632812 717.721679688 605.047851562 760.7265625 c 132,-1,55
 642.497070312 803.73046875 642.497070312 803.73046875 659.169921875 821.10546875 c 132,-1,56
 675.842773438 838.48046875 675.842773438 838.48046875 722.470703125 885.9609375 c 5,0,1
EndSplineSet
Validated: 33
EndChar

StartChar: uni030F
Encoding: 783 783 62
Width: 1164
Flags: W
LayerCount: 2
Fore
SplineSet
878.5 904 m 260,0,1
 889.5 904 889.5 904 897.5 896 c 6,2,-1
 1069.5 724 l 6,3,4
 1088.5 705 1088.5 705 1069.5 686 c 6,5,-1
 790.5 407 l 5,6,-1
 1074.5 123 l 6,7,8
 1094.5 104 1094.5 104 1074.5 84 c 6,9,-1
 903.5 -87 l 6,10,11
 884.5 -106 884.5 -106 865.5 -87 c 6,12,-1
 580.5 198 l 5,13,-1
 298.5 -84 l 6,14,15
 279.5 -103 279.5 -103 260.5 -84 c 6,16,-1
 89.5 87 l 6,17,18
 70.5 106 70.5 106 89.5 125 c 6,19,-1
 371.5 407 l 5,20,-1
 95.5 683 l 6,21,22
 76.5 702 76.5 702 95.5 721 c 6,23,-1
 266.5 892 l 6,24,25
 286.5 912 286.5 912 305.5 892 c 6,26,-1
 580.5 617 l 5,27,-1
 859.5 896 l 6,28,29
 867.5 904 867.5 904 878.5 904 c 260,0,1
EndSplineSet
Validated: 33
EndChar

StartChar: uni024F
Encoding: 591 591 63
Width: 873
Flags: W
LayerCount: 2
Fore
SplineSet
140 896 m 2,0,-1
 586 896 l 1,1,-1
 585 681 l 2,2,3
 585 651 585 651 614 651 c 2,4,-1
 793 650 l 1,5,-1
 793 -30 l 2,6,7
 793 -55 793 -55 775.5 -72.5 c 128,-1,8
 758 -90 758 -90 733 -90 c 2,9,-1
 140 -90 l 2,10,11
 115 -90 115 -90 97.5 -72.5 c 128,-1,12
 80 -55 80 -55 80 -30 c 2,13,-1
 80 836 l 2,14,15
 80 861 80 861 97.5 878.5 c 128,-1,16
 115 896 115 896 140 896 c 2,0,-1
645 885 m 1,17,18
 653 880 653 880 658 874 c 2,19,-1
 780 722 l 2,20,21
 784 718 784 718 787 710 c 1,22,-1
 645 711 l 1,23,-1
 645 885 l 1,17,18
EndSplineSet
Validated: 1
EndChar

StartChar: uni0250
Encoding: 592 592 64
Width: 1220
Flags: W
LayerCount: 2
Fore
SplineSet
134.400390625 800.700195312 m 2,0,-1
 413.600585938 800.700195312 l 2,1,2
 436 800.700195312 436 800.700195312 452.400390625 784.700195312 c 128,-1,3
 468.80078125 768.700195312 468.80078125 768.700195312 468.80078125 745.5 c 2,4,-1
 468.80078125 724.700195312 l 1,5,-1
 881.600585938 724.700195312 l 2,6,7
 904.80078125 724.700195312 904.80078125 724.700195312 920.80078125 708.700195312 c 128,-1,8
 936.80078125 692.700195312 936.80078125 692.700195312 936.80078125 670.299804688 c 2,9,-1
 936.80078125 619.099609375 l 1,10,-1
 390.400390625 619.099609375 l 2,11,12
 373.139648438 619.099609375 373.139648438 619.099609375 366.400390625 604.700195312 c 2,13,-1
 126.400390625 91.900390625 l 2,14,15
 115.200195312 67.099609375 115.200195312 67.099609375 140 55.5 c 0,16,17
 164.47265625 44.0537109375 164.47265625 44.0537109375 176 68.7001953125 c 2,18,-1
 408 564.700195312 l 1,19,-1
 1140.80078125 563.900390625 l 1,20,-1
 904 39.099609375 l 2,21,22
 903.200195312 35.900390625 903.200195312 35.900390625 900.80078125 30.2998046875 c 0,23,24
 889.600585938 6.2998046875 889.600585938 6.2998046875 868.80078125 6.2998046875 c 2,25,-1
 134.400390625 6.2998046875 l 2,26,27
 112 6.2998046875 112 6.2998046875 96 22.2998046875 c 128,-1,28
 80 38.2998046875 80 38.2998046875 80 60.7001953125 c 2,29,-1
 80 659.900390625 l 1,30,-1
 80 670.299804688 l 1,31,-1
 80 745.5 l 2,32,33
 80 768.700195312 80 768.700195312 96 784.700195312 c 128,-1,34
 112 800.700195312 112 800.700195312 134.400390625 800.700195312 c 2,0,-1
EndSplineSet
Validated: 33
EndChar

StartChar: uni0251
Encoding: 593 593 65
Width: 1097
Flags: W
LayerCount: 2
Fore
SplineSet
110 900 m 2,0,-1
 987 900 l 2,1,2
 1017 900 1017 900 1017 870 c 2,3,-1
 1017 -64 l 2,4,5
 1017 -94 1017 -94 987 -94 c 2,6,-1
 826 -94 l 1,7,-1
 826 115 l 2,8,9
 826 133 826 133 810 142 c 0,10,11
 802 148 802 148 792 148 c 2,12,-1
 301 148 l 2,13,14
 291 148 291 148 283 142 c 0,15,16
 268 133 268 133 268 115 c 2,17,-1
 268 -94 l 1,18,-1
 200 -94 l 2,19,20
 188 -94 188 -94 179 -85 c 2,21,-1
 89 3 l 2,22,23
 80 12 80 12 80 24 c 2,24,-1
 80 870 l 2,25,26
 80 900 80 900 110 900 c 2,0,-1
294 781 m 2,27,28
 279 781 279 781 268 770.5 c 128,-1,29
 257 760 257 760 257 745 c 2,30,-1
 257 304 l 2,31,32
 257 289 257 289 268 278.5 c 128,-1,33
 279 268 279 268 294 268 c 2,34,-1
 803 268 l 2,35,36
 818 268 818 268 828.5 278.5 c 128,-1,37
 839 289 839 289 839 304 c 2,38,-1
 839 745 l 2,39,40
 839 760 839 760 828.5 770.5 c 128,-1,41
 818 781 818 781 803 781 c 2,42,-1
 294 781 l 2,27,28
318 721 m 1,43,-1
 779 721 l 1,44,-1
 779 328 l 1,45,-1
 318 328 l 1,46,-1
 318 721 l 1,43,-1
328 87 m 1,47,-1
 765 87 l 1,48,-1
 765 -94 l 1,49,-1
 328 -94 l 1,50,-1
 328 87 l 1,47,-1
403 54 m 2,51,52
 385 54 385 54 385 36 c 2,53,-1
 385 -54 l 2,54,55
 385 -72 385 -72 403 -72 c 2,56,-1
 430 -72 l 2,57,58
 448 -72 448 -72 448 -54 c 2,59,-1
 448 36 l 2,60,61
 448 54 448 54 430 54 c 2,62,-1
 403 54 l 2,51,52
EndSplineSet
Validated: 1
EndChar

StartChar: uni02CC
Encoding: 716 716 66
Width: 1181
VWidth: 0
Flags: W
LayerCount: 2
Fore
SplineSet
591.522460938 898.875 m 0,0,1
 600.598632812 898.541992188 600.598632812 898.541992188 607.298828125 892.422851562 c 2,2,-1
 1092.63183594 450.051757812 l 2,3,4
 1105.18066406 438.600585938 1105.18066406 438.600585938 1099.06933594 422.779296875 c 128,-1,5
 1092.95800781 406.95703125 1092.95800781 406.95703125 1075.97851562 406.881835938 c 2,6,-1
 915.924804688 406.881835938 l 1,7,-1
 915.924804688 -74.34375 l 2,8,9
 915.931640625 -84.638671875 915.931640625 -84.638671875 908.65234375 -91.9189453125 c 128,-1,10
 901.373046875 -99.1982421875 901.373046875 -99.1982421875 891.079101562 -99.1904296875 c 2,11,-1
 705.543945312 -99.1904296875 l 2,12,13
 695.25 -99.197265625 695.25 -99.197265625 687.969726562 -91.9169921875 c 128,-1,14
 680.69140625 -84.638671875 680.69140625 -84.638671875 680.697265625 -74.34375 c 2,15,-1
 680.697265625 187.7734375 l 1,16,-1
 500.365234375 187.7734375 l 1,17,-1
 500.365234375 -74.34375 l 2,18,19
 500.372070312 -84.638671875 500.372070312 -84.638671875 493.091796875 -91.9189453125 c 128,-1,20
 485.813476562 -99.1982421875 485.813476562 -99.1982421875 475.51953125 -99.1904296875 c 2,21,-1
 289.983398438 -99.1904296875 l 2,22,23
 279.688476562 -99.197265625 279.688476562 -99.197265625 272.41015625 -91.9169921875 c 128,-1,24
 265.130859375 -84.638671875 265.130859375 -84.638671875 265.137695312 -74.34375 c 2,25,-1
 265.137695312 406.881835938 l 1,26,-1
 105.083984375 406.881835938 l 2,27,28
 88.1240234375 406.938476562 88.1240234375 406.938476562 82.0087890625 422.759765625 c 128,-1,29
 75.8916015625 438.578125 75.8916015625 438.578125 88.40234375 450.028320312 c 2,30,-1
 573.78515625 892.400390625 l 2,31,32
 581.3046875 899.26953125 581.3046875 899.26953125 591.522460938 898.875 c 0,0,1
EndSplineSet
Validated: 1
EndChar

StartChar: uni02CD
Encoding: 717 717 67
Width: 1177
VWidth: 0
Flags: W
LayerCount: 2
Fore
SplineSet
589.715820312 896.624023438 m 0,0,1
 598.736328125 896.223632812 598.736328125 896.223632812 605.380859375 890.151367188 c 2,2,-1
 1089.10546875 449.35546875 l 2,3,4
 1101.57226562 437.943359375 1101.57226562 437.943359375 1095.47753906 422.178710938 c 128,-1,5
 1089.3828125 406.4140625 1089.3828125 406.4140625 1072.48242188 406.359375 c 2,6,-1
 912.984375 406.359375 l 1,7,-1
 912.984375 -73.2412109375 l 2,8,9
 912.991210938 -83.4990234375 912.991210938 -83.4990234375 905.737304688 -90.7529296875 c 128,-1,10
 898.483398438 -98.0078125 898.483398438 -98.0078125 888.225585938 -98 c 2,11,-1
 703.2734375 -98 l 2,12,13
 693.015625 -98.0068359375 693.015625 -98.0068359375 685.76171875 -90.7529296875 c 128,-1,14
 678.5078125 -83.4990234375 678.5078125 -83.4990234375 678.515625 -73.2412109375 c 2,15,-1
 678.515625 188.022460938 l 1,16,-1
 498.893554688 188.022460938 l 1,17,-1
 498.893554688 -73.2412109375 l 2,18,19
 498.900390625 -83.5 498.900390625 -83.5 491.646484375 -90.75390625 c 128,-1,20
 484.392578125 -98.0078125 484.392578125 -98.0078125 474.134765625 -98 c 2,21,-1
 289.181640625 -98 l 2,22,23
 278.924804688 -98.0068359375 278.924804688 -98.0068359375 271.670898438 -90.7529296875 c 128,-1,24
 264.416992188 -83.4990234375 264.416992188 -83.4990234375 264.423828125 -73.2412109375 c 2,25,-1
 264.423828125 406.359375 l 1,26,-1
 104.995117188 406.359375 l 2,27,28
 88.0947265625 406.416992188 88.0947265625 406.416992188 82.0009765625 422.180664062 c 128,-1,29
 75.90625 437.943359375 75.90625 437.943359375 88.373046875 449.35546875 c 2,30,-1
 227.311523438 576.021484375 l 1,31,-1
 227.311523438 857.55859375 l 2,32,33
 227.3046875 867.81640625 227.3046875 867.81640625 234.55859375 875.0703125 c 128,-1,34
 241.8125 882.32421875 241.8125 882.32421875 252.0703125 882.317382812 c 2,35,-1
 372.774414062 882.317382812 l 2,36,37
 383.01171875 882.293945312 383.01171875 882.293945312 390.241210938 875.044921875 c 128,-1,38
 397.469726562 867.794921875 397.469726562 867.794921875 397.462890625 857.55859375 c 2,39,-1
 397.462890625 731.098632812 l 1,40,-1
 572.041015625 890.171875 l 2,41,42
 579.53515625 897.016601562 579.53515625 897.016601562 589.715820312 896.624023438 c 0,0,1
EndSplineSet
Validated: 1
EndChar

StartChar: uni02CE
Encoding: 718 718 68
Width: 1274
VWidth: 0
Flags: W
LayerCount: 2
Fore
SplineSet
637.0234375 899.04296875 m 128,-1,1
 648.08984375 899.008789062 648.08984375 899.008789062 657.20703125 892.7265625 c 2,2,-1
 1177.70800781 533.990234375 l 2,3,4
 1194.42382812 523.47265625 1194.42382812 523.47265625 1194.42382812 503.725585938 c 0,5,6
 1194.42382812 488.921875 1194.42382812 488.921875 1183.94726562 478.4453125 c 128,-1,7
 1173.47070312 467.96875 1173.47070312 467.96875 1158.66699219 467.96875 c 0,8,9
 1146.73242188 467.96875 1146.73242188 467.96875 1137.18945312 475.137695312 c 2,10,-1
 636.947265625 819.848632812 l 1,11,-1
 136.705078125 475.137695312 l 2,12,13
 127.326171875 468.359375 127.326171875 468.359375 115.756835938 468.359375 c 0,14,15
 100.953125 468.359375 100.953125 468.359375 90.4765625 478.8359375 c 128,-1,16
 80 489.3125 80 489.3125 80 504.116210938 c 0,17,18
 80 523.395507812 80 523.395507812 96.1083984375 533.990234375 c 2,19,-1
 616.610351562 892.7265625 l 2,20,0
 625.7734375 899.04296875 625.7734375 899.04296875 637.0234375 899.04296875 c 128,-1,1
322.354492188 504.018554688 m 1,21,-1
 322.870117188 504.022460938 l 2,22,23
 337.673828125 504.022460938 337.673828125 504.022460938 348.150390625 493.545898438 c 128,-1,24
 358.626953125 483.069335938 358.626953125 483.069335938 358.626953125 468.265625 c 2,25,-1
 358.623046875 467.737304688 l 1,26,-1
 358.623046875 -25.2626953125 l 1,27,-1
 518.546875 -25.2626953125 l 1,28,-1
 518.546875 238.883789062 l 2,29,30
 518.552734375 253.67578125 518.552734375 253.67578125 529.025390625 264.1484375 c 128,-1,31
 539.499023438 274.62109375 539.499023438 274.62109375 554.290039062 274.625976562 c 2,32,-1
 719.6015625 274.625976562 l 2,33,34
 734.393554688 274.62109375 734.393554688 274.62109375 744.866210938 264.1484375 c 128,-1,35
 755.338867188 253.67578125 755.338867188 253.67578125 755.344726562 238.883789062 c 2,36,-1
 755.344726562 -25.2626953125 l 1,37,-1
 915.268554688 -25.2626953125 l 1,38,-1
 915.268554688 467.737304688 l 2,39,40
 915.254882812 468.204101562 915.254882812 468.204101562 915.254882812 468.7265625 c 0,41,42
 915.254882812 483.530273438 915.254882812 483.530273438 925.731445312 494.006835938 c 128,-1,43
 936.208007812 504.483398438 936.208007812 504.483398438 951.010742188 504.483398438 c 128,-1,44
 965.814453125 504.483398438 965.814453125 504.483398438 976.291015625 494.006835938 c 128,-1,45
 986.767578125 483.530273438 986.767578125 483.530273438 986.767578125 468.7265625 c 0,46,47
 986.767578125 468.282226562 986.767578125 468.282226562 986.754882812 467.737304688 c 2,48,-1
 986.754882812 -61.0888671875 l 2,49,50
 986.749023438 -75.880859375 986.749023438 -75.880859375 976.275390625 -86.3544921875 c 128,-1,51
 965.802734375 -96.8271484375 965.802734375 -96.8271484375 951.010742188 -96.83203125 c 2,52,-1
 719.607421875 -96.83203125 l 2,53,54
 704.815429688 -96.8271484375 704.815429688 -96.8271484375 694.341796875 -86.3544921875 c 128,-1,55
 683.869140625 -75.8818359375 683.869140625 -75.8818359375 683.86328125 -61.0888671875 c 2,56,-1
 683.86328125 203.056640625 l 1,57,-1
 590.038085938 203.056640625 l 1,58,-1
 590.038085938 -61.0888671875 l 2,59,60
 590.033203125 -75.880859375 590.033203125 -75.880859375 579.560546875 -86.3544921875 c 128,-1,61
 569.087890625 -96.8271484375 569.087890625 -96.8271484375 554.295898438 -96.83203125 c 2,62,-1
 322.81640625 -96.83203125 l 2,63,64
 308.025390625 -96.8271484375 308.025390625 -96.8271484375 297.552734375 -86.3544921875 c 128,-1,65
 287.080078125 -75.8818359375 287.080078125 -75.8818359375 287.07421875 -61.0888671875 c 2,66,-1
 287.07421875 467.737304688 l 1,67,-1
 287.069335938 468.265625 l 2,68,69
 287.069335938 482.874023438 287.069335938 482.874023438 297.408203125 493.349609375 c 128,-1,70
 307.747070312 503.826171875 307.747070312 503.826171875 322.354492188 504.018554688 c 1,21,-1
EndSplineSet
Validated: 1
EndChar

StartChar: uni02D4
Encoding: 724 724 69
Width: 1164
Flags: W
LayerCount: 2
Fore
SplineSet
878.5 904 m 260,0,1
 889.5 904 889.5 904 897.5 896 c 6,2,-1
 1069.5 724 l 6,3,4
 1088.5 705 1088.5 705 1069.5 686 c 6,5,-1
 790.5 407 l 5,6,-1
 1074.5 123 l 6,7,8
 1094.5 104 1094.5 104 1074.5 84 c 6,9,-1
 903.5 -87 l 6,10,11
 884.5 -106 884.5 -106 865.5 -87 c 6,12,-1
 580.5 198 l 5,13,-1
 298.5 -84 l 6,14,15
 279.5 -103 279.5 -103 260.5 -84 c 6,16,-1
 89.5 87 l 6,17,18
 70.5 106 70.5 106 89.5 125 c 6,19,-1
 371.5 407 l 5,20,-1
 95.5 683 l 6,21,22
 76.5 702 76.5 702 95.5 721 c 6,23,-1
 266.5 892 l 6,24,25
 286.5 912 286.5 912 305.5 892 c 6,26,-1
 580.5 617 l 5,27,-1
 859.5 896 l 6,28,29
 867.5 904 867.5 904 878.5 904 c 260,0,1
EndSplineSet
Validated: 33
EndChar

StartChar: uni02D5
Encoding: 725 725 70
Width: 1164
Flags: W
LayerCount: 2
Fore
SplineSet
878.5 904 m 260,0,1
 889.5 904 889.5 904 897.5 896 c 6,2,-1
 1069.5 724 l 6,3,4
 1088.5 705 1088.5 705 1069.5 686 c 6,5,-1
 790.5 407 l 5,6,-1
 1074.5 123 l 6,7,8
 1094.5 104 1094.5 104 1074.5 84 c 6,9,-1
 903.5 -87 l 6,10,11
 884.5 -106 884.5 -106 865.5 -87 c 6,12,-1
 580.5 198 l 5,13,-1
 298.5 -84 l 6,14,15
 279.5 -103 279.5 -103 260.5 -84 c 6,16,-1
 89.5 87 l 6,17,18
 70.5 106 70.5 106 89.5 125 c 6,19,-1
 371.5 407 l 5,20,-1
 95.5 683 l 6,21,22
 76.5 702 76.5 702 95.5 721 c 6,23,-1
 266.5 892 l 6,24,25
 286.5 912 286.5 912 305.5 892 c 6,26,-1
 580.5 617 l 5,27,-1
 859.5 896 l 6,28,29
 867.5 904 867.5 904 878.5 904 c 260,0,1
EndSplineSet
Validated: 33
EndChar

StartChar: uni02D6
Encoding: 726 726 71
Width: 1164
Flags: W
LayerCount: 2
Fore
SplineSet
878.5 904 m 260,0,1
 889.5 904 889.5 904 897.5 896 c 6,2,-1
 1069.5 724 l 6,3,4
 1088.5 705 1088.5 705 1069.5 686 c 6,5,-1
 790.5 407 l 5,6,-1
 1074.5 123 l 6,7,8
 1094.5 104 1094.5 104 1074.5 84 c 6,9,-1
 903.5 -87 l 6,10,11
 884.5 -106 884.5 -106 865.5 -87 c 6,12,-1
 580.5 198 l 5,13,-1
 298.5 -84 l 6,14,15
 279.5 -103 279.5 -103 260.5 -84 c 6,16,-1
 89.5 87 l 6,17,18
 70.5 106 70.5 106 89.5 125 c 6,19,-1
 371.5 407 l 5,20,-1
 95.5 683 l 6,21,22
 76.5 702 76.5 702 95.5 721 c 6,23,-1
 266.5 892 l 6,24,25
 286.5 912 286.5 912 305.5 892 c 6,26,-1
 580.5 617 l 5,27,-1
 859.5 896 l 6,28,29
 867.5 904 867.5 904 878.5 904 c 260,0,1
EndSplineSet
Validated: 33
EndChar

StartChar: uni02D7
Encoding: 727 727 72
Width: 1164
Flags: W
LayerCount: 2
Fore
SplineSet
878.5 904 m 260,0,1
 889.5 904 889.5 904 897.5 896 c 6,2,-1
 1069.5 724 l 6,3,4
 1088.5 705 1088.5 705 1069.5 686 c 6,5,-1
 790.5 407 l 5,6,-1
 1074.5 123 l 6,7,8
 1094.5 104 1094.5 104 1074.5 84 c 6,9,-1
 903.5 -87 l 6,10,11
 884.5 -106 884.5 -106 865.5 -87 c 6,12,-1
 580.5 198 l 5,13,-1
 298.5 -84 l 6,14,15
 279.5 -103 279.5 -103 260.5 -84 c 6,16,-1
 89.5 87 l 6,17,18
 70.5 106 70.5 106 89.5 125 c 6,19,-1
 371.5 407 l 5,20,-1
 95.5 683 l 6,21,22
 76.5 702 76.5 702 95.5 721 c 6,23,-1
 266.5 892 l 6,24,25
 286.5 912 286.5 912 305.5 892 c 6,26,-1
 580.5 617 l 5,27,-1
 859.5 896 l 6,28,29
 867.5 904 867.5 904 878.5 904 c 260,0,1
EndSplineSet
Validated: 33
EndChar

StartChar: breve
Encoding: 728 728 73
Width: 1164
Flags: W
LayerCount: 2
Fore
SplineSet
878.5 904 m 260,0,1
 889.5 904 889.5 904 897.5 896 c 6,2,-1
 1069.5 724 l 6,3,4
 1088.5 705 1088.5 705 1069.5 686 c 6,5,-1
 790.5 407 l 5,6,-1
 1074.5 123 l 6,7,8
 1094.5 104 1094.5 104 1074.5 84 c 6,9,-1
 903.5 -87 l 6,10,11
 884.5 -106 884.5 -106 865.5 -87 c 6,12,-1
 580.5 198 l 5,13,-1
 298.5 -84 l 6,14,15
 279.5 -103 279.5 -103 260.5 -84 c 6,16,-1
 89.5 87 l 6,17,18
 70.5 106 70.5 106 89.5 125 c 6,19,-1
 371.5 407 l 5,20,-1
 95.5 683 l 6,21,22
 76.5 702 76.5 702 95.5 721 c 6,23,-1
 266.5 892 l 6,24,25
 286.5 912 286.5 912 305.5 892 c 6,26,-1
 580.5 617 l 5,27,-1
 859.5 896 l 6,28,29
 867.5 904 867.5 904 878.5 904 c 260,0,1
EndSplineSet
Validated: 33
EndChar

StartChar: dotaccent
Encoding: 729 729 74
Width: 1164
Flags: W
LayerCount: 2
Fore
SplineSet
878.5 904 m 260,0,1
 889.5 904 889.5 904 897.5 896 c 6,2,-1
 1069.5 724 l 6,3,4
 1088.5 705 1088.5 705 1069.5 686 c 6,5,-1
 790.5 407 l 5,6,-1
 1074.5 123 l 6,7,8
 1094.5 104 1094.5 104 1074.5 84 c 6,9,-1
 903.5 -87 l 6,10,11
 884.5 -106 884.5 -106 865.5 -87 c 6,12,-1
 580.5 198 l 5,13,-1
 298.5 -84 l 6,14,15
 279.5 -103 279.5 -103 260.5 -84 c 6,16,-1
 89.5 87 l 6,17,18
 70.5 106 70.5 106 89.5 125 c 6,19,-1
 371.5 407 l 5,20,-1
 95.5 683 l 6,21,22
 76.5 702 76.5 702 95.5 721 c 6,23,-1
 266.5 892 l 6,24,25
 286.5 912 286.5 912 305.5 892 c 6,26,-1
 580.5 617 l 5,27,-1
 859.5 896 l 6,28,29
 867.5 904 867.5 904 878.5 904 c 260,0,1
EndSplineSet
Validated: 33
EndChar

StartChar: uni02E5
Encoding: 741 741 75
Width: 1164
Flags: W
LayerCount: 2
Fore
SplineSet
878.5 904 m 260,0,1
 889.5 904 889.5 904 897.5 896 c 6,2,-1
 1069.5 724 l 6,3,4
 1088.5 705 1088.5 705 1069.5 686 c 6,5,-1
 790.5 407 l 5,6,-1
 1074.5 123 l 6,7,8
 1094.5 104 1094.5 104 1074.5 84 c 6,9,-1
 903.5 -87 l 6,10,11
 884.5 -106 884.5 -106 865.5 -87 c 6,12,-1
 580.5 198 l 5,13,-1
 298.5 -84 l 6,14,15
 279.5 -103 279.5 -103 260.5 -84 c 6,16,-1
 89.5 87 l 6,17,18
 70.5 106 70.5 106 89.5 125 c 6,19,-1
 371.5 407 l 5,20,-1
 95.5 683 l 6,21,22
 76.5 702 76.5 702 95.5 721 c 6,23,-1
 266.5 892 l 6,24,25
 286.5 912 286.5 912 305.5 892 c 6,26,-1
 580.5 617 l 5,27,-1
 859.5 896 l 6,28,29
 867.5 904 867.5 904 878.5 904 c 260,0,1
EndSplineSet
Validated: 33
EndChar

StartChar: uni02E6
Encoding: 742 742 76
Width: 1164
Flags: W
LayerCount: 2
Fore
SplineSet
878.5 904 m 260,0,1
 889.5 904 889.5 904 897.5 896 c 6,2,-1
 1069.5 724 l 6,3,4
 1088.5 705 1088.5 705 1069.5 686 c 6,5,-1
 790.5 407 l 5,6,-1
 1074.5 123 l 6,7,8
 1094.5 104 1094.5 104 1074.5 84 c 6,9,-1
 903.5 -87 l 6,10,11
 884.5 -106 884.5 -106 865.5 -87 c 6,12,-1
 580.5 198 l 5,13,-1
 298.5 -84 l 6,14,15
 279.5 -103 279.5 -103 260.5 -84 c 6,16,-1
 89.5 87 l 6,17,18
 70.5 106 70.5 106 89.5 125 c 6,19,-1
 371.5 407 l 5,20,-1
 95.5 683 l 6,21,22
 76.5 702 76.5 702 95.5 721 c 6,23,-1
 266.5 892 l 6,24,25
 286.5 912 286.5 912 305.5 892 c 6,26,-1
 580.5 617 l 5,27,-1
 859.5 896 l 6,28,29
 867.5 904 867.5 904 878.5 904 c 260,0,1
EndSplineSet
Validated: 33
EndChar

StartChar: backslash
Encoding: 92 92 77
Width: 638
VWidth: 79
Flags: W
LayerCount: 2
Fore
SplineSet
168.895816857 784.485785932 m 2,0,1
 192.996172227 783.821464086 192.996172227 783.821464086 204.072923622 762.195560903 c 2,2,-1
 536.936615186 76.2191971108 l 1,3,-1
 537.095354173 75.9306445991 l 2,4,5
 542.200195312 66.5149471101 542.200195312 66.5149471101 542.200195312 56.1884765625 c 0,6,7
 542.200195312 34.1548343006 542.200195312 34.1548343006 532.78026965 24.7371593452 c 128,-1,8
 523.3601955 15.3193359375 523.3601955 15.3193359375 501.318359375 15.3193359375 c 0,9,10
 476.225662798 15.3193359375 476.225662798 15.3193359375 464.810779914 37.8147299404 c 2,11,-1
 131.95747931 723.772461463 l 2,12,13
 126.799804688 733.149420045 126.799804688 733.149420045 126.799804688 743.637695312 c 0,14,15
 126.799804688 765.656562758 126.799804688 765.656562758 136.219438801 775.081887009 c 128,-1,16
 145.638697819 784.506835938 145.638697819 784.506835938 167.559562499 784.506835938 c 2,17,-1
 168.895816857 784.485785932 l 2,0,1
EndSplineSet
Validated: 1
EndChar

StartChar: uni0270
Encoding: 624 624 78
Width: 1160
VWidth: 200
Flags: W
LayerCount: 2
Fore
SplineSet
580.055664062 899.58984375 m 128,-1,1
 681.331054688 899.58984375 681.331054688 899.58984375 773.897460938 859.827148438 c 128,-1,2
 866.463867188 820.065429688 866.463867188 820.065429688 933.512695312 753.017578125 c 128,-1,3
 1000.56152344 685.970703125 1000.56152344 685.970703125 1040.32519531 593.403320312 c 128,-1,4
 1080.08886719 500.8359375 1080.08886719 500.8359375 1080.08886719 399.544921875 c 128,-1,5
 1080.08886719 298.25390625 1080.08886719 298.25390625 1040.32617188 205.6875 c 128,-1,6
 1000.56445312 113.120117188 1000.56445312 113.120117188 933.516601562 46.0732421875 c 128,-1,7
 866.46875 -20.974609375 866.46875 -20.974609375 773.90234375 -60.736328125 c 128,-1,8
 681.334960938 -100.499023438 681.334960938 -100.499023438 580.043945312 -100.499023438 c 128,-1,9
 478.752929688 -100.499023438 478.752929688 -100.499023438 386.186523438 -60.736328125 c 128,-1,10
 293.619140625 -20.974609375 293.619140625 -20.974609375 226.572265625 46.0732421875 c 128,-1,11
 159.524414062 113.120117188 159.524414062 113.120117188 119.762695312 205.6875 c 128,-1,12
 80 298.25390625 80 298.25390625 80 399.544921875 c 128,-1,13
 80 500.83203125 80 500.83203125 119.763671875 593.3984375 c 128,-1,14
 159.528320312 685.96484375 159.528320312 685.96484375 226.577148438 753.013671875 c 128,-1,15
 293.626953125 820.0625 293.626953125 820.0625 386.196289062 859.826171875 c 128,-1,0
 478.764648438 899.58984375 478.764648438 899.58984375 580.055664062 899.58984375 c 128,-1,1
580.055664062 709.401367188 m 128,-1,17
 450.864257812 709.401367188 450.864257812 709.401367188 360.532226562 619.069335938 c 128,-1,18
 270.200195312 528.737304688 270.200195312 528.737304688 270.200195312 399.544921875 c 128,-1,19
 270.200195312 270.353515625 270.200195312 270.353515625 360.532226562 180.021484375 c 128,-1,20
 450.864257812 89.689453125 450.864257812 89.689453125 580.055664062 89.689453125 c 128,-1,21
 709.247070312 89.689453125 709.247070312 89.689453125 799.579101562 180.021484375 c 128,-1,22
 889.911132812 270.353515625 889.911132812 270.353515625 889.911132812 399.544921875 c 128,-1,23
 889.911132812 528.736328125 889.911132812 528.736328125 799.579101562 619.069335938 c 128,-1,16
 709.247070312 709.401367188 709.247070312 709.401367188 580.055664062 709.401367188 c 128,-1,17
750.122070312 399.544921875 m 128,-1,25
 750.122070312 329.125 750.122070312 329.125 700.29296875 279.295898438 c 128,-1,26
 650.462890625 229.466796875 650.462890625 229.466796875 580.055664062 229.466796875 c 128,-1,27
 509.63671875 229.466796875 509.63671875 229.466796875 459.807617188 279.295898438 c 128,-1,28
 409.977539062 329.125976562 409.977539062 329.125976562 409.977539062 399.533203125 c 128,-1,29
 409.977539062 469.952148438 409.977539062 469.952148438 459.807617188 519.78125 c 128,-1,30
 509.63671875 569.611328125 509.63671875 569.611328125 580.043945312 569.611328125 c 128,-1,31
 650.462890625 569.611328125 650.462890625 569.611328125 700.29296875 519.78125 c 128,-1,24
 750.122070312 469.952148438 750.122070312 469.952148438 750.122070312 399.544921875 c 128,-1,25
EndSplineSet
Validated: 1
EndChar

StartChar: uni0271
Encoding: 625 625 79
Width: 1160
VWidth: 200
Flags: W
LayerCount: 2
Fore
SplineSet
580.055664062 899.58984375 m 128,-1,1
 681.331054688 899.58984375 681.331054688 899.58984375 773.897460938 859.827148438 c 128,-1,2
 866.463867188 820.065429688 866.463867188 820.065429688 933.512695312 753.017578125 c 128,-1,3
 1000.56152344 685.970703125 1000.56152344 685.970703125 1040.32519531 593.403320312 c 128,-1,4
 1080.08886719 500.8359375 1080.08886719 500.8359375 1080.08886719 399.544921875 c 128,-1,5
 1080.08886719 298.25390625 1080.08886719 298.25390625 1040.32617188 205.6875 c 128,-1,6
 1000.56445312 113.120117188 1000.56445312 113.120117188 933.516601562 46.0732421875 c 128,-1,7
 866.46875 -20.974609375 866.46875 -20.974609375 773.90234375 -60.736328125 c 128,-1,8
 681.334960938 -100.499023438 681.334960938 -100.499023438 580.043945312 -100.499023438 c 128,-1,9
 478.752929688 -100.499023438 478.752929688 -100.499023438 386.186523438 -60.736328125 c 128,-1,10
 293.619140625 -20.974609375 293.619140625 -20.974609375 226.572265625 46.0732421875 c 128,-1,11
 159.524414062 113.120117188 159.524414062 113.120117188 119.762695312 205.6875 c 128,-1,12
 80 298.25390625 80 298.25390625 80 399.544921875 c 128,-1,13
 80 500.83203125 80 500.83203125 119.763671875 593.3984375 c 128,-1,14
 159.528320312 685.96484375 159.528320312 685.96484375 226.577148438 753.013671875 c 128,-1,15
 293.626953125 820.0625 293.626953125 820.0625 386.196289062 859.826171875 c 128,-1,0
 478.764648438 899.58984375 478.764648438 899.58984375 580.055664062 899.58984375 c 128,-1,1
580.055664062 709.401367188 m 128,-1,17
 450.864257812 709.401367188 450.864257812 709.401367188 360.532226562 619.069335938 c 128,-1,18
 270.200195312 528.737304688 270.200195312 528.737304688 270.200195312 399.544921875 c 128,-1,19
 270.200195312 270.353515625 270.200195312 270.353515625 360.532226562 180.021484375 c 128,-1,20
 450.864257812 89.689453125 450.864257812 89.689453125 580.055664062 89.689453125 c 128,-1,21
 709.247070312 89.689453125 709.247070312 89.689453125 799.579101562 180.021484375 c 128,-1,22
 889.911132812 270.353515625 889.911132812 270.353515625 889.911132812 399.544921875 c 128,-1,23
 889.911132812 528.736328125 889.911132812 528.736328125 799.579101562 619.069335938 c 128,-1,16
 709.247070312 709.401367188 709.247070312 709.401367188 580.055664062 709.401367188 c 128,-1,17
EndSplineSet
Validated: 1
EndChar

StartChar: uni0272
Encoding: 626 626 80
Width: 1159
VWidth: 200
Flags: W
LayerCount: 2
Fore
SplineSet
166.338867188 898.935546875 m 2,0,-1
 992.915039062 898.935546875 l 2,1,2
 1028.67382812 898.935546875 1028.67382812 898.935546875 1053.96386719 873.646484375 c 128,-1,3
 1079.25292969 848.356445312 1079.25292969 848.356445312 1079.25292969 812.623046875 c 0,4,-1
 1079.25292969 -14.04296875 l 2,5,6
 1079.23925781 -49.76171875 1079.23925781 -49.76171875 1053.94921875 -75.041015625 c 128,-1,7
 1028.65917969 -100.3203125 1028.65917969 -100.3203125 992.940429688 -100.3203125 c 0,8,-1
 166.338867188 -100.3203125 l 2,9,10
 130.59375 -100.3203125 130.59375 -100.3203125 105.3046875 -75.041015625 c 128,-1,11
 80.0146484375 -49.76171875 80.0146484375 -49.76171875 80 -14.04296875 c 2,12,-1
 80 812.59765625 l 2,13,14
 80 848.356445312 80 848.356445312 105.290039062 873.645507812 c 128,-1,15
 130.580078125 898.935546875 130.580078125 898.935546875 166.338867188 898.935546875 c 2,0,-1
252.616210938 726.3203125 m 1,16,-1
 252.616210938 72.2919921875 l 1,17,-1
 906.643554688 72.2919921875 l 1,18,-1
 906.643554688 726.3203125 l 1,19,-1
 252.616210938 726.3203125 l 1,16,-1
751.6015625 612.5234375 m 1,20,-1
 751.90234375 612.518554688 l 2,21,22
 757.280273438 612.518554688 757.280273438 612.518554688 761.127929688 608.760742188 c 2,23,-1
 844.543945312 527.506835938 l 2,24,25
 848.529296875 523.620117188 848.529296875 523.620117188 848.529296875 518.053710938 c 0,26,27
 848.529296875 512.69921875 848.529296875 512.69921875 844.799804688 508.856445312 c 2,28,-1
 534.338867188 189.978515625 l 2,29,30
 530.450195312 185.981445312 530.450195312 185.981445312 524.874023438 185.981445312 c 128,-1,31
 519.244140625 185.981445312 519.244140625 185.981445312 515.346679688 190.04296875 c 2,32,-1
 314.399414062 400.143554688 l 2,33,34
 310.736328125 403.97265625 310.736328125 403.97265625 310.736328125 409.272460938 c 0,35,36
 310.736328125 414.9453125 310.736328125 414.9453125 314.8515625 418.8515625 c 2,37,-1
 399.0625 499.311523438 l 2,38,39
 402.885742188 502.9453125 402.885742188 502.9453125 408.161132812 502.9453125 c 0,40,41
 413.810546875 502.9453125 413.810546875 502.9453125 417.713867188 498.858398438 c 2,42,-1
 525.749023438 385.875 l 1,43,-1
 742.50390625 608.54296875 l 2,44,45
 746.245117188 612.379882812 746.245117188 612.379882812 751.6015625 612.5234375 c 1,20,-1
EndSplineSet
Validated: 1
EndChar

StartChar: uni0273
Encoding: 627 627 81
Width: 1159
VWidth: 200
Flags: W
LayerCount: 2
Fore
SplineSet
166.338867188 898.935546875 m 2,0,-1
 992.915039062 898.935546875 l 2,1,2
 1028.67382812 898.935546875 1028.67382812 898.935546875 1053.96386719 873.646484375 c 128,-1,3
 1079.25292969 848.356445312 1079.25292969 848.356445312 1079.25292969 812.623046875 c 0,4,-1
 1079.25292969 -14.04296875 l 2,5,6
 1079.23925781 -49.76171875 1079.23925781 -49.76171875 1053.94921875 -75.041015625 c 128,-1,7
 1028.65917969 -100.3203125 1028.65917969 -100.3203125 992.940429688 -100.3203125 c 0,8,-1
 166.338867188 -100.3203125 l 2,9,10
 130.59375 -100.3203125 130.59375 -100.3203125 105.3046875 -75.041015625 c 128,-1,11
 80.0146484375 -49.76171875 80.0146484375 -49.76171875 80 -14.04296875 c 2,12,-1
 80 812.59765625 l 2,13,14
 80 848.356445312 80 848.356445312 105.290039062 873.645507812 c 128,-1,15
 130.580078125 898.935546875 130.580078125 898.935546875 166.338867188 898.935546875 c 2,0,-1
252.616210938 726.3203125 m 1,16,-1
 252.616210938 72.2919921875 l 1,17,-1
 906.643554688 72.2919921875 l 1,18,-1
 906.643554688 726.3203125 l 1,19,-1
 252.616210938 726.3203125 l 1,16,-1
EndSplineSet
Validated: 1
EndChar

StartChar: uni0274
Encoding: 628 628 82
Width: 1159
VWidth: 100
Flags: W
LayerCount: 2
Fore
SplineSet
579.822265625 899.661132812 m 128,-1,1
 681.190429688 899.661132812 681.190429688 899.661132812 773.7265625 859.9609375 c 128,-1,2
 866.26171875 820.26171875 866.26171875 820.26171875 933.252929688 753.26953125 c 128,-1,3
 1000.24511719 686.278320312 1000.24511719 686.278320312 1039.94433594 593.743164062 c 128,-1,4
 1079.64453125 501.20703125 1079.64453125 501.20703125 1079.64453125 399.838867188 c 128,-1,5
 1079.64453125 298.470703125 1079.64453125 298.470703125 1039.94433594 205.934570312 c 128,-1,6
 1000.24511719 113.399414062 1000.24511719 113.399414062 933.252929688 46.408203125 c 128,-1,7
 866.26171875 -20.583984375 866.26171875 -20.583984375 773.7265625 -60.283203125 c 128,-1,8
 681.190429688 -99.9833984375 681.190429688 -99.9833984375 579.822265625 -99.9833984375 c 128,-1,9
 478.454101562 -99.9833984375 478.454101562 -99.9833984375 385.91796875 -60.283203125 c 128,-1,10
 293.3828125 -20.583984375 293.3828125 -20.583984375 226.391601562 46.408203125 c 128,-1,11
 159.399414062 113.399414062 159.399414062 113.399414062 119.700195312 205.934570312 c 128,-1,12
 80 298.470703125 80 298.470703125 80 399.838867188 c 128,-1,13
 80 501.20703125 80 501.20703125 119.700195312 593.743164062 c 128,-1,14
 159.399414062 686.278320312 159.399414062 686.278320312 226.391601562 753.26953125 c 128,-1,15
 293.3828125 820.26171875 293.3828125 820.26171875 385.91796875 859.9609375 c 128,-1,0
 478.454101562 899.661132812 478.454101562 899.661132812 579.822265625 899.661132812 c 128,-1,1
579.822265625 763.495117188 m 128,-1,17
 480.61328125 763.495117188 480.61328125 763.495117188 396.891601562 714.994140625 c 128,-1,18
 313.168945312 666.4921875 313.168945312 666.4921875 264.66796875 582.76953125 c 128,-1,19
 216.166992188 499.047851562 216.166992188 499.047851562 216.166992188 399.838867188 c 128,-1,20
 216.166992188 300.629882812 216.166992188 300.629882812 264.66796875 216.908203125 c 128,-1,21
 313.168945312 133.185546875 313.168945312 133.185546875 396.891601562 84.6845703125 c 128,-1,22
 480.61328125 36.18359375 480.61328125 36.18359375 579.822265625 36.18359375 c 128,-1,23
 679.03125 36.18359375 679.03125 36.18359375 762.752929688 84.6845703125 c 128,-1,24
 846.475585938 133.185546875 846.475585938 133.185546875 894.9765625 216.908203125 c 128,-1,25
 943.477539062 300.629882812 943.477539062 300.629882812 943.477539062 399.838867188 c 128,-1,26
 943.477539062 499.047851562 943.477539062 499.047851562 894.9765625 582.76953125 c 128,-1,27
 846.475585938 666.4921875 846.475585938 666.4921875 762.752929688 714.994140625 c 128,-1,16
 679.03125 763.495117188 679.03125 763.495117188 579.822265625 763.495117188 c 128,-1,17
806.921875 399.844726562 m 128,-1,29
 806.921875 305.825195312 806.921875 305.825195312 740.381835938 239.284179688 c 128,-1,30
 673.841796875 172.744140625 673.841796875 172.744140625 579.822265625 172.744140625 c 128,-1,31
 485.807617188 172.749023438 485.807617188 172.749023438 419.270507812 239.2890625 c 128,-1,32
 352.733398438 305.830078125 352.733398438 305.830078125 352.733398438 399.844726562 c 128,-1,33
 352.737304688 493.854492188 352.737304688 493.854492188 419.275390625 560.391601562 c 128,-1,34
 485.8125 626.928710938 485.8125 626.928710938 579.822265625 626.93359375 c 128,-1,35
 673.836914062 626.93359375 673.836914062 626.93359375 740.376953125 560.396484375 c 128,-1,28
 806.916992188 493.859375 806.916992188 493.859375 806.921875 399.844726562 c 128,-1,29
EndSplineSet
Validated: 1
EndChar

StartChar: uni0275
Encoding: 629 629 83
Width: 1159
VWidth: 100
Flags: W
LayerCount: 2
Fore
SplineSet
579.822265625 899.661132812 m 128,-1,1
 681.190429688 899.661132812 681.190429688 899.661132812 773.7265625 859.9609375 c 128,-1,2
 866.26171875 820.26171875 866.26171875 820.26171875 933.252929688 753.26953125 c 128,-1,3
 1000.24511719 686.278320312 1000.24511719 686.278320312 1039.94433594 593.743164062 c 128,-1,4
 1079.64453125 501.20703125 1079.64453125 501.20703125 1079.64453125 399.838867188 c 128,-1,5
 1079.64453125 298.470703125 1079.64453125 298.470703125 1039.94433594 205.934570312 c 128,-1,6
 1000.24511719 113.399414062 1000.24511719 113.399414062 933.252929688 46.408203125 c 128,-1,7
 866.26171875 -20.583984375 866.26171875 -20.583984375 773.7265625 -60.283203125 c 128,-1,8
 681.190429688 -99.9833984375 681.190429688 -99.9833984375 579.822265625 -99.9833984375 c 128,-1,9
 478.454101562 -99.9833984375 478.454101562 -99.9833984375 385.91796875 -60.283203125 c 128,-1,10
 293.3828125 -20.583984375 293.3828125 -20.583984375 226.391601562 46.408203125 c 128,-1,11
 159.399414062 113.399414062 159.399414062 113.399414062 119.700195312 205.934570312 c 128,-1,12
 80 298.470703125 80 298.470703125 80 399.838867188 c 128,-1,13
 80 501.20703125 80 501.20703125 119.700195312 593.743164062 c 128,-1,14
 159.399414062 686.278320312 159.399414062 686.278320312 226.391601562 753.26953125 c 128,-1,15
 293.3828125 820.26171875 293.3828125 820.26171875 385.91796875 859.9609375 c 128,-1,0
 478.454101562 899.661132812 478.454101562 899.661132812 579.822265625 899.661132812 c 128,-1,1
579.822265625 763.495117188 m 128,-1,17
 480.61328125 763.495117188 480.61328125 763.495117188 396.891601562 714.994140625 c 128,-1,18
 313.168945312 666.4921875 313.168945312 666.4921875 264.66796875 582.76953125 c 128,-1,19
 216.166992188 499.047851562 216.166992188 499.047851562 216.166992188 399.838867188 c 128,-1,20
 216.166992188 300.629882812 216.166992188 300.629882812 264.66796875 216.908203125 c 128,-1,21
 313.168945312 133.185546875 313.168945312 133.185546875 396.891601562 84.6845703125 c 128,-1,22
 480.61328125 36.18359375 480.61328125 36.18359375 579.822265625 36.18359375 c 128,-1,23
 679.03125 36.18359375 679.03125 36.18359375 762.752929688 84.6845703125 c 128,-1,24
 846.475585938 133.185546875 846.475585938 133.185546875 894.9765625 216.908203125 c 128,-1,25
 943.477539062 300.629882812 943.477539062 300.629882812 943.477539062 399.838867188 c 128,-1,26
 943.477539062 499.047851562 943.477539062 499.047851562 894.9765625 582.76953125 c 128,-1,27
 846.475585938 666.4921875 846.475585938 666.4921875 762.752929688 714.994140625 c 128,-1,16
 679.03125 763.495117188 679.03125 763.495117188 579.822265625 763.495117188 c 128,-1,17
EndSplineSet
Validated: 1
EndChar

StartChar: uni0276
Encoding: 630 630 84
Width: 1160
VWidth: 100
Flags: W
LayerCount: 2
Fore
SplineSet
148.487304688 899.756835938 m 2,0,-1
 1011.51855469 899.756835938 l 2,1,2
 1039.87988281 899.756835938 1039.87988281 899.756835938 1059.94335938 879.693359375 c 128,-1,3
 1080.00585938 859.630859375 1080.00585938 859.630859375 1080.00585938 831.282226562 c 0,4,-1
 1080.00585938 -31.8291015625 l 2,5,6
 1079.984375 -60.15625 1079.984375 -60.15625 1059.921875 -80.205078125 c 128,-1,7
 1039.859375 -100.252929688 1039.859375 -100.252929688 1011.53222656 -100.252929688 c 0,8,-1
 148.487304688 -100.252929688 l 2,9,10
 129.896484375 -100.252929688 129.896484375 -100.252929688 114.126953125 -91.0927734375 c 128,-1,11
 98.3564453125 -81.9326171875 98.3564453125 -81.9326171875 89.1845703125 -66.1689453125 c 128,-1,12
 80.013671875 -50.40625 80.013671875 -50.40625 80 -31.8291015625 c 2,13,-1
 80 831.26953125 l 2,14,15
 80 859.630859375 80 859.630859375 100.0625 879.693359375 c 128,-1,16
 120.125 899.756835938 120.125 899.756835938 148.487304688 899.756835938 c 2,0,-1
216.911132812 762.779296875 m 1,17,-1
 216.911132812 36.6484375 l 1,18,-1
 943.108398438 36.6484375 l 1,19,-1
 943.108398438 762.779296875 l 1,20,-1
 216.911132812 762.779296875 l 1,17,-1
870.685546875 621.244140625 m 0,21,22
 870.115234375 615.654296875 870.115234375 615.654296875 864.500976562 606.0859375 c 0,23,24
 836.927734375 559.087890625 836.927734375 559.087890625 703.967773438 361.129882812 c 0,25,26
 585.23828125 184.356445312 585.23828125 184.356445312 557.50390625 149.233398438 c 128,-1,27
 529.76953125 114.111328125 529.76953125 114.111328125 508.900390625 114.0859375 c 0,28,29
 495.043945312 114.057617188 495.043945312 114.057617188 488.034179688 116.0390625 c 128,-1,30
 481.025390625 118.01953125 481.025390625 118.01953125 465.786132812 134.700195312 c 128,-1,31
 450.547851562 151.380859375 450.547851562 151.380859375 434.685546875 174.418945312 c 128,-1,32
 418.82421875 197.45703125 418.82421875 197.45703125 381.267578125 253.741210938 c 0,33,34
 324.943359375 338.149414062 324.943359375 338.149414062 293.413085938 395.041015625 c 0,35,36
 284.609375 410.924804688 284.609375 410.924804688 294.243164062 428.998046875 c 128,-1,37
 303.876953125 447.071289062 303.876953125 447.071289062 319.678710938 456.405273438 c 0,38,39
 334.297851562 465.041992188 334.297851562 465.041992188 350.5859375 465.66796875 c 128,-1,40
 366.875 466.294921875 366.875 466.294921875 382.690429688 454.716796875 c 0,41,42
 402.717773438 436.52734375 402.717773438 436.52734375 449.784179688 365.385742188 c 0,43,44
 503.459960938 284.25390625 503.459960938 284.25390625 506.59375 285.262695312 c 128,-1,45
 509.720703125 286.264648438 509.720703125 286.264648438 631.227539062 467.41796875 c 0,46,47
 751.870117188 647.295898438 751.870117188 647.295898438 762.283203125 659.184570312 c 0,48,49
 777.329101562 676.397460938 777.329101562 676.397460938 784.936523438 680.54296875 c 128,-1,50
 792.543945312 684.689453125 792.543945312 684.689453125 807.088867188 684.985351562 c 0,51,52
 837.46484375 685.602539062 837.46484375 685.602539062 853.036132812 670.553710938 c 0,53,54
 860.76171875 663.086914062 860.76171875 663.086914062 863.9765625 658.993164062 c 128,-1,55
 867.192382812 654.899414062 867.192382812 654.899414062 869.663085938 645.123046875 c 128,-1,56
 872.133789062 635.346679688 872.133789062 635.346679688 870.685546875 621.244140625 c 0,21,22
EndSplineSet
Validated: 33
EndChar

StartChar: uni0277
Encoding: 631 631 85
Width: 1160
VWidth: 100
Flags: W
LayerCount: 2
Fore
SplineSet
148.487304688 899.756835938 m 2,0,-1
 1011.51855469 899.756835938 l 2,1,2
 1039.87988281 899.756835938 1039.87988281 899.756835938 1059.94335938 879.693359375 c 128,-1,3
 1080.00585938 859.630859375 1080.00585938 859.630859375 1080.00585938 831.282226562 c 0,4,-1
 1080.00585938 -31.8291015625 l 2,5,6
 1079.984375 -60.15625 1079.984375 -60.15625 1059.921875 -80.205078125 c 128,-1,7
 1039.859375 -100.252929688 1039.859375 -100.252929688 1011.53222656 -100.252929688 c 0,8,-1
 148.487304688 -100.252929688 l 2,9,10
 129.896484375 -100.252929688 129.896484375 -100.252929688 114.126953125 -91.0927734375 c 128,-1,11
 98.3564453125 -81.9326171875 98.3564453125 -81.9326171875 89.1845703125 -66.1689453125 c 128,-1,12
 80.013671875 -50.40625 80.013671875 -50.40625 80 -31.8291015625 c 2,13,-1
 80 831.26953125 l 2,14,15
 80 859.630859375 80 859.630859375 100.0625 879.693359375 c 128,-1,16
 120.125 899.756835938 120.125 899.756835938 148.487304688 899.756835938 c 2,0,-1
216.911132812 762.779296875 m 1,17,-1
 216.911132812 36.6484375 l 1,18,-1
 943.108398438 36.6484375 l 1,19,-1
 943.108398438 762.779296875 l 1,20,-1
 216.911132812 762.779296875 l 1,17,-1
EndSplineSet
Validated: 1
EndChar

StartChar: uni0278
Encoding: 632 632 86
Width: 1159
VWidth: 100
Flags: W
LayerCount: 2
Fore
SplineSet
579.966796875 900 m 128,-1,1
 681.486328125 900 681.486328125 900 774.06640625 860.32421875 c 128,-1,2
 866.647460938 820.6484375 866.647460938 820.6484375 933.642578125 753.653320312 c 128,-1,3
 1000.63769531 686.658203125 1000.63769531 686.658203125 1040.31347656 594.077148438 c 128,-1,4
 1079.98925781 501.497070312 1079.98925781 501.497070312 1079.98925781 399.977539062 c 128,-1,5
 1079.98925781 298.455078125 1079.98925781 298.455078125 1040.31542969 205.881835938 c 128,-1,6
 1000.64160156 113.30859375 1000.64160156 113.30859375 933.646484375 46.3251953125 c 128,-1,7
 866.651367188 -20.658203125 866.651367188 -20.658203125 774.071289062 -60.3232421875 c 128,-1,8
 681.491210938 -99.9892578125 681.491210938 -99.9892578125 579.966796875 -99.9892578125 c 128,-1,9
 478.442382812 -99.9892578125 478.442382812 -99.9892578125 385.870117188 -60.32421875 c 128,-1,10
 293.298828125 -20.658203125 293.298828125 -20.658203125 226.314453125 46.3251953125 c 128,-1,11
 159.330078125 113.309570312 159.330078125 113.309570312 119.665039062 205.881835938 c 128,-1,12
 80 298.453125 80 298.453125 80 399.977539062 c 128,-1,13
 80 501.498046875 80 501.498046875 119.665039062 594.078125 c 128,-1,14
 159.331054688 686.657226562 159.331054688 686.657226562 226.314453125 753.653320312 c 128,-1,15
 293.296875 820.649414062 293.296875 820.649414062 385.87109375 860.32421875 c 128,-1,0
 478.444335938 900 478.444335938 900 579.966796875 900 c 128,-1,1
579.966796875 813.862304688 m 0,16,17
 467.280273438 813.848632812 467.280273438 813.848632812 371.982421875 758.559570312 c 128,-1,18
 276.684570312 703.270507812 276.684570312 703.270507812 221.413085938 607.959960938 c 128,-1,19
 166.142578125 512.6484375 166.142578125 512.6484375 166.142578125 399.959960938 c 128,-1,20
 166.142578125 287.272460938 166.142578125 287.272460938 221.4140625 191.977539062 c 128,-1,21
 276.685546875 96.681640625 276.685546875 96.681640625 371.981445312 41.4091796875 c 128,-1,22
 467.27734375 -13.8623046875 467.27734375 -13.8623046875 579.96484375 -13.8623046875 c 128,-1,23
 692.653320312 -13.8623046875 692.653320312 -13.8623046875 787.96484375 41.4091796875 c 128,-1,24
 883.275390625 96.6796875 883.275390625 96.6796875 938.564453125 191.977539062 c 128,-1,25
 993.853515625 287.276367188 993.853515625 287.276367188 993.853515625 399.959960938 c 0,26,27
 993.853515625 536.498046875 993.853515625 536.498046875 912.041015625 646.59375 c 1,28,29
 910.080078125 642.537109375 910.080078125 642.537109375 908.341796875 639.572265625 c 0,30,31
 876.641601562 585.544921875 876.641601562 585.544921875 723.397460938 357.39453125 c 0,32,33
 586.61328125 153.743164062 586.61328125 153.743164062 554.65234375 113.26953125 c 128,-1,34
 522.69140625 72.7958984375 522.69140625 72.7958984375 498.653320312 72.7724609375 c 0,35,36
 470.163085938 72.7216796875 470.163085938 72.7216796875 449.504882812 95.3310546875 c 128,-1,37
 428.846679688 117.939453125 428.846679688 117.939453125 351.642578125 233.638671875 c 0,38,39
 288.142578125 328.803710938 288.142578125 328.803710938 250.395507812 396.450195312 c 0,40,41
 238.65625 417.487304688 238.65625 417.487304688 250.244140625 436.166015625 c 128,-1,42
 261.83203125 454.84375 261.83203125 454.84375 282.0546875 466.790039062 c 0,43,44
 299.010742188 476.805664062 299.010742188 476.805664062 316.973632812 477.649414062 c 128,-1,45
 334.9375 478.493164062 334.9375 478.493164062 353.272460938 465.223632812 c 0,46,47
 376.3125 444.323242188 376.3125 444.323242188 430.572265625 362.290039062 c 0,48,49
 492.391601562 268.84375 492.391601562 268.84375 496.02734375 270.000976562 c 128,-1,50
 499.65234375 271.17578125 499.65234375 271.17578125 639.594726562 479.845703125 c 0,51,52
 778.549804688 687.040039062 778.549804688 687.040039062 790.549804688 700.767578125 c 0,53,54
 805.182617188 717.508789062 805.182617188 717.508789062 812.381835938 722.747070312 c 128,-1,55
 819.58203125 727.985351562 819.58203125 727.985351562 830.233398438 729.354492188 c 1,56,57
 719.060546875 813.862304688 719.060546875 813.862304688 579.966796875 813.862304688 c 0,16,17
EndSplineSet
Validated: 33
EndChar

StartChar: uni0279
Encoding: 633 633 87
Width: 1160
VWidth: 100
Flags: W
LayerCount: 2
Fore
SplineSet
579.989257812 900 m 128,-1,1
 681.516601562 900 681.516601562 900 774.103515625 860.322265625 c 128,-1,2
 866.69140625 820.64453125 866.69140625 820.64453125 933.690429688 753.645507812 c 128,-1,3
 1000.68945312 686.646484375 1000.68945312 686.646484375 1040.3671875 594.05859375 c 128,-1,4
 1080.04492188 501.471679688 1080.04492188 501.471679688 1080.04492188 399.944335938 c 128,-1,5
 1080.04492188 298.41796875 1080.04492188 298.41796875 1040.3671875 205.83984375 c 128,-1,6
 1000.69042969 113.262695312 1000.69042969 113.262695312 933.690429688 46.2763671875 c 128,-1,7
 866.690429688 -20.7099609375 866.690429688 -20.7099609375 774.104492188 -60.3779296875 c 128,-1,8
 681.518554688 -100.044921875 681.518554688 -100.044921875 579.989257812 -100.044921875 c 128,-1,9
 478.4609375 -100.044921875 478.4609375 -100.044921875 385.884765625 -60.3779296875 c 128,-1,10
 293.30859375 -20.7109375 293.30859375 -20.7109375 226.321289062 46.2763671875 c 128,-1,11
 159.333984375 113.263671875 159.333984375 113.263671875 119.666992188 205.83984375 c 128,-1,12
 80 298.416015625 80 298.416015625 80 399.944335938 c 128,-1,13
 80 501.473632812 80 501.473632812 119.666992188 594.059570312 c 128,-1,14
 159.334960938 686.645507812 159.334960938 686.645507812 226.321289062 753.645507812 c 128,-1,15
 293.307617188 820.645507812 293.307617188 820.645507812 385.884765625 860.322265625 c 128,-1,0
 478.462890625 900 478.462890625 900 579.989257812 900 c 128,-1,1
579.989257812 813.856445312 m 128,-1,17
 467.294921875 813.856445312 467.294921875 813.856445312 371.98828125 758.564453125 c 128,-1,18
 276.682617188 703.272460938 276.682617188 703.272460938 221.408203125 607.956054688 c 128,-1,19
 166.133789062 512.640625 166.133789062 512.640625 166.133789062 399.9453125 c 128,-1,20
 166.133789062 287.248046875 166.133789062 287.248046875 221.412109375 191.944335938 c 128,-1,21
 276.689453125 96.640625 276.689453125 96.640625 371.9921875 41.365234375 c 128,-1,22
 467.295898438 -13.91015625 467.295898438 -13.91015625 579.989257812 -13.91015625 c 128,-1,23
 692.682617188 -13.91015625 692.682617188 -13.91015625 787.999023438 41.3671875 c 128,-1,24
 883.31640625 96.64453125 883.31640625 96.64453125 938.608398438 191.950195312 c 128,-1,25
 993.900390625 287.255859375 993.900390625 287.255859375 993.900390625 399.9453125 c 128,-1,26
 993.900390625 512.63671875 993.900390625 512.63671875 938.609375 607.955078125 c 128,-1,27
 883.317382812 703.2734375 883.317382812 703.2734375 787.999023438 758.565429688 c 128,-1,16
 692.680664062 813.856445312 692.680664062 813.856445312 579.989257812 813.856445312 c 128,-1,17
EndSplineSet
Validated: 1
EndChar

StartChar: uni027A
Encoding: 634 634 88
Width: 1160
VWidth: 100
Flags: W
LayerCount: 2
Fore
SplineSet
236.177734375 900 m 2,0,-1
 923.811523438 900 l 2,1,2
 988.193359375 900 988.193359375 900 1034.09277344 854.103515625 c 128,-1,3
 1079.9921875 808.20703125 1079.9921875 808.20703125 1080 743.822265625 c 2,4,-1
 1080 56.0556640625 l 2,5,6
 1080 -8.3115234375 1080 -8.3115234375 1034.10742188 -54.150390625 c 128,-1,7
 988.21484375 -99.9892578125 988.21484375 -99.9892578125 923.822265625 -99.9892578125 c 2,8,-1
 236.177734375 -99.9892578125 l 2,9,10
 171.78125 -99.9892578125 171.78125 -99.9892578125 125.890625 -54.1513671875 c 128,-1,11
 80 -8.314453125 80 -8.314453125 80 56.0556640625 c 2,12,-1
 80 743.822265625 l 2,13,14
 80 808.20703125 80 808.20703125 125.896484375 854.103515625 c 128,-1,15
 171.79296875 900 171.79296875 900 236.177734375 900 c 2,0,-1
236.177734375 824.139648438 m 2,16,17
 202.315429688 824.139648438 202.315429688 824.139648438 179.088867188 800.913085938 c 128,-1,18
 155.86328125 777.6875 155.86328125 777.6875 155.86328125 743.82421875 c 2,19,-1
 155.86328125 56.0576171875 l 2,20,21
 155.86328125 22.201171875 155.86328125 22.201171875 179.0859375 -0.99609375 c 128,-1,22
 202.30859375 -24.193359375 202.30859375 -24.193359375 236.177734375 -24.193359375 c 2,23,-1
 923.822265625 -24.193359375 l 2,24,25
 957.697265625 -24.193359375 957.697265625 -24.193359375 980.94921875 -0.9931640625 c 128,-1,26
 1004.20117188 22.2080078125 1004.20117188 22.2080078125 1004.20117188 56.0576171875 c 2,27,-1
 1004.20117188 743.82421875 l 2,28,29
 1004.20117188 777.680664062 1004.20117188 777.680664062 980.9453125 800.91015625 c 128,-1,30
 957.690429688 824.139648438 957.690429688 824.139648438 923.822265625 824.139648438 c 2,31,-1
 236.177734375 824.139648438 l 2,16,17
845.088867188 733.833007812 m 0,32,33
 880.600585938 734.556640625 880.600585938 734.556640625 898.86328125 716.905273438 c 0,34,35
 907.888671875 708.182617188 907.888671875 708.182617188 911.6484375 703.389648438 c 128,-1,36
 915.407226562 698.596679688 915.407226562 698.596679688 918.287109375 687.170898438 c 128,-1,37
 921.166015625 675.744140625 921.166015625 675.744140625 919.483398438 659.24609375 c 0,38,39
 918.813476562 652.669921875 918.813476562 652.669921875 912.291992188 641.5546875 c 0,40,41
 880.387695312 587.135742188 880.387695312 587.135742188 724.4921875 355.04296875 c 0,42,43
 585.553710938 148.190429688 585.553710938 148.190429688 553.172851562 107.163085938 c 128,-1,44
 520.791992188 66.13671875 520.791992188 66.13671875 496.403320312 66.109375 c 0,45,46
 467.481445312 66.0595703125 467.481445312 66.0595703125 446.477539062 89.0458984375 c 128,-1,47
 425.473632812 112.03125 425.473632812 112.03125 347.103515625 229.4765625 c 0,48,49
 281.291992188 328.100585938 281.291992188 328.100585938 244.38671875 394.6875 c 0,50,51
 234.088867188 413.266601562 234.088867188 413.266601562 245.33984375 434.415039062 c 128,-1,52
 256.590820312 455.5625 256.590820312 455.5625 275.061523438 466.474609375 c 0,53,54
 292.159179688 476.575195312 292.159179688 476.575195312 311.208984375 477.30859375 c 128,-1,55
 330.259765625 478.04296875 330.259765625 478.04296875 348.7578125 464.501953125 c 0,56,57
 372.151367188 443.256835938 372.151367188 443.256835938 427.2265625 360.004882812 c 0,58,59
 489.984375 265.141601562 489.984375 265.141601562 493.66796875 266.325195312 c 128,-1,60
 497.422851562 267.55078125 497.422851562 267.55078125 639.467773438 479.336914062 c 0,61,62
 780.538085938 689.67578125 780.538085938 689.67578125 792.711914062 703.603515625 c 0,63,64
 810.328125 723.755859375 810.328125 723.755859375 819.217773438 728.622070312 c 128,-1,65
 828.106445312 733.487304688 828.106445312 733.487304688 845.088867188 733.833007812 c 0,32,33
EndSplineSet
Validated: 33
EndChar

StartChar: uni027B
Encoding: 635 635 89
Width: 1160
VWidth: 100
Flags: W
LayerCount: 2
Fore
SplineSet
236.177734375 900 m 2,0,-1
 923.811523438 900 l 2,1,2
 988.193359375 900 988.193359375 900 1034.09277344 854.103515625 c 128,-1,3
 1079.9921875 808.20703125 1079.9921875 808.20703125 1080 743.822265625 c 2,4,-1
 1080 56.0556640625 l 2,5,6
 1080 -8.3115234375 1080 -8.3115234375 1034.10742188 -54.150390625 c 128,-1,7
 988.21484375 -99.9892578125 988.21484375 -99.9892578125 923.822265625 -99.9892578125 c 2,8,-1
 236.177734375 -99.9892578125 l 2,9,10
 171.78125 -99.9892578125 171.78125 -99.9892578125 125.890625 -54.1513671875 c 128,-1,11
 80 -8.314453125 80 -8.314453125 80 56.0556640625 c 2,12,-1
 80 743.822265625 l 2,13,14
 80 808.20703125 80 808.20703125 125.896484375 854.103515625 c 128,-1,15
 171.79296875 900 171.79296875 900 236.177734375 900 c 2,0,-1
236.177734375 824.139648438 m 2,16,17
 202.315429688 824.139648438 202.315429688 824.139648438 179.088867188 800.913085938 c 128,-1,18
 155.86328125 777.6875 155.86328125 777.6875 155.86328125 743.82421875 c 2,19,-1
 155.86328125 56.0576171875 l 2,20,21
 155.86328125 22.201171875 155.86328125 22.201171875 179.0859375 -0.99609375 c 128,-1,22
 202.30859375 -24.193359375 202.30859375 -24.193359375 236.177734375 -24.193359375 c 2,23,-1
 923.822265625 -24.193359375 l 2,24,25
 957.697265625 -24.193359375 957.697265625 -24.193359375 980.94921875 -0.9931640625 c 128,-1,26
 1004.20117188 22.2080078125 1004.20117188 22.2080078125 1004.20117188 56.0576171875 c 2,27,-1
 1004.20117188 743.82421875 l 2,28,29
 1004.20117188 777.680664062 1004.20117188 777.680664062 980.9453125 800.91015625 c 128,-1,30
 957.690429688 824.139648438 957.690429688 824.139648438 923.822265625 824.139648438 c 2,31,-1
 236.177734375 824.139648438 l 2,16,17
EndSplineSet
Validated: 1
EndChar

StartChar: uni0260
Encoding: 608 608 90
Width: 1160
VWidth: 100
Flags: W
LayerCount: 2
Fore
SplineSet
129.654296875 742.33203125 m 1,0,-1
 1030.34375 742.33203125 l 1,1,-1
 1030.34375 57.666015625 l 1,2,-1
 129.654296875 57.666015625 l 1,3,-1
 129.654296875 742.33203125 l 1,0,-1
313.131835938 690.987304688 m 128,-1,5
 271.2265625 690.987304688 271.2265625 690.987304688 241.569335938 661.330078125 c 128,-1,6
 211.912109375 631.672851562 211.912109375 631.672851562 211.912109375 589.767578125 c 128,-1,7
 211.912109375 547.86328125 211.912109375 547.86328125 241.569335938 518.205078125 c 128,-1,8
 271.2265625 488.547851562 271.2265625 488.547851562 313.131835938 488.547851562 c 128,-1,9
 355.037109375 488.547851562 355.037109375 488.547851562 384.6953125 518.205078125 c 128,-1,10
 414.352539062 547.862304688 414.352539062 547.862304688 414.352539062 589.767578125 c 128,-1,11
 414.352539062 631.672851562 414.352539062 631.672851562 384.6953125 661.330078125 c 128,-1,4
 355.037109375 690.987304688 355.037109375 690.987304688 313.131835938 690.987304688 c 128,-1,5
660.84375 442.62109375 m 1,12,-1
 492.143554688 261.732421875 l 1,13,-1
 418.571289062 337.178710938 l 1,14,-1
 193.170898438 111.779296875 l 1,15,-1
 964.504882812 111.779296875 l 1,16,-1
 660.84375 442.62109375 l 1,12,-1
EndSplineSet
Validated: 1
EndChar

StartChar: Utilde
Encoding: 360 360 91
Width: 1159
VWidth: 100
Flags: W
LayerCount: 2
Fore
SplineSet
80 722.322265625 m 1,0,-1
 112.588867188 722.322265625 l 1,1,-1
 112.588867188 77.6669921875 l 1,2,-1
 80 77.6669921875 l 1,3,-1
 80 722.322265625 l 1,0,-1
126.416992188 722.322265625 m 1,4,-1
 141.452148438 722.322265625 l 1,5,-1
 141.452148438 77.6669921875 l 1,6,-1
 126.416992188 77.6669921875 l 1,7,-1
 126.416992188 722.322265625 l 1,4,-1
147.0390625 722.322265625 m 1,8,-1
 160.981445312 722.322265625 l 1,9,-1
 160.981445312 77.6669921875 l 1,10,-1
 147.0390625 77.6669921875 l 1,11,-1
 147.0390625 722.322265625 l 1,8,-1
193.319335938 722.322265625 m 1,12,-1
 216.87109375 722.322265625 l 1,13,-1
 216.87109375 77.6669921875 l 1,14,-1
 193.319335938 77.6669921875 l 1,15,-1
 193.319335938 722.322265625 l 1,12,-1
222.458007812 722.322265625 m 1,16,-1
 249.610351562 722.322265625 l 1,17,-1
 249.610351562 77.6669921875 l 1,18,-1
 222.458007812 77.6669921875 l 1,19,-1
 222.458007812 722.322265625 l 1,16,-1
263.4375 722.322265625 m 1,20,-1
 292.290039062 722.322265625 l 1,21,-1
 292.290039062 77.6669921875 l 1,22,-1
 263.4375 77.6669921875 l 1,23,-1
 263.4375 722.322265625 l 1,20,-1
297.876953125 722.322265625 m 1,24,-1
 314.63671875 722.322265625 l 1,25,-1
 314.63671875 77.6669921875 l 1,26,-1
 297.876953125 77.6669921875 l 1,27,-1
 297.876953125 722.322265625 l 1,24,-1
320.223632812 722.322265625 m 1,28,-1
 336.983398438 722.322265625 l 1,29,-1
 336.983398438 77.6669921875 l 1,30,-1
 320.223632812 77.6669921875 l 1,31,-1
 320.223632812 722.322265625 l 1,28,-1
342.5703125 722.322265625 m 1,32,-1
 345.36328125 722.322265625 l 1,33,-1
 345.36328125 77.6669921875 l 1,34,-1
 342.5703125 77.6669921875 l 1,35,-1
 342.5703125 722.322265625 l 1,32,-1
350.950195312 722.322265625 m 1,36,-1
 383.922851562 722.322265625 l 1,37,-1
 383.922851562 77.6669921875 l 1,38,-1
 350.950195312 77.6669921875 l 1,39,-1
 350.950195312 722.322265625 l 1,36,-1
410.67578125 722.322265625 m 1,40,-1
 434.749023438 722.322265625 l 1,41,-1
 434.749023438 77.6669921875 l 1,42,-1
 410.67578125 77.6669921875 l 1,43,-1
 410.67578125 722.322265625 l 1,40,-1
440.333984375 722.322265625 m 1,44,-1
 479.802734375 722.322265625 l 1,45,-1
 479.802734375 77.6669921875 l 1,46,-1
 440.333984375 77.6669921875 l 1,47,-1
 440.333984375 722.322265625 l 1,44,-1
500.967773438 722.322265625 m 1,48,-1
 550.346679688 722.322265625 l 1,49,-1
 550.346679688 77.6669921875 l 1,50,-1
 500.967773438 77.6669921875 l 1,51,-1
 500.967773438 722.322265625 l 1,48,-1
564.172851562 722.322265625 m 1,52,-1
 575.684570312 722.322265625 l 1,53,-1
 575.684570312 77.6669921875 l 1,54,-1
 564.172851562 77.6669921875 l 1,55,-1
 564.172851562 722.322265625 l 1,52,-1
589.51171875 722.322265625 m 1,56,-1
 619.204101562 722.322265625 l 1,57,-1
 619.204101562 77.6669921875 l 1,58,-1
 589.51171875 77.6669921875 l 1,59,-1
 589.51171875 722.322265625 l 1,56,-1
624.791015625 722.322265625 m 1,60,-1
 661.83203125 722.322265625 l 1,61,-1
 661.83203125 77.6669921875 l 1,62,-1
 624.791015625 77.6669921875 l 1,63,-1
 624.791015625 722.322265625 l 1,60,-1
675.65625 722.322265625 m 1,64,-1
 694.522460938 722.322265625 l 1,65,-1
 694.522460938 77.6669921875 l 1,66,-1
 675.65625 77.6669921875 l 1,67,-1
 675.65625 722.322265625 l 1,64,-1
700.108398438 722.322265625 m 1,68,-1
 725.248046875 722.322265625 l 1,69,-1
 725.248046875 77.6669921875 l 1,70,-1
 700.108398438 77.6669921875 l 1,71,-1
 700.108398438 722.322265625 l 1,68,-1
730.833984375 722.322265625 m 1,72,-1
 759.15234375 722.322265625 l 1,73,-1
 759.15234375 77.6669921875 l 1,74,-1
 730.833984375 77.6669921875 l 1,75,-1
 730.833984375 722.322265625 l 1,72,-1
772.9765625 722.322265625 m 1,76,-1
 814.6328125 722.322265625 l 1,77,-1
 814.6328125 77.6669921875 l 1,78,-1
 772.9765625 77.6669921875 l 1,79,-1
 772.9765625 722.322265625 l 1,76,-1
820.21875 722.322265625 m 1,80,-1
 823.01171875 722.322265625 l 1,81,-1
 823.01171875 77.6669921875 l 1,82,-1
 820.21875 77.6669921875 l 1,83,-1
 820.21875 722.322265625 l 1,80,-1
828.598632812 722.322265625 m 1,84,-1
 839.771484375 722.322265625 l 1,85,-1
 839.771484375 77.6669921875 l 1,86,-1
 828.598632812 77.6669921875 l 1,87,-1
 828.598632812 722.322265625 l 1,84,-1
845.358398438 722.322265625 m 1,88,-1
 873.708007812 722.322265625 l 1,89,-1
 873.708007812 77.6669921875 l 1,90,-1
 845.358398438 77.6669921875 l 1,91,-1
 845.358398438 722.322265625 l 1,88,-1
900.459960938 722.322265625 m 1,92,-1
 926.36328125 722.322265625 l 1,93,-1
 926.36328125 77.6669921875 l 1,94,-1
 900.459960938 77.6669921875 l 1,95,-1
 900.459960938 722.322265625 l 1,92,-1
931.94921875 722.322265625 m 1,96,-1
 965.640625 722.322265625 l 1,97,-1
 965.640625 77.6669921875 l 1,98,-1
 931.94921875 77.6669921875 l 1,99,-1
 931.94921875 722.322265625 l 1,96,-1
979.46484375 722.322265625 m 1,100,-1
 1004.57421875 722.322265625 l 1,101,-1
 1004.57421875 77.6669921875 l 1,102,-1
 979.46484375 77.6669921875 l 1,103,-1
 979.46484375 722.322265625 l 1,100,-1
1015.74707031 722.322265625 m 1,104,-1
 1035.30078125 722.322265625 l 1,105,-1
 1035.30078125 77.6669921875 l 1,106,-1
 1015.74707031 77.6669921875 l 1,107,-1
 1015.74707031 722.322265625 l 1,104,-1
1046.47265625 722.322265625 m 1,108,-1
 1079.9921875 722.322265625 l 1,109,-1
 1079.9921875 77.6669921875 l 1,110,-1
 1046.47265625 77.6669921875 l 1,111,-1
 1046.47265625 722.322265625 l 1,108,-1
EndSplineSet
Validated: 2049
EndChar

StartChar: uni0261
Encoding: 609 609 92
Width: 1160
VWidth: 100
Flags: W
LayerCount: 2
Fore
SplineSet
80 753.666992188 m 1,0,-1
 1080 753.666992188 l 1,1,-1
 1080 46.3330078125 l 1,2,-1
 80 46.3330078125 l 1,3,-1
 80 731.366210938 l 1,4,-1
 80 753.666992188 l 1,0,-1
124.5859375 709.065429688 m 1,5,-1
 124.5859375 533.654296875 l 1,6,-1
 352.107421875 533.654296875 l 1,7,-1
 352.107421875 709.065429688 l 1,8,-1
 124.5859375 709.065429688 l 1,5,-1
396.696289062 709.065429688 m 1,9,-1
 396.696289062 533.654296875 l 1,10,-1
 1035.40820312 533.654296875 l 1,11,-1
 1035.40820312 709.065429688 l 1,12,-1
 396.696289062 709.065429688 l 1,9,-1
124.5859375 489.0546875 m 1,13,-1
 124.5859375 313.487304688 l 1,14,-1
 352.107421875 313.487304688 l 1,15,-1
 352.107421875 489.0546875 l 1,16,-1
 124.5859375 489.0546875 l 1,13,-1
396.696289062 489.0546875 m 1,17,-1
 396.696289062 313.487304688 l 1,18,-1
 1035.40820312 313.487304688 l 1,19,-1
 1035.40820312 489.0546875 l 1,20,-1
 396.696289062 489.0546875 l 1,17,-1
124.5859375 268.8984375 m 1,21,-1
 124.5859375 90.9326171875 l 1,22,-1
 352.107421875 90.9326171875 l 1,23,-1
 352.107421875 268.8984375 l 1,24,-1
 124.5859375 268.8984375 l 1,21,-1
396.696289062 268.8984375 m 1,25,-1
 396.696289062 90.9326171875 l 1,26,-1
 1035.40820312 90.9326171875 l 1,27,-1
 1035.40820312 268.8984375 l 1,28,-1
 396.696289062 268.8984375 l 1,25,-1
EndSplineSet
Validated: 1
EndChar

StartChar: uni0262
Encoding: 610 610 93
Width: 1159
VWidth: 100
Flags: W
LayerCount: 2
Fore
SplineSet
93.8408203125 757.700195312 m 2,0,-1
 1066.05175781 757.696289062 l 2,1,2
 1071.78125 757.6875 1071.78125 757.6875 1075.83300781 753.63671875 c 128,-1,3
 1079.88378906 749.584960938 1079.88378906 749.584960938 1079.89355469 743.85546875 c 2,4,-1
 1079.89355469 56.14453125 l 2,5,6
 1079.88378906 50.4150390625 1079.88378906 50.4150390625 1075.83300781 46.3642578125 c 128,-1,7
 1071.78125 42.3125 1071.78125 42.3125 1066.05175781 42.3037109375 c 2,8,-1
 93.8408203125 42.3037109375 l 2,9,10
 88.111328125 42.3125 88.111328125 42.3125 84.060546875 46.36328125 c 128,-1,11
 80.009765625 50.4150390625 80.009765625 50.4150390625 80 56.14453125 c 2,12,-1
 80 743.85546875 l 2,13,14
 80.009765625 749.58203125 80.009765625 749.58203125 84.0615234375 753.63671875 c 128,-1,15
 88.11328125 757.69140625 88.11328125 757.69140625 93.8408203125 757.700195312 c 2,0,-1
151.008789062 686.639648438 m 1,16,-1
 151.008789062 543.795898438 l 1,17,-1
 344.53125 543.795898438 l 1,18,-1
 344.53125 686.639648438 l 1,19,-1
 151.008789062 686.639648438 l 1,16,-1
415.59765625 686.639648438 m 1,20,-1
 415.59765625 543.795898438 l 1,21,-1
 1008.88671875 543.795898438 l 1,22,-1
 1008.88671875 686.639648438 l 1,23,-1
 415.59765625 686.639648438 l 1,20,-1
151.008789062 472.740234375 m 1,24,-1
 151.008789062 329.740234375 l 1,25,-1
 344.53125 329.740234375 l 1,26,-1
 344.53125 472.740234375 l 1,27,-1
 151.008789062 472.740234375 l 1,24,-1
415.59765625 472.740234375 m 1,28,-1
 415.59765625 329.740234375 l 1,29,-1
 1008.88671875 329.740234375 l 1,30,-1
 1008.88671875 472.740234375 l 1,31,-1
 415.59765625 472.740234375 l 1,28,-1
151.008789062 258.740234375 m 1,32,-1
 151.008789062 113.373046875 l 1,33,-1
 344.53125 113.373046875 l 1,34,-1
 344.53125 258.740234375 l 1,35,-1
 151.008789062 258.740234375 l 1,32,-1
415.59765625 258.740234375 m 1,36,-1
 415.59765625 113.373046875 l 1,37,-1
 1008.88671875 113.373046875 l 1,38,-1
 1008.88671875 258.740234375 l 1,39,-1
 415.59765625 258.740234375 l 1,36,-1
EndSplineSet
Validated: 1
EndChar

StartChar: uni0263
Encoding: 611 611 94
Width: 1160
VWidth: 100
Flags: W
LayerCount: 2
Fore
SplineSet
80 739.555664062 m 1,0,-1
 204.06640625 739.555664062 l 1,1,-1
 328.133789062 739.555664062 l 1,2,-1
 328.133789062 643.473632812 l 1,3,-1
 328.133789062 547.390625 l 1,4,-1
 204.06640625 547.390625 l 1,5,-1
 80 547.390625 l 1,6,-1
 80 643.473632812 l 1,7,-1
 80 739.555664062 l 1,0,-1
378.510742188 739.555664062 m 1,8,-1
 729.255859375 739.555664062 l 1,9,-1
 1080 739.555664062 l 1,10,-1
 1080 643.473632812 l 1,11,-1
 1080 547.390625 l 1,12,-1
 729.255859375 547.390625 l 1,13,-1
 378.510742188 547.390625 l 1,14,-1
 378.510742188 643.473632812 l 1,15,-1
 378.510742188 739.555664062 l 1,8,-1
80 497.010742188 m 1,16,-1
 204.06640625 497.010742188 l 1,17,-1
 328.133789062 497.010742188 l 1,18,-1
 328.133789062 400.928710938 l 1,19,-1
 328.133789062 304.846679688 l 1,20,-1
 204.06640625 304.846679688 l 1,21,-1
 80 304.846679688 l 1,22,-1
 80 400.928710938 l 1,23,-1
 80 497.010742188 l 1,16,-1
378.510742188 497.010742188 m 1,24,-1
 729.255859375 497.010742188 l 1,25,-1
 1080 497.010742188 l 1,26,-1
 1080 400.928710938 l 1,27,-1
 1080 304.846679688 l 1,28,-1
 729.255859375 304.846679688 l 1,29,-1
 378.510742188 304.846679688 l 1,30,-1
 378.510742188 400.928710938 l 1,31,-1
 378.510742188 497.010742188 l 1,24,-1
80 254.477539062 m 1,32,-1
 204.06640625 254.477539062 l 1,33,-1
 328.133789062 254.477539062 l 1,34,-1
 328.133789062 157.462890625 l 1,35,-1
 328.133789062 60.44921875 l 1,36,-1
 204.06640625 60.44921875 l 1,37,-1
 80 60.44921875 l 1,38,-1
 80 157.462890625 l 1,39,-1
 80 254.477539062 l 1,32,-1
378.510742188 254.477539062 m 1,40,-1
 729.255859375 254.477539062 l 1,41,-1
 1080 254.477539062 l 1,42,-1
 1080 157.462890625 l 1,43,-1
 1080 60.44921875 l 1,44,-1
 729.255859375 60.44921875 l 1,45,-1
 378.510742188 60.44921875 l 1,46,-1
 378.510742188 157.462890625 l 1,47,-1
 378.510742188 254.477539062 l 1,40,-1
EndSplineSet
Validated: 1
EndChar

StartChar: uni0264
Encoding: 612 612 95
Width: 1160
VWidth: 100
Flags: W
LayerCount: 2
Fore
SplineSet
80 726.244140625 m 1,0,-1
 268.010742188 726.244140625 l 1,1,-1
 268.010742188 600.888671875 l 1,2,-1
 80 600.888671875 l 1,3,-1
 80 726.244140625 l 1,0,-1
401.93359375 726.244140625 m 1,4,-1
 1080.11132812 726.244140625 l 1,5,-1
 1080.11132812 600.888671875 l 1,6,-1
 401.93359375 600.888671875 l 1,7,-1
 401.93359375 726.244140625 l 1,4,-1
80 464.06640625 m 1,8,-1
 268.010742188 464.06640625 l 1,9,-1
 268.010742188 338.7109375 l 1,10,-1
 80 338.7109375 l 1,11,-1
 80 464.06640625 l 1,8,-1
401.93359375 464.06640625 m 1,12,-1
 1080.11132812 464.06640625 l 1,13,-1
 1080.11132812 338.7109375 l 1,14,-1
 401.93359375 338.7109375 l 1,15,-1
 401.93359375 464.06640625 l 1,12,-1
80 201.944335938 m 1,16,-1
 268.010742188 201.944335938 l 1,17,-1
 268.010742188 73.755859375 l 1,18,-1
 80 73.755859375 l 1,19,-1
 80 201.944335938 l 1,16,-1
401.93359375 201.944335938 m 1,20,-1
 1080.11132812 201.944335938 l 1,21,-1
 1080.11132812 73.755859375 l 1,22,-1
 401.93359375 73.755859375 l 1,23,-1
 401.93359375 201.944335938 l 1,20,-1
EndSplineSet
Validated: 1
EndChar

StartChar: tilde
Encoding: 732 732 96
Width: 1164
Flags: W
LayerCount: 2
Fore
SplineSet
878.5 904 m 260,0,1
 889.5 904 889.5 904 897.5 896 c 6,2,-1
 1069.5 724 l 6,3,4
 1088.5 705 1088.5 705 1069.5 686 c 6,5,-1
 790.5 407 l 5,6,-1
 1074.5 123 l 6,7,8
 1094.5 104 1094.5 104 1074.5 84 c 6,9,-1
 903.5 -87 l 6,10,11
 884.5 -106 884.5 -106 865.5 -87 c 6,12,-1
 580.5 198 l 5,13,-1
 298.5 -84 l 6,14,15
 279.5 -103 279.5 -103 260.5 -84 c 6,16,-1
 89.5 87 l 6,17,18
 70.5 106 70.5 106 89.5 125 c 6,19,-1
 371.5 407 l 5,20,-1
 95.5 683 l 6,21,22
 76.5 702 76.5 702 95.5 721 c 6,23,-1
 266.5 892 l 6,24,25
 286.5 912 286.5 912 305.5 892 c 6,26,-1
 580.5 617 l 5,27,-1
 859.5 896 l 6,28,29
 867.5 904 867.5 904 878.5 904 c 260,0,1
EndSplineSet
Validated: 33
EndChar

StartChar: uni01B7
Encoding: 439 439 97
Width: 1152
Flags: W
LayerCount: 2
Fore
SplineSet
576 899 m 128,-1,1
 782 899 782 899 927 753.5 c 128,-1,2
 1072 608 1072 608 1072 402.5 c 128,-1,3
 1072 197 1072 197 927 51.5 c 128,-1,4
 782 -94 782 -94 576 -94 c 128,-1,5
 370 -94 370 -94 225 51 c 0,6,7
 80 197 80 197 80 403 c 128,-1,8
 80 609 80 609 225 754 c 256,9,0
 370 899 370 899 576 899 c 128,-1,1
519 689 m 0,10,11
 493 688 493 688 474 669 c 2,12,-1
 257 452 l 1,13,14
 232 433 232 433 232 401 c 0,15,16
 232 373 232 373 252 354 c 2,17,-1
 470 136 l 2,18,19
 489 116 489 116 517 116 c 0,20,21
 544 116 544 116 563 135.5 c 128,-1,22
 582 155 582 155 582 182 c 256,23,24
 582 209 582 209 562 229 c 2,25,-1
 455 335 l 1,26,-1
 853 335 l 1,27,-1
 854 335 l 2,28,29
 881 335 881 335 900.5 354.5 c 128,-1,30
 920 374 920 374 920 401 c 128,-1,31
 920 428 920 428 900.5 447 c 128,-1,32
 881 466 881 466 854 466 c 2,33,-1
 853 466 l 1,34,-1
 456 466 l 1,35,-1
 567 577 l 2,36,37
 586 596 586 596 586 623 c 256,38,39
 586 650 586 650 567 669.5 c 128,-1,40
 548 689 548 689 521 689 c 0,41,42
 520 689 520 689 519 689 c 0,10,11
EndSplineSet
Validated: 1
EndChar

StartChar: uni01B8
Encoding: 440 440 98
Width: 1152
Flags: W
LayerCount: 2
Fore
SplineSet
1072 402.5 m 128,-1,1
 1072 197 1072 197 927 51.5 c 128,-1,2
 782 -94 782 -94 576 -94 c 128,-1,3
 370 -94 370 -94 225 51.5 c 128,-1,4
 80 197 80 197 80 402.5 c 128,-1,5
 80 608 80 608 225 754 c 0,6,7
 370 899 370 899 576 899 c 128,-1,8
 782 899 782 899 927 754 c 0,9,0
 1072 608 1072 608 1072 402.5 c 128,-1,1
862 459 m 0,10,11
 861 486 861 486 842 504 c 2,12,-1
 626 721 l 2,13,14
 606 746 606 746 574 746 c 0,15,16
 547 746 547 746 527 726 c 2,17,-1
 310 509 l 2,18,19
 290 489 290 489 290 462 c 256,20,21
 290 435 290 435 309 415.5 c 128,-1,22
 328 396 328 396 355 396 c 0,23,24
 383 396 383 396 402 416 c 2,25,-1
 509 523 l 1,26,-1
 509 125 l 1,27,-1
 509 124 l 2,28,29
 509 97 509 97 528 78 c 128,-1,30
 547 59 547 59 574 59 c 128,-1,31
 601 59 601 59 620 78 c 128,-1,32
 639 97 639 97 639 124 c 2,33,-1
 639 125 l 1,34,-1
 639 523 l 1,35,-1
 750 412 l 2,36,37
 769 392 769 392 797 392 c 0,38,39
 824 392 824 392 843 411 c 128,-1,40
 862 430 862 430 862 457 c 0,41,42
 862 458 862 458 862 459 c 0,10,11
EndSplineSet
Validated: 1
EndChar

StartChar: uni01B9
Encoding: 441 441 99
Width: 1152
Flags: W
LayerCount: 2
Fore
SplineSet
576 899 m 128,-1,1
 782 899 782 899 927 754 c 256,2,3
 1072 609 1072 609 1072 403 c 128,-1,4
 1072 197 1072 197 927 51 c 0,5,6
 782 -94 782 -94 576 -94 c 128,-1,7
 370 -94 370 -94 225 51.5 c 128,-1,8
 80 197 80 197 80 402.5 c 128,-1,9
 80 608 80 608 225 753.5 c 128,-1,0
 370 899 370 899 576 899 c 128,-1,1
633 689 m 0,10,11
 632 689 632 689 631 689 c 0,12,13
 604 689 604 689 585 669.5 c 128,-1,14
 566 650 566 650 566 623 c 256,15,16
 566 596 566 596 585 577 c 2,17,-1
 696 466 l 1,18,-1
 299 466 l 1,19,-1
 298 466 l 2,20,21
 271 466 271 466 251.5 447 c 128,-1,22
 232 428 232 428 232 401 c 128,-1,23
 232 374 232 374 251.5 354.5 c 128,-1,24
 271 335 271 335 298 335 c 2,25,-1
 299 335 l 1,26,-1
 697 335 l 1,27,-1
 590 229 l 2,28,29
 570 209 570 209 570 182 c 256,30,31
 570 155 570 155 589 135.5 c 128,-1,32
 608 116 608 116 635 116 c 0,33,34
 663 116 663 116 682 136 c 2,35,-1
 900 354 l 2,36,37
 920 373 920 373 920 401 c 0,38,39
 920 433 920 433 895 452 c 1,40,-1
 678 669 l 2,41,42
 659 688 659 688 633 689 c 0,10,11
EndSplineSet
Validated: 1
EndChar

StartChar: uni01BA
Encoding: 442 442 100
Width: 1152
Flags: W
LayerCount: 2
Fore
SplineSet
1072 402.5 m 128,-1,1
 1072 197 1072 197 927 51 c 0,2,3
 782 -94 782 -94 576 -94 c 128,-1,4
 370 -94 370 -94 225 51 c 0,5,6
 80 197 80 197 80 402.5 c 128,-1,7
 80 608 80 608 225 753.5 c 128,-1,8
 370 899 370 899 576 899 c 128,-1,9
 782 899 782 899 927 753.5 c 128,-1,0
 1072 608 1072 608 1072 402.5 c 128,-1,1
862 346 m 0,10,11
 862 347 862 347 862 348 c 0,12,13
 862 375 862 375 843 394 c 128,-1,14
 824 413 824 413 797 413 c 0,15,16
 769 413 769 413 750 393 c 2,17,-1
 639 283 l 1,18,-1
 639 680 l 1,19,-1
 639 681 l 2,20,21
 639 708 639 708 620 727 c 128,-1,22
 601 746 601 746 574 746 c 128,-1,23
 547 746 547 746 528 727 c 128,-1,24
 509 708 509 708 509 681 c 2,25,-1
 509 680 l 1,26,-1
 509 282 l 1,27,-1
 402 389 l 2,28,29
 383 409 383 409 355 409 c 0,30,31
 328 409 328 409 309 389.5 c 128,-1,32
 290 370 290 370 290 343 c 256,33,34
 290 316 290 316 310 296 c 2,35,-1
 527 79 l 2,36,37
 547 59 547 59 574 59 c 0,38,39
 606 59 606 59 626 84 c 2,40,-1
 842 301 l 2,41,42
 861 319 861 319 862 346 c 0,10,11
EndSplineSet
Validated: 1
EndChar

StartChar: uni035A
Encoding: 858 858 101
Width: 1164
Flags: W
LayerCount: 2
Fore
SplineSet
878.5 904 m 260,0,1
 889.5 904 889.5 904 897.5 896 c 6,2,-1
 1069.5 724 l 6,3,4
 1088.5 705 1088.5 705 1069.5 686 c 6,5,-1
 790.5 407 l 5,6,-1
 1074.5 123 l 6,7,8
 1094.5 104 1094.5 104 1074.5 84 c 6,9,-1
 903.5 -87 l 6,10,11
 884.5 -106 884.5 -106 865.5 -87 c 6,12,-1
 580.5 198 l 5,13,-1
 298.5 -84 l 6,14,15
 279.5 -103 279.5 -103 260.5 -84 c 6,16,-1
 89.5 87 l 6,17,18
 70.5 106 70.5 106 89.5 125 c 6,19,-1
 371.5 407 l 5,20,-1
 95.5 683 l 6,21,22
 76.5 702 76.5 702 95.5 721 c 6,23,-1
 266.5 892 l 6,24,25
 286.5 912 286.5 912 305.5 892 c 6,26,-1
 580.5 617 l 5,27,-1
 859.5 896 l 6,28,29
 867.5 904 867.5 904 878.5 904 c 260,0,1
EndSplineSet
Validated: 33
EndChar

StartChar: uni035B
Encoding: 859 859 102
Width: 1164
Flags: W
LayerCount: 2
Fore
SplineSet
878.5 904 m 260,0,1
 889.5 904 889.5 904 897.5 896 c 6,2,-1
 1069.5 724 l 6,3,4
 1088.5 705 1088.5 705 1069.5 686 c 6,5,-1
 790.5 407 l 5,6,-1
 1074.5 123 l 6,7,8
 1094.5 104 1094.5 104 1074.5 84 c 6,9,-1
 903.5 -87 l 6,10,11
 884.5 -106 884.5 -106 865.5 -87 c 6,12,-1
 580.5 198 l 5,13,-1
 298.5 -84 l 6,14,15
 279.5 -103 279.5 -103 260.5 -84 c 6,16,-1
 89.5 87 l 6,17,18
 70.5 106 70.5 106 89.5 125 c 6,19,-1
 371.5 407 l 5,20,-1
 95.5 683 l 6,21,22
 76.5 702 76.5 702 95.5 721 c 6,23,-1
 266.5 892 l 6,24,25
 286.5 912 286.5 912 305.5 892 c 6,26,-1
 580.5 617 l 5,27,-1
 859.5 896 l 6,28,29
 867.5 904 867.5 904 878.5 904 c 260,0,1
EndSplineSet
Validated: 33
EndChar

StartChar: uni035C
Encoding: 860 860 103
Width: 1164
Flags: W
LayerCount: 2
Fore
SplineSet
878.5 904 m 260,0,1
 889.5 904 889.5 904 897.5 896 c 6,2,-1
 1069.5 724 l 6,3,4
 1088.5 705 1088.5 705 1069.5 686 c 6,5,-1
 790.5 407 l 5,6,-1
 1074.5 123 l 6,7,8
 1094.5 104 1094.5 104 1074.5 84 c 6,9,-1
 903.5 -87 l 6,10,11
 884.5 -106 884.5 -106 865.5 -87 c 6,12,-1
 580.5 198 l 5,13,-1
 298.5 -84 l 6,14,15
 279.5 -103 279.5 -103 260.5 -84 c 6,16,-1
 89.5 87 l 6,17,18
 70.5 106 70.5 106 89.5 125 c 6,19,-1
 371.5 407 l 5,20,-1
 95.5 683 l 6,21,22
 76.5 702 76.5 702 95.5 721 c 6,23,-1
 266.5 892 l 6,24,25
 286.5 912 286.5 912 305.5 892 c 6,26,-1
 580.5 617 l 5,27,-1
 859.5 896 l 6,28,29
 867.5 904 867.5 904 878.5 904 c 260,0,1
EndSplineSet
Validated: 33
EndChar

StartChar: uni035D
Encoding: 861 861 104
Width: 1164
Flags: W
LayerCount: 2
Fore
SplineSet
878.5 904 m 260,0,1
 889.5 904 889.5 904 897.5 896 c 6,2,-1
 1069.5 724 l 6,3,4
 1088.5 705 1088.5 705 1069.5 686 c 6,5,-1
 790.5 407 l 5,6,-1
 1074.5 123 l 6,7,8
 1094.5 104 1094.5 104 1074.5 84 c 6,9,-1
 903.5 -87 l 6,10,11
 884.5 -106 884.5 -106 865.5 -87 c 6,12,-1
 580.5 198 l 5,13,-1
 298.5 -84 l 6,14,15
 279.5 -103 279.5 -103 260.5 -84 c 6,16,-1
 89.5 87 l 6,17,18
 70.5 106 70.5 106 89.5 125 c 6,19,-1
 371.5 407 l 5,20,-1
 95.5 683 l 6,21,22
 76.5 702 76.5 702 95.5 721 c 6,23,-1
 266.5 892 l 6,24,25
 286.5 912 286.5 912 305.5 892 c 6,26,-1
 580.5 617 l 5,27,-1
 859.5 896 l 6,28,29
 867.5 904 867.5 904 878.5 904 c 260,0,1
EndSplineSet
Validated: 33
EndChar

StartChar: uni035E
Encoding: 862 862 105
Width: 1164
Flags: W
LayerCount: 2
Fore
SplineSet
878.5 904 m 260,0,1
 889.5 904 889.5 904 897.5 896 c 6,2,-1
 1069.5 724 l 6,3,4
 1088.5 705 1088.5 705 1069.5 686 c 6,5,-1
 790.5 407 l 5,6,-1
 1074.5 123 l 6,7,8
 1094.5 104 1094.5 104 1074.5 84 c 6,9,-1
 903.5 -87 l 6,10,11
 884.5 -106 884.5 -106 865.5 -87 c 6,12,-1
 580.5 198 l 5,13,-1
 298.5 -84 l 6,14,15
 279.5 -103 279.5 -103 260.5 -84 c 6,16,-1
 89.5 87 l 6,17,18
 70.5 106 70.5 106 89.5 125 c 6,19,-1
 371.5 407 l 5,20,-1
 95.5 683 l 6,21,22
 76.5 702 76.5 702 95.5 721 c 6,23,-1
 266.5 892 l 6,24,25
 286.5 912 286.5 912 305.5 892 c 6,26,-1
 580.5 617 l 5,27,-1
 859.5 896 l 6,28,29
 867.5 904 867.5 904 878.5 904 c 260,0,1
EndSplineSet
Validated: 33
EndChar

StartChar: uni035F
Encoding: 863 863 106
Width: 1164
Flags: W
LayerCount: 2
Fore
SplineSet
878.5 904 m 260,0,1
 889.5 904 889.5 904 897.5 896 c 6,2,-1
 1069.5 724 l 6,3,4
 1088.5 705 1088.5 705 1069.5 686 c 6,5,-1
 790.5 407 l 5,6,-1
 1074.5 123 l 6,7,8
 1094.5 104 1094.5 104 1074.5 84 c 6,9,-1
 903.5 -87 l 6,10,11
 884.5 -106 884.5 -106 865.5 -87 c 6,12,-1
 580.5 198 l 5,13,-1
 298.5 -84 l 6,14,15
 279.5 -103 279.5 -103 260.5 -84 c 6,16,-1
 89.5 87 l 6,17,18
 70.5 106 70.5 106 89.5 125 c 6,19,-1
 371.5 407 l 5,20,-1
 95.5 683 l 6,21,22
 76.5 702 76.5 702 95.5 721 c 6,23,-1
 266.5 892 l 6,24,25
 286.5 912 286.5 912 305.5 892 c 6,26,-1
 580.5 617 l 5,27,-1
 859.5 896 l 6,28,29
 867.5 904 867.5 904 878.5 904 c 260,0,1
EndSplineSet
Validated: 33
EndChar

StartChar: uni0360
Encoding: 864 864 107
Width: 1164
Flags: W
LayerCount: 2
Fore
SplineSet
878.5 904 m 260,0,1
 889.5 904 889.5 904 897.5 896 c 6,2,-1
 1069.5 724 l 6,3,4
 1088.5 705 1088.5 705 1069.5 686 c 6,5,-1
 790.5 407 l 5,6,-1
 1074.5 123 l 6,7,8
 1094.5 104 1094.5 104 1074.5 84 c 6,9,-1
 903.5 -87 l 6,10,11
 884.5 -106 884.5 -106 865.5 -87 c 6,12,-1
 580.5 198 l 5,13,-1
 298.5 -84 l 6,14,15
 279.5 -103 279.5 -103 260.5 -84 c 6,16,-1
 89.5 87 l 6,17,18
 70.5 106 70.5 106 89.5 125 c 6,19,-1
 371.5 407 l 5,20,-1
 95.5 683 l 6,21,22
 76.5 702 76.5 702 95.5 721 c 6,23,-1
 266.5 892 l 6,24,25
 286.5 912 286.5 912 305.5 892 c 6,26,-1
 580.5 617 l 5,27,-1
 859.5 896 l 6,28,29
 867.5 904 867.5 904 878.5 904 c 260,0,1
EndSplineSet
Validated: 33
EndChar

StartChar: uni0361
Encoding: 865 865 108
Width: 1164
Flags: W
LayerCount: 2
Fore
SplineSet
878.5 904 m 260,0,1
 889.5 904 889.5 904 897.5 896 c 6,2,-1
 1069.5 724 l 6,3,4
 1088.5 705 1088.5 705 1069.5 686 c 6,5,-1
 790.5 407 l 5,6,-1
 1074.5 123 l 6,7,8
 1094.5 104 1094.5 104 1074.5 84 c 6,9,-1
 903.5 -87 l 6,10,11
 884.5 -106 884.5 -106 865.5 -87 c 6,12,-1
 580.5 198 l 5,13,-1
 298.5 -84 l 6,14,15
 279.5 -103 279.5 -103 260.5 -84 c 6,16,-1
 89.5 87 l 6,17,18
 70.5 106 70.5 106 89.5 125 c 6,19,-1
 371.5 407 l 5,20,-1
 95.5 683 l 6,21,22
 76.5 702 76.5 702 95.5 721 c 6,23,-1
 266.5 892 l 6,24,25
 286.5 912 286.5 912 305.5 892 c 6,26,-1
 580.5 617 l 5,27,-1
 859.5 896 l 6,28,29
 867.5 904 867.5 904 878.5 904 c 260,0,1
EndSplineSet
Validated: 33
EndChar

StartChar: uni0362
Encoding: 866 866 109
Width: 1164
Flags: W
LayerCount: 2
Fore
SplineSet
878.5 904 m 260,0,1
 889.5 904 889.5 904 897.5 896 c 6,2,-1
 1069.5 724 l 6,3,4
 1088.5 705 1088.5 705 1069.5 686 c 6,5,-1
 790.5 407 l 5,6,-1
 1074.5 123 l 6,7,8
 1094.5 104 1094.5 104 1074.5 84 c 6,9,-1
 903.5 -87 l 6,10,11
 884.5 -106 884.5 -106 865.5 -87 c 6,12,-1
 580.5 198 l 5,13,-1
 298.5 -84 l 6,14,15
 279.5 -103 279.5 -103 260.5 -84 c 6,16,-1
 89.5 87 l 6,17,18
 70.5 106 70.5 106 89.5 125 c 6,19,-1
 371.5 407 l 5,20,-1
 95.5 683 l 6,21,22
 76.5 702 76.5 702 95.5 721 c 6,23,-1
 266.5 892 l 6,24,25
 286.5 912 286.5 912 305.5 892 c 6,26,-1
 580.5 617 l 5,27,-1
 859.5 896 l 6,28,29
 867.5 904 867.5 904 878.5 904 c 260,0,1
EndSplineSet
Validated: 33
EndChar

StartChar: uni0363
Encoding: 867 867 110
Width: 1164
Flags: W
LayerCount: 2
Fore
SplineSet
878.5 904 m 260,0,1
 889.5 904 889.5 904 897.5 896 c 6,2,-1
 1069.5 724 l 6,3,4
 1088.5 705 1088.5 705 1069.5 686 c 6,5,-1
 790.5 407 l 5,6,-1
 1074.5 123 l 6,7,8
 1094.5 104 1094.5 104 1074.5 84 c 6,9,-1
 903.5 -87 l 6,10,11
 884.5 -106 884.5 -106 865.5 -87 c 6,12,-1
 580.5 198 l 5,13,-1
 298.5 -84 l 6,14,15
 279.5 -103 279.5 -103 260.5 -84 c 6,16,-1
 89.5 87 l 6,17,18
 70.5 106 70.5 106 89.5 125 c 6,19,-1
 371.5 407 l 5,20,-1
 95.5 683 l 6,21,22
 76.5 702 76.5 702 95.5 721 c 6,23,-1
 266.5 892 l 6,24,25
 286.5 912 286.5 912 305.5 892 c 6,26,-1
 580.5 617 l 5,27,-1
 859.5 896 l 6,28,29
 867.5 904 867.5 904 878.5 904 c 260,0,1
EndSplineSet
Validated: 33
EndChar

StartChar: uni025F
Encoding: 607 607 111
Width: 1160
VWidth: 100
Flags: W
LayerCount: 2
Fore
SplineSet
80 791.986328125 m 1,0,-1
 1080 791.993164062 l 1,1,-1
 1080 8.015625 l 1,2,-1
 80 8.015625 l 1,3,-1
 80 767.16015625 l 1,4,-1
 80 791.986328125 l 1,0,-1
129.654296875 742.33203125 m 1,5,-1
 129.654296875 57.666015625 l 1,6,-1
 1030.34375 57.666015625 l 1,7,-1
 1030.34375 742.33203125 l 1,8,-1
 129.654296875 742.33203125 l 1,5,-1
313.131835938 690.987304688 m 128,-1,10
 355.037109375 690.987304688 355.037109375 690.987304688 384.6953125 661.330078125 c 128,-1,11
 414.352539062 631.672851562 414.352539062 631.672851562 414.352539062 589.767578125 c 128,-1,12
 414.352539062 547.862304688 414.352539062 547.862304688 384.6953125 518.205078125 c 128,-1,13
 355.037109375 488.547851562 355.037109375 488.547851562 313.131835938 488.547851562 c 128,-1,14
 271.2265625 488.547851562 271.2265625 488.547851562 241.569335938 518.205078125 c 128,-1,15
 211.912109375 547.86328125 211.912109375 547.86328125 211.912109375 589.767578125 c 128,-1,16
 211.912109375 631.672851562 211.912109375 631.672851562 241.569335938 661.330078125 c 128,-1,9
 271.2265625 690.987304688 271.2265625 690.987304688 313.131835938 690.987304688 c 128,-1,10
660.84375 442.62109375 m 1,17,-1
 964.504882812 111.779296875 l 1,18,-1
 193.170898438 111.779296875 l 1,19,-1
 418.571289062 337.178710938 l 1,20,-1
 492.143554688 261.732421875 l 1,21,-1
 660.84375 442.62109375 l 1,17,-1
EndSplineSet
Validated: 1
EndChar

StartChar: uni0364
Encoding: 868 868 112
Width: 1164
Flags: W
LayerCount: 2
Fore
SplineSet
878.5 904 m 260,0,1
 889.5 904 889.5 904 897.5 896 c 6,2,-1
 1069.5 724 l 6,3,4
 1088.5 705 1088.5 705 1069.5 686 c 6,5,-1
 790.5 407 l 5,6,-1
 1074.5 123 l 6,7,8
 1094.5 104 1094.5 104 1074.5 84 c 6,9,-1
 903.5 -87 l 6,10,11
 884.5 -106 884.5 -106 865.5 -87 c 6,12,-1
 580.5 198 l 5,13,-1
 298.5 -84 l 6,14,15
 279.5 -103 279.5 -103 260.5 -84 c 6,16,-1
 89.5 87 l 6,17,18
 70.5 106 70.5 106 89.5 125 c 6,19,-1
 371.5 407 l 5,20,-1
 95.5 683 l 6,21,22
 76.5 702 76.5 702 95.5 721 c 6,23,-1
 266.5 892 l 6,24,25
 286.5 912 286.5 912 305.5 892 c 6,26,-1
 580.5 617 l 5,27,-1
 859.5 896 l 6,28,29
 867.5 904 867.5 904 878.5 904 c 260,0,1
EndSplineSet
Validated: 33
EndChar

StartChar: uni0365
Encoding: 869 869 113
Width: 1164
Flags: W
LayerCount: 2
Fore
SplineSet
878.5 904 m 260,0,1
 889.5 904 889.5 904 897.5 896 c 6,2,-1
 1069.5 724 l 6,3,4
 1088.5 705 1088.5 705 1069.5 686 c 6,5,-1
 790.5 407 l 5,6,-1
 1074.5 123 l 6,7,8
 1094.5 104 1094.5 104 1074.5 84 c 6,9,-1
 903.5 -87 l 6,10,11
 884.5 -106 884.5 -106 865.5 -87 c 6,12,-1
 580.5 198 l 5,13,-1
 298.5 -84 l 6,14,15
 279.5 -103 279.5 -103 260.5 -84 c 6,16,-1
 89.5 87 l 6,17,18
 70.5 106 70.5 106 89.5 125 c 6,19,-1
 371.5 407 l 5,20,-1
 95.5 683 l 6,21,22
 76.5 702 76.5 702 95.5 721 c 6,23,-1
 266.5 892 l 6,24,25
 286.5 912 286.5 912 305.5 892 c 6,26,-1
 580.5 617 l 5,27,-1
 859.5 896 l 6,28,29
 867.5 904 867.5 904 878.5 904 c 260,0,1
EndSplineSet
Validated: 33
EndChar

StartChar: uni0366
Encoding: 870 870 114
Width: 1164
Flags: W
LayerCount: 2
Fore
SplineSet
878.5 904 m 260,0,1
 889.5 904 889.5 904 897.5 896 c 6,2,-1
 1069.5 724 l 6,3,4
 1088.5 705 1088.5 705 1069.5 686 c 6,5,-1
 790.5 407 l 5,6,-1
 1074.5 123 l 6,7,8
 1094.5 104 1094.5 104 1074.5 84 c 6,9,-1
 903.5 -87 l 6,10,11
 884.5 -106 884.5 -106 865.5 -87 c 6,12,-1
 580.5 198 l 5,13,-1
 298.5 -84 l 6,14,15
 279.5 -103 279.5 -103 260.5 -84 c 6,16,-1
 89.5 87 l 6,17,18
 70.5 106 70.5 106 89.5 125 c 6,19,-1
 371.5 407 l 5,20,-1
 95.5 683 l 6,21,22
 76.5 702 76.5 702 95.5 721 c 6,23,-1
 266.5 892 l 6,24,25
 286.5 912 286.5 912 305.5 892 c 6,26,-1
 580.5 617 l 5,27,-1
 859.5 896 l 6,28,29
 867.5 904 867.5 904 878.5 904 c 260,0,1
EndSplineSet
Validated: 33
EndChar

StartChar: uni0367
Encoding: 871 871 115
Width: 1164
Flags: W
LayerCount: 2
Fore
SplineSet
878.5 904 m 260,0,1
 889.5 904 889.5 904 897.5 896 c 6,2,-1
 1069.5 724 l 6,3,4
 1088.5 705 1088.5 705 1069.5 686 c 6,5,-1
 790.5 407 l 5,6,-1
 1074.5 123 l 6,7,8
 1094.5 104 1094.5 104 1074.5 84 c 6,9,-1
 903.5 -87 l 6,10,11
 884.5 -106 884.5 -106 865.5 -87 c 6,12,-1
 580.5 198 l 5,13,-1
 298.5 -84 l 6,14,15
 279.5 -103 279.5 -103 260.5 -84 c 6,16,-1
 89.5 87 l 6,17,18
 70.5 106 70.5 106 89.5 125 c 6,19,-1
 371.5 407 l 5,20,-1
 95.5 683 l 6,21,22
 76.5 702 76.5 702 95.5 721 c 6,23,-1
 266.5 892 l 6,24,25
 286.5 912 286.5 912 305.5 892 c 6,26,-1
 580.5 617 l 5,27,-1
 859.5 896 l 6,28,29
 867.5 904 867.5 904 878.5 904 c 260,0,1
EndSplineSet
Validated: 33
EndChar

StartChar: uni0368
Encoding: 872 872 116
Width: 1164
Flags: W
LayerCount: 2
Fore
SplineSet
878.5 904 m 260,0,1
 889.5 904 889.5 904 897.5 896 c 6,2,-1
 1069.5 724 l 6,3,4
 1088.5 705 1088.5 705 1069.5 686 c 6,5,-1
 790.5 407 l 5,6,-1
 1074.5 123 l 6,7,8
 1094.5 104 1094.5 104 1074.5 84 c 6,9,-1
 903.5 -87 l 6,10,11
 884.5 -106 884.5 -106 865.5 -87 c 6,12,-1
 580.5 198 l 5,13,-1
 298.5 -84 l 6,14,15
 279.5 -103 279.5 -103 260.5 -84 c 6,16,-1
 89.5 87 l 6,17,18
 70.5 106 70.5 106 89.5 125 c 6,19,-1
 371.5 407 l 5,20,-1
 95.5 683 l 6,21,22
 76.5 702 76.5 702 95.5 721 c 6,23,-1
 266.5 892 l 6,24,25
 286.5 912 286.5 912 305.5 892 c 6,26,-1
 580.5 617 l 5,27,-1
 859.5 896 l 6,28,29
 867.5 904 867.5 904 878.5 904 c 260,0,1
EndSplineSet
Validated: 33
EndChar

StartChar: uni0369
Encoding: 873 873 117
Width: 1164
Flags: W
LayerCount: 2
Fore
SplineSet
878.5 904 m 260,0,1
 889.5 904 889.5 904 897.5 896 c 6,2,-1
 1069.5 724 l 6,3,4
 1088.5 705 1088.5 705 1069.5 686 c 6,5,-1
 790.5 407 l 5,6,-1
 1074.5 123 l 6,7,8
 1094.5 104 1094.5 104 1074.5 84 c 6,9,-1
 903.5 -87 l 6,10,11
 884.5 -106 884.5 -106 865.5 -87 c 6,12,-1
 580.5 198 l 5,13,-1
 298.5 -84 l 6,14,15
 279.5 -103 279.5 -103 260.5 -84 c 6,16,-1
 89.5 87 l 6,17,18
 70.5 106 70.5 106 89.5 125 c 6,19,-1
 371.5 407 l 5,20,-1
 95.5 683 l 6,21,22
 76.5 702 76.5 702 95.5 721 c 6,23,-1
 266.5 892 l 6,24,25
 286.5 912 286.5 912 305.5 892 c 6,26,-1
 580.5 617 l 5,27,-1
 859.5 896 l 6,28,29
 867.5 904 867.5 904 878.5 904 c 260,0,1
EndSplineSet
Validated: 33
EndChar

StartChar: uni036B
Encoding: 875 875 118
Width: 1164
Flags: W
LayerCount: 2
Fore
SplineSet
878.5 904 m 260,0,1
 889.5 904 889.5 904 897.5 896 c 6,2,-1
 1069.5 724 l 6,3,4
 1088.5 705 1088.5 705 1069.5 686 c 6,5,-1
 790.5 407 l 5,6,-1
 1074.5 123 l 6,7,8
 1094.5 104 1094.5 104 1074.5 84 c 6,9,-1
 903.5 -87 l 6,10,11
 884.5 -106 884.5 -106 865.5 -87 c 6,12,-1
 580.5 198 l 5,13,-1
 298.5 -84 l 6,14,15
 279.5 -103 279.5 -103 260.5 -84 c 6,16,-1
 89.5 87 l 6,17,18
 70.5 106 70.5 106 89.5 125 c 6,19,-1
 371.5 407 l 5,20,-1
 95.5 683 l 6,21,22
 76.5 702 76.5 702 95.5 721 c 6,23,-1
 266.5 892 l 6,24,25
 286.5 912 286.5 912 305.5 892 c 6,26,-1
 580.5 617 l 5,27,-1
 859.5 896 l 6,28,29
 867.5 904 867.5 904 878.5 904 c 260,0,1
EndSplineSet
Validated: 33
EndChar

StartChar: uni036A
Encoding: 874 874 119
Width: 1164
Flags: W
LayerCount: 2
Fore
SplineSet
878.5 904 m 260,0,1
 889.5 904 889.5 904 897.5 896 c 6,2,-1
 1069.5 724 l 6,3,4
 1088.5 705 1088.5 705 1069.5 686 c 6,5,-1
 790.5 407 l 5,6,-1
 1074.5 123 l 6,7,8
 1094.5 104 1094.5 104 1074.5 84 c 6,9,-1
 903.5 -87 l 6,10,11
 884.5 -106 884.5 -106 865.5 -87 c 6,12,-1
 580.5 198 l 5,13,-1
 298.5 -84 l 6,14,15
 279.5 -103 279.5 -103 260.5 -84 c 6,16,-1
 89.5 87 l 6,17,18
 70.5 106 70.5 106 89.5 125 c 6,19,-1
 371.5 407 l 5,20,-1
 95.5 683 l 6,21,22
 76.5 702 76.5 702 95.5 721 c 6,23,-1
 266.5 892 l 6,24,25
 286.5 912 286.5 912 305.5 892 c 6,26,-1
 580.5 617 l 5,27,-1
 859.5 896 l 6,28,29
 867.5 904 867.5 904 878.5 904 c 260,0,1
EndSplineSet
Validated: 33
EndChar

StartChar: uni036C
Encoding: 876 876 120
Width: 1164
Flags: W
LayerCount: 2
Fore
SplineSet
878.5 904 m 260,0,1
 889.5 904 889.5 904 897.5 896 c 6,2,-1
 1069.5 724 l 6,3,4
 1088.5 705 1088.5 705 1069.5 686 c 6,5,-1
 790.5 407 l 5,6,-1
 1074.5 123 l 6,7,8
 1094.5 104 1094.5 104 1074.5 84 c 6,9,-1
 903.5 -87 l 6,10,11
 884.5 -106 884.5 -106 865.5 -87 c 6,12,-1
 580.5 198 l 5,13,-1
 298.5 -84 l 6,14,15
 279.5 -103 279.5 -103 260.5 -84 c 6,16,-1
 89.5 87 l 6,17,18
 70.5 106 70.5 106 89.5 125 c 6,19,-1
 371.5 407 l 5,20,-1
 95.5 683 l 6,21,22
 76.5 702 76.5 702 95.5 721 c 6,23,-1
 266.5 892 l 6,24,25
 286.5 912 286.5 912 305.5 892 c 6,26,-1
 580.5 617 l 5,27,-1
 859.5 896 l 6,28,29
 867.5 904 867.5 904 878.5 904 c 260,0,1
EndSplineSet
Validated: 33
EndChar

StartChar: uni036D
Encoding: 877 877 121
Width: 1164
Flags: W
LayerCount: 2
Fore
SplineSet
878.5 904 m 260,0,1
 889.5 904 889.5 904 897.5 896 c 6,2,-1
 1069.5 724 l 6,3,4
 1088.5 705 1088.5 705 1069.5 686 c 6,5,-1
 790.5 407 l 5,6,-1
 1074.5 123 l 6,7,8
 1094.5 104 1094.5 104 1074.5 84 c 6,9,-1
 903.5 -87 l 6,10,11
 884.5 -106 884.5 -106 865.5 -87 c 6,12,-1
 580.5 198 l 5,13,-1
 298.5 -84 l 6,14,15
 279.5 -103 279.5 -103 260.5 -84 c 6,16,-1
 89.5 87 l 6,17,18
 70.5 106 70.5 106 89.5 125 c 6,19,-1
 371.5 407 l 5,20,-1
 95.5 683 l 6,21,22
 76.5 702 76.5 702 95.5 721 c 6,23,-1
 266.5 892 l 6,24,25
 286.5 912 286.5 912 305.5 892 c 6,26,-1
 580.5 617 l 5,27,-1
 859.5 896 l 6,28,29
 867.5 904 867.5 904 878.5 904 c 260,0,1
EndSplineSet
Validated: 33
EndChar

StartChar: uni036E
Encoding: 878 878 122
Width: 1164
Flags: W
LayerCount: 2
Fore
SplineSet
878.5 904 m 260,0,1
 889.5 904 889.5 904 897.5 896 c 6,2,-1
 1069.5 724 l 6,3,4
 1088.5 705 1088.5 705 1069.5 686 c 6,5,-1
 790.5 407 l 5,6,-1
 1074.5 123 l 6,7,8
 1094.5 104 1094.5 104 1074.5 84 c 6,9,-1
 903.5 -87 l 6,10,11
 884.5 -106 884.5 -106 865.5 -87 c 6,12,-1
 580.5 198 l 5,13,-1
 298.5 -84 l 6,14,15
 279.5 -103 279.5 -103 260.5 -84 c 6,16,-1
 89.5 87 l 6,17,18
 70.5 106 70.5 106 89.5 125 c 6,19,-1
 371.5 407 l 5,20,-1
 95.5 683 l 6,21,22
 76.5 702 76.5 702 95.5 721 c 6,23,-1
 266.5 892 l 6,24,25
 286.5 912 286.5 912 305.5 892 c 6,26,-1
 580.5 617 l 5,27,-1
 859.5 896 l 6,28,29
 867.5 904 867.5 904 878.5 904 c 260,0,1
EndSplineSet
Validated: 33
EndChar

StartChar: uni036F
Encoding: 879 879 123
Width: 1164
Flags: W
LayerCount: 2
Fore
SplineSet
878.5 904 m 260,0,1
 889.5 904 889.5 904 897.5 896 c 6,2,-1
 1069.5 724 l 6,3,4
 1088.5 705 1088.5 705 1069.5 686 c 6,5,-1
 790.5 407 l 5,6,-1
 1074.5 123 l 6,7,8
 1094.5 104 1094.5 104 1074.5 84 c 6,9,-1
 903.5 -87 l 6,10,11
 884.5 -106 884.5 -106 865.5 -87 c 6,12,-1
 580.5 198 l 5,13,-1
 298.5 -84 l 6,14,15
 279.5 -103 279.5 -103 260.5 -84 c 6,16,-1
 89.5 87 l 6,17,18
 70.5 106 70.5 106 89.5 125 c 6,19,-1
 371.5 407 l 5,20,-1
 95.5 683 l 6,21,22
 76.5 702 76.5 702 95.5 721 c 6,23,-1
 266.5 892 l 6,24,25
 286.5 912 286.5 912 305.5 892 c 6,26,-1
 580.5 617 l 5,27,-1
 859.5 896 l 6,28,29
 867.5 904 867.5 904 878.5 904 c 260,0,1
EndSplineSet
Validated: 33
EndChar

StartChar: uni0370
Encoding: 880 880 124
Width: 1468
Flags: W
LayerCount: 2
Fore
SplineSet
1188.5 899 m 4,0,1
 1199.5 900 1199.5 900 1207.5 892 c 6,2,-1
 1378.5 721 l 6,3,4
 1397.5 702 1397.5 702 1378.5 683 c 6,5,-1
 615.5 -80 l 6,6,7
 596.5 -99 596.5 -99 577.5 -80 c 6,8,-1
 89.5 408 l 6,9,10
 70.5 427 70.5 427 89.5 446 c 6,11,-1
 259.5 617 l 6,12,13
 278.5 636 278.5 636 297.5 617 c 6,14,-1
 596.5 318 l 5,15,-1
 1169.5 892 l 6,16,17
 1177.5 899 1177.5 899 1188.5 899 c 4,0,1
EndSplineSet
Validated: 33
EndChar

StartChar: uni0371
Encoding: 881 881 125
Width: 1468
Flags: W
LayerCount: 2
Fore
SplineSet
1188.5 899 m 4,0,1
 1199.5 900 1199.5 900 1207.5 892 c 6,2,-1
 1378.5 721 l 6,3,4
 1397.5 702 1397.5 702 1378.5 683 c 6,5,-1
 615.5 -80 l 6,6,7
 596.5 -99 596.5 -99 577.5 -80 c 6,8,-1
 89.5 408 l 6,9,10
 70.5 427 70.5 427 89.5 446 c 6,11,-1
 259.5 617 l 6,12,13
 278.5 636 278.5 636 297.5 617 c 6,14,-1
 596.5 318 l 5,15,-1
 1169.5 892 l 6,16,17
 1177.5 899 1177.5 899 1188.5 899 c 4,0,1
EndSplineSet
Validated: 33
EndChar

StartChar: uni0310
Encoding: 784 784 126
Width: 1164
Flags: W
LayerCount: 2
Fore
SplineSet
878.5 904 m 260,0,1
 889.5 904 889.5 904 897.5 896 c 6,2,-1
 1069.5 724 l 6,3,4
 1088.5 705 1088.5 705 1069.5 686 c 6,5,-1
 790.5 407 l 5,6,-1
 1074.5 123 l 6,7,8
 1094.5 104 1094.5 104 1074.5 84 c 6,9,-1
 903.5 -87 l 6,10,11
 884.5 -106 884.5 -106 865.5 -87 c 6,12,-1
 580.5 198 l 5,13,-1
 298.5 -84 l 6,14,15
 279.5 -103 279.5 -103 260.5 -84 c 6,16,-1
 89.5 87 l 6,17,18
 70.5 106 70.5 106 89.5 125 c 6,19,-1
 371.5 407 l 5,20,-1
 95.5 683 l 6,21,22
 76.5 702 76.5 702 95.5 721 c 6,23,-1
 266.5 892 l 6,24,25
 286.5 912 286.5 912 305.5 892 c 6,26,-1
 580.5 617 l 5,27,-1
 859.5 896 l 6,28,29
 867.5 904 867.5 904 878.5 904 c 260,0,1
EndSplineSet
Validated: 33
EndChar

StartChar: uni0373
Encoding: 883 883 127
Width: 1468
Flags: W
LayerCount: 2
Fore
SplineSet
1188.5 899 m 4,0,1
 1199.5 900 1199.5 900 1207.5 892 c 6,2,-1
 1378.5 721 l 6,3,4
 1397.5 702 1397.5 702 1378.5 683 c 6,5,-1
 615.5 -80 l 6,6,7
 596.5 -99 596.5 -99 577.5 -80 c 6,8,-1
 89.5 408 l 6,9,10
 70.5 427 70.5 427 89.5 446 c 6,11,-1
 259.5 617 l 6,12,13
 278.5 636 278.5 636 297.5 617 c 6,14,-1
 596.5 318 l 5,15,-1
 1169.5 892 l 6,16,17
 1177.5 899 1177.5 899 1188.5 899 c 4,0,1
EndSplineSet
Validated: 33
EndChar

StartChar: uni0372
Encoding: 882 882 128
Width: 1468
Flags: W
LayerCount: 2
Fore
SplineSet
1188.5 899 m 4,0,1
 1199.5 900 1199.5 900 1207.5 892 c 6,2,-1
 1378.5 721 l 6,3,4
 1397.5 702 1397.5 702 1378.5 683 c 6,5,-1
 615.5 -80 l 6,6,7
 596.5 -99 596.5 -99 577.5 -80 c 6,8,-1
 89.5 408 l 6,9,10
 70.5 427 70.5 427 89.5 446 c 6,11,-1
 259.5 617 l 6,12,13
 278.5 636 278.5 636 297.5 617 c 6,14,-1
 596.5 318 l 5,15,-1
 1169.5 892 l 6,16,17
 1177.5 899 1177.5 899 1188.5 899 c 4,0,1
EndSplineSet
Validated: 33
EndChar

StartChar: uni0374
Encoding: 884 884 129
Width: 1468
Flags: W
LayerCount: 2
Fore
SplineSet
1188.5 899 m 4,0,1
 1199.5 900 1199.5 900 1207.5 892 c 6,2,-1
 1378.5 721 l 6,3,4
 1397.5 702 1397.5 702 1378.5 683 c 6,5,-1
 615.5 -80 l 6,6,7
 596.5 -99 596.5 -99 577.5 -80 c 6,8,-1
 89.5 408 l 6,9,10
 70.5 427 70.5 427 89.5 446 c 6,11,-1
 259.5 617 l 6,12,13
 278.5 636 278.5 636 297.5 617 c 6,14,-1
 596.5 318 l 5,15,-1
 1169.5 892 l 6,16,17
 1177.5 899 1177.5 899 1188.5 899 c 4,0,1
EndSplineSet
Validated: 33
EndChar

StartChar: uni0375
Encoding: 885 885 130
Width: 1164
Flags: W
LayerCount: 2
Fore
SplineSet
878.5 904 m 260,0,1
 889.5 904 889.5 904 897.5 896 c 6,2,-1
 1069.5 724 l 6,3,4
 1088.5 705 1088.5 705 1069.5 686 c 6,5,-1
 790.5 407 l 5,6,-1
 1074.5 123 l 6,7,8
 1094.5 104 1094.5 104 1074.5 84 c 6,9,-1
 903.5 -87 l 6,10,11
 884.5 -106 884.5 -106 865.5 -87 c 6,12,-1
 580.5 198 l 5,13,-1
 298.5 -84 l 6,14,15
 279.5 -103 279.5 -103 260.5 -84 c 6,16,-1
 89.5 87 l 6,17,18
 70.5 106 70.5 106 89.5 125 c 6,19,-1
 371.5 407 l 5,20,-1
 95.5 683 l 6,21,22
 76.5 702 76.5 702 95.5 721 c 6,23,-1
 266.5 892 l 6,24,25
 286.5 912 286.5 912 305.5 892 c 6,26,-1
 580.5 617 l 5,27,-1
 859.5 896 l 6,28,29
 867.5 904 867.5 904 878.5 904 c 260,0,1
EndSplineSet
Validated: 33
EndChar

StartChar: uni0376
Encoding: 886 886 131
Width: 1468
Flags: W
LayerCount: 2
Fore
SplineSet
1188.5 899 m 4,0,1
 1199.5 900 1199.5 900 1207.5 892 c 6,2,-1
 1378.5 721 l 6,3,4
 1397.5 702 1397.5 702 1378.5 683 c 6,5,-1
 615.5 -80 l 6,6,7
 596.5 -99 596.5 -99 577.5 -80 c 6,8,-1
 89.5 408 l 6,9,10
 70.5 427 70.5 427 89.5 446 c 6,11,-1
 259.5 617 l 6,12,13
 278.5 636 278.5 636 297.5 617 c 6,14,-1
 596.5 318 l 5,15,-1
 1169.5 892 l 6,16,17
 1177.5 899 1177.5 899 1188.5 899 c 4,0,1
EndSplineSet
Validated: 33
EndChar

StartChar: uni0377
Encoding: 887 887 132
Width: 1468
Flags: W
LayerCount: 2
Fore
SplineSet
1188.5 899 m 4,0,1
 1199.5 900 1199.5 900 1207.5 892 c 6,2,-1
 1378.5 721 l 6,3,4
 1397.5 702 1397.5 702 1378.5 683 c 6,5,-1
 615.5 -80 l 6,6,7
 596.5 -99 596.5 -99 577.5 -80 c 6,8,-1
 89.5 408 l 6,9,10
 70.5 427 70.5 427 89.5 446 c 6,11,-1
 259.5 617 l 6,12,13
 278.5 636 278.5 636 297.5 617 c 6,14,-1
 596.5 318 l 5,15,-1
 1169.5 892 l 6,16,17
 1177.5 899 1177.5 899 1188.5 899 c 4,0,1
EndSplineSet
Validated: 33
EndChar

StartChar: uni0378
Encoding: 888 888 133
Width: 1468
Flags: W
LayerCount: 2
Fore
SplineSet
1188.5 899 m 4,0,1
 1199.5 900 1199.5 900 1207.5 892 c 6,2,-1
 1378.5 721 l 6,3,4
 1397.5 702 1397.5 702 1378.5 683 c 6,5,-1
 615.5 -80 l 6,6,7
 596.5 -99 596.5 -99 577.5 -80 c 6,8,-1
 89.5 408 l 6,9,10
 70.5 427 70.5 427 89.5 446 c 6,11,-1
 259.5 617 l 6,12,13
 278.5 636 278.5 636 297.5 617 c 6,14,-1
 596.5 318 l 5,15,-1
 1169.5 892 l 6,16,17
 1177.5 899 1177.5 899 1188.5 899 c 4,0,1
EndSplineSet
Validated: 33
EndChar

StartChar: uni0379
Encoding: 889 889 134
Width: 1468
Flags: W
LayerCount: 2
Fore
SplineSet
1188.5 899 m 4,0,1
 1199.5 900 1199.5 900 1207.5 892 c 6,2,-1
 1378.5 721 l 6,3,4
 1397.5 702 1397.5 702 1378.5 683 c 6,5,-1
 615.5 -80 l 6,6,7
 596.5 -99 596.5 -99 577.5 -80 c 6,8,-1
 89.5 408 l 6,9,10
 70.5 427 70.5 427 89.5 446 c 6,11,-1
 259.5 617 l 6,12,13
 278.5 636 278.5 636 297.5 617 c 6,14,-1
 596.5 318 l 5,15,-1
 1169.5 892 l 6,16,17
 1177.5 899 1177.5 899 1188.5 899 c 4,0,1
EndSplineSet
Validated: 33
EndChar

StartChar: Psi
Encoding: 936 936 135
Width: 971
Flags: W
LayerCount: 2
Fore
SplineSet
335 298 m 1,0,1
 408 236 408 236 495 236 c 0,2,3
 579 236 579 236 650 293 c 1,4,5
 750 259 750 259 820.5 195.5 c 128,-1,6
 891 132 891 132 891 89 c 2,7,-1
 891 78 l 2,8,9
 891 33 891 33 873 1 c 128,-1,10
 855 -31 855 -31 826 -50 c 128,-1,11
 797 -69 797 -69 748 -79.5 c 128,-1,12
 699 -90 699 -90 648.5 -93.5 c 128,-1,13
 598 -97 598 -97 527 -97 c 2,14,-1
 431 -97 l 2,15,16
 359 -97 359 -97 310 -93.5 c 128,-1,17
 261 -90 261 -90 214 -79.5 c 128,-1,18
 167 -69 167 -69 140 -50 c 128,-1,19
 113 -31 113 -31 96.5 1 c 128,-1,20
 80 33 80 33 80 78 c 2,21,-1
 80 89 l 2,22,23
 80 135 80 135 154.5 200.5 c 128,-1,24
 229 266 229 266 335 298 c 1,0,1
495.5 896 m 128,-1,26
 588 896 588 896 653 830 c 128,-1,27
 718 764 718 764 718 666 c 0,28,29
 718 516 718 516 648 415 c 0,30,31
 583 321 583 321 495 321 c 256,32,33
 407 321 407 321 343 414 c 0,34,35
 273 515 273 515 273 666 c 0,36,37
 273 764 273 764 338 830 c 128,-1,25
 403 896 403 896 495.5 896 c 128,-1,26
EndSplineSet
Validated: 1
EndChar

